<svg xmlns="http://www.w3.org/2000/svg" width="130" height="40" fill="none">
  <path d="M19.805 31.685c-2.207.413-3.062 2.478-3.062 2.478s.181-2.152 1.633-3.603c.457.4.934.775 1.43 1.125z" fill="#282828"/>
  <path d="M24.91 34.276a17.215 17.215 0 01-5.162-2.466 17.618 17.618 0 01-6.185-7.775 17.809 17.809 0 01-1.259-8.086c.285-6.352 3.684-8.053 6.6-7.628a5.29 5.29 0 011.96.7c.602.362 1.128.84 1.547 1.408a5.456 5.456 0 011.007 4c-.074.51-.134.894-.779 2.305a.072.072 0 00-.009.021v.004a18.412 18.412 0 00-1.085 4.12 18.25 18.25 0 00.364 7.037 18.136 18.136 0 003.001 6.36z" fill="#FFCE00"/>
  <path d="M16.522 13.058c0 .222-.072.438-.203.616a1.01 1.01 0 01-1.67-.052c-.85-1.295-1.89-.221-1.89-.221-3.23-.962-7.655-.946-12.759.396 5.615-2.304 8.406-2.236 13.202-1.771 0 0 .515 1.059 1.726.181a1.013 1.013 0 011.447.32c.096.16.147.344.147.531z" fill="#282828"/>
  <path fillRule="evenodd" clipRule="evenodd" d="M115.605 14.028a7.514 7.514 0 00-3.549.889 7.611 7.611 0 00-2.726 2.465v-2.73h-5.547V34.29h5.547v-11.4a4.235 4.235 0 011.344-2.846 4.139 4.139 0 012.921-1.105 4.145 4.145 0 012.861 1.255 4.24 4.24 0 011.197 2.912v8.37a5.66 5.66 0 001.631 3.961 5.532 5.532 0 003.918 1.648V21.73a7.745 7.745 0 00-.572-2.946 7.672 7.672 0 00-1.645-2.5 7.593 7.593 0 00-2.468-1.67 7.522 7.522 0 00-2.912-.586zM80.943 24.47c0-5.767-3.698-10.442-10.326-10.442-6.627 0-10.325 4.675-10.325 10.442s3.698 10.442 10.325 10.442c4.535 0 7.7-2.189 9.246-5.42l-.978-.53a4.635 4.635 0 00-5.225.631 4.14 4.14 0 01-1.392.953 4.102 4.102 0 01-1.65.315c-2.655 0-4.288-2.133-4.682-4.987h14.931c.051-.466.076-.935.076-1.404zm-14.905-2.025c.539-2.536 2.123-4.363 4.573-4.363s4.037 1.827 4.574 4.363h-9.147zM102.821 24.47c0-5.767-3.698-10.442-10.326-10.442-6.627 0-10.325 4.675-10.325 10.442s3.698 10.442 10.325 10.442c4.535 0 7.7-2.189 9.243-5.42l-.978-.53a4.633 4.633 0 00-5.225.631c-.394.41-.867.735-1.39.953a4.094 4.094 0 01-1.65.315c-2.654 0-4.288-2.133-4.682-4.987h14.932c.05-.466.075-.935.076-1.404zm-14.906-2.025c.537-2.536 2.122-4.363 4.574-4.363s4.037 1.827 4.574 4.363h-9.148z" fill="#0DA018"/>
  <path d="M61.944 14.487l-.365 2.622c-.04.287-.192.873-1.005 1.445a2.49 2.49 0 01-1.69.44c-1.544-.055-2.947.372-3.945 1.613-1.1 1.445-1.093 2.271-1.093 4.13v9.566h-5.545V14.652h5.54v3.01c1.132-2.413 3.133-3.634 5.73-3.634.812.01 1.615.166 2.373.459zM29.666 5.612a11.592 11.592 0 00-7.474 2.725 6.646 6.646 0 00-3.02-1.238 7.352 7.352 0 00-1.039-.077 6.472 6.472 0 00-2.7.57 17.335 17.335 0 015.882-5.403 17.097 17.097 0 0115.454-.634 17.289 17.289 0 016.297 4.903l-1.61 1.322a4.659 4.659 0 01-4.912.097 11.571 11.571 0 00-6.878-2.265zM46.912 14.652l.017 2.807c-.001 3.739-1.189 7.38-3.389 10.385a17.272 17.272 0 01-8.831 6.31 18.654 18.654 0 00-.533-5.762 11.75 11.75 0 004.392-3.237 11.924 11.924 0 002.48-4.89h-8.85a5.535 5.535 0 01-3.92-1.648 5.66 5.66 0 01-1.63-3.963l20.264-.002z" fill="#0DA018"/>
  <path d="M33 34.488a17.638 17.638 0 01-1.36 5.363c-4.14-1.921-7.4-5.39-9.107-9.694-1.707-4.303-1.662-8.904 0-13.225 6.838 2.84 11.19 9.795 10.467 17.556z" fill="#EF0000"/>
</svg> 
