<svg xmlns="http://www.w3.org/2000/svg" xmlns:xlink="http://www.w3.org/1999/xlink" version="1.1" width="2651px" height="1503px" style="shape-rendering:geometricPrecision; text-rendering:geometricPrecision; image-rendering:optimizeQuality; fill-rule:evenodd; clip-rule:evenodd">
<g><path style="opacity:0.946" fill="#fcfcfd" d="M 2437.5,518.5 C 2472.8,515.377 2495.3,530.711 2505,564.5C 2508.53,599.307 2493.7,621.807 2460.5,632C 2425.09,636.385 2402.26,621.552 2392,587.5C 2388.17,551.786 2403.34,528.786 2437.5,518.5 Z M 2448.5,599.5 C 2449.29,599.783 2449.96,600.283 2450.5,601C 2449.18,601.528 2448.52,601.028 2448.5,599.5 Z"/></g>
<g><path style="opacity:1" fill="#2c478a" d="M 2440.5,530.5 C 2467.87,529.062 2485.37,541.395 2493,567.5C 2494.83,595.364 2482.33,612.864 2455.5,620C 2427.75,622.042 2410.59,609.542 2404,582.5C 2402.62,555.586 2414.78,538.253 2440.5,530.5 Z M 2448.5,599.5 C 2448.52,601.028 2449.18,601.528 2450.5,601C 2449.96,600.283 2449.29,599.783 2448.5,599.5 Z"/></g>
<g><path style="opacity:0.958" fill="#fdfcfc" d="M 1708.5,532.5 C 1709.83,532.5 1711.17,532.5 1712.5,532.5C 1712.5,571.5 1712.5,610.5 1712.5,649.5C 1733.83,649.5 1755.17,649.5 1776.5,649.5C 1776.33,664.837 1776.5,680.17 1777,695.5C 1805.59,668.789 1839.43,652.623 1878.5,647C 1926.33,639.136 1973.17,642.969 2019,658.5C 2047.15,668.563 2070.49,685.229 2089,708.5C 2089.5,689.17 2089.67,669.836 2089.5,650.5C 2143.5,650.5 2197.5,650.5 2251.5,650.5C 2251.33,662.505 2251.5,674.505 2252,686.5C 2276.4,661.237 2306.24,647.071 2341.5,644C 2357.48,642.723 2373.48,641.89 2389.5,641.5C 2389.33,687.501 2389.5,733.501 2390,779.5C 2435.76,785.201 2470.76,807.534 2495,846.5C 2507.2,870.375 2507.53,894.375 2496,918.5C 2481.49,938.354 2461.99,950.521 2437.5,955C 2421.25,958.687 2404.92,959.354 2388.5,957C 2406.02,964.819 2424.02,966.152 2442.5,961C 2451.38,958.595 2460.05,955.595 2468.5,952C 2480.67,945.085 2492.67,937.918 2504.5,930.5C 2501.76,984.749 2475.1,1021.92 2424.5,1042C 2366.33,1059.84 2316.5,1046.67 2275,1002.5C 2263.22,988.29 2254.56,972.29 2249,954.5C 2249.8,961.23 2251.63,967.73 2254.5,974C 2199.49,974.196 2144.49,974.696 2089.5,975.5C 2089.67,953.831 2089.5,932.164 2089,910.5C 2066.03,937.103 2037.53,955.27 2003.5,965C 1948.09,979.829 1893.09,978.496 1838.5,961C 1815.13,952.612 1794.63,939.779 1777,922.5C 1776.83,933.848 1776.33,945.181 1775.5,956.5C 1730.9,973.993 1684.9,979.16 1637.5,972C 1583.8,961.964 1553.96,929.797 1548,875.5C 1531.88,916.954 1502.71,944.787 1460.5,959C 1424.24,970.465 1387.08,975.965 1349,975.5C 1290.58,975.565 1233.08,968.398 1176.5,954C 1175.67,934.573 1175.17,915.073 1175,895.5C 1148.28,935.314 1111.11,959.814 1063.5,969C 1015,978.824 966.997,976.824 919.5,963C 852.439,940.372 815.273,893.872 808,823.5C 807.181,809.77 807.681,796.104 809.5,782.5C 757.605,792.229 721.772,821.562 702,870.5C 694.112,893.034 692.445,916.034 697,939.5C 700.071,951.542 703.237,963.542 706.5,975.5C 651.843,974.548 597.177,974.215 542.5,974.5C 542.667,914.499 542.5,854.499 542,794.5C 515.164,823.928 481.997,842.428 442.5,850C 433.22,851.707 423.886,853.04 414.5,854C 382.519,855.376 350.519,855.876 318.5,855.5C 318.5,895.5 318.5,935.5 318.5,975.5C 260.167,975.5 201.833,975.5 143.5,975.5C 143.5,834.167 143.5,692.833 143.5,551.5C 230.834,551.333 318.167,551.5 405.5,552C 447.93,554.03 486.263,567.364 520.5,592C 540.093,607.709 554.427,627.209 563.5,650.5C 610.5,650.5 657.5,650.5 704.5,650.5C 704.333,662.505 704.5,674.505 705,686.5C 730.146,662.014 760.312,647.848 795.5,644C 811.167,643.087 826.834,642.254 842.5,641.5C 842.333,662.503 842.5,683.503 843,704.5C 863.37,681.716 888.204,665.549 917.5,656C 963.511,642.452 1010.18,639.786 1057.5,648C 1098.8,655.227 1133.63,674.061 1162,704.5C 1167.16,710.817 1171.83,717.484 1176,724.5C 1160.05,652.576 1184.89,600.41 1250.5,568C 1274.82,557.585 1300.16,550.919 1326.5,548C 1394.21,540.958 1461.21,545.125 1527.5,560.5C 1528.5,590.159 1528.83,619.826 1528.5,649.5C 1534.5,649.5 1540.5,649.5 1546.5,649.5C 1546.17,626.592 1546.51,603.758 1547.5,581C 1601.42,565.275 1655.09,549.108 1708.5,532.5 Z M 1381.5,663.5 C 1420.61,662.044 1458.95,666.711 1496.5,677.5C 1496.67,693.503 1496.5,709.503 1496,725.5C 1471.85,712.893 1446.35,704.06 1419.5,699C 1402.17,695.667 1384.83,692.333 1367.5,689C 1361.87,687.789 1356.53,685.789 1351.5,683C 1346.36,678.718 1346.36,674.384 1351.5,670C 1361.28,666.209 1371.28,664.043 1381.5,663.5 Z M 314.5,667.5 C 326.505,667.333 338.505,667.5 350.5,668C 364.744,668.516 376.577,674.016 386,684.5C 392.927,697.569 392.594,710.569 385,723.5C 374.758,733.92 362.258,739.086 347.5,739C 336.505,739.5 325.505,739.667 314.5,739.5C 314.5,715.5 314.5,691.5 314.5,667.5 Z M 997.5,752.5 C 1004.42,751.043 1009.92,753.043 1014,758.5C 1016.47,763.232 1018.13,768.232 1019,773.5C 1022.54,798.891 1022.21,824.224 1018,849.5C 1016.68,854.977 1014.18,859.811 1010.5,864C 998.505,868.413 991.005,864.246 988,851.5C 984.173,826.94 983.506,802.273 986,777.5C 986.79,770.465 988.79,763.798 992,757.5C 993.73,755.598 995.563,753.931 997.5,752.5 Z M 1922.5,752.5 C 1928.7,751.285 1933.87,752.952 1938,757.5C 1942.47,766.97 1944.8,776.97 1945,787.5C 1945.67,801.833 1945.67,816.167 1945,830.5C 1944.83,841.036 1942.49,851.036 1938,860.5C 1931.27,867.867 1924.27,868.2 1917,861.5C 1914.78,857.729 1913.11,853.729 1912,849.5C 1907.33,822.5 1907.33,795.5 1912,768.5C 1913.31,761.512 1916.81,756.179 1922.5,752.5 Z M 1189.5,753.5 C 1208.78,778.837 1233.78,796.337 1264.5,806C 1292.74,814.449 1321.41,821.115 1350.5,826C 1356.29,827.262 1361.95,828.928 1367.5,831C 1382.06,838.172 1381.73,844.838 1366.5,851C 1343.65,855.826 1320.65,857.159 1297.5,855C 1263.02,852.304 1229.68,844.637 1197.5,832C 1198.89,805.48 1196.22,779.314 1189.5,753.5 Z M 1534.5,760.5 C 1538.3,759.517 1542.3,759.183 1546.5,759.5C 1546.67,766.841 1546.5,774.174 1546,781.5C 1543.17,773.828 1539.34,766.828 1534.5,760.5 Z M 1712.5,759.5 C 1721.52,759.168 1730.52,759.502 1739.5,760.5C 1730.58,792.064 1730.24,823.731 1738.5,855.5C 1730.39,857.12 1723.22,855.12 1717,849.5C 1715.72,847.283 1714.72,844.949 1714,842.5C 1712.56,814.866 1712.06,787.2 1712.5,759.5 Z M 2366.5,878.5 C 2370.6,878.234 2374.6,878.734 2378.5,880C 2389.14,886.767 2393.64,896.267 2392,908.5C 2385.57,917.045 2376.9,921.045 2366,920.5C 2362.17,920.11 2358.33,919.777 2354.5,919.5C 2353.24,915.559 2352.08,911.559 2351,907.5C 2348.83,893.834 2354,884.167 2366.5,878.5 Z M 2244.5,891.5 C 2242.71,910.27 2243.38,928.937 2246.5,947.5C 2240.91,928.988 2240.24,910.321 2244.5,891.5 Z"/></g>
<g><path style="opacity:0.998" fill="#fafafc" d="M 2440.5,537.5 C 2463.55,535.734 2478.71,545.734 2486,567.5C 2488.26,590.565 2478.42,605.731 2456.5,613C 2433.21,615.61 2418.04,605.777 2411,583.5C 2408.5,560.144 2418.34,544.811 2440.5,537.5 Z M 2448.5,599.5 C 2448.52,601.028 2449.18,601.528 2450.5,601C 2449.96,600.283 2449.29,599.783 2448.5,599.5 Z"/></g>
<g><path style="opacity:1" fill="#254287" d="M 1698.5,549.5 C 1699.17,587.167 1699.83,624.833 1700.5,662.5C 1721.83,662.5 1743.17,662.5 1764.5,662.5C 1764.33,685.502 1764.5,708.502 1765,731.5C 1782.46,703.378 1806.63,683.212 1837.5,671C 1899.08,649.748 1960.41,650.414 2021.5,673C 2061.49,689.655 2088.32,718.489 2102,759.5C 2102.5,727.502 2102.67,695.502 2102.5,663.5C 2147.83,663.5 2193.17,663.5 2238.5,663.5C 2238.17,683.511 2238.5,703.511 2239.5,723.5C 2240.11,723.376 2240.44,723.043 2240.5,722.5C 2264.12,682.77 2299.12,660.604 2345.5,656C 2355.85,655.704 2366.19,655.204 2376.5,654.5C 2376.5,692.5 2376.5,730.5 2376.5,768.5C 2312.21,771.388 2266.71,802.055 2240,860.5C 2230.97,882.301 2227.64,904.968 2230,928.5C 2231.6,939.983 2233.76,951.317 2236.5,962.5C 2191.83,962.5 2147.17,962.5 2102.5,962.5C 2102.67,927.832 2102.5,893.165 2102,858.5C 2101.21,859.745 2100.71,861.078 2100.5,862.5C 2087.17,899.668 2062.5,926.501 2026.5,943C 1979.08,962.243 1930.08,967.576 1879.5,959C 1839.47,952.574 1805.64,934.741 1778,905.5C 1773.22,899.896 1769.06,893.896 1765.5,887.5C 1765.22,886.711 1764.72,886.044 1764,885.5C 1763.5,906.164 1763.33,926.831 1763.5,947.5C 1721.84,962.262 1679.17,966.095 1635.5,959C 1596.16,950.989 1571.99,927.489 1563,888.5C 1560.84,878.63 1559.68,868.63 1559.5,858.5C 1559.5,821.167 1559.5,783.833 1559.5,746.5C 1542.83,746.5 1526.17,746.5 1509.5,746.5C 1509.5,720.5 1509.5,694.5 1509.5,668.5C 1459.92,652.638 1409.26,647.804 1357.5,654C 1338.65,658.22 1332.15,669.387 1338,687.5C 1342.25,692.373 1347.42,695.873 1353.5,698C 1359.41,699.978 1365.41,701.645 1371.5,703C 1394.65,707.029 1417.65,711.696 1440.5,717C 1464.13,722.984 1485.79,732.984 1505.5,747C 1534.66,773.401 1546.49,806.235 1541,845.5C 1535.12,891.384 1510.95,923.55 1468.5,942C 1438.37,954.21 1407.04,960.877 1374.5,962C 1311.65,964.815 1249.65,958.982 1188.5,944.5C 1188.17,910.493 1188.5,876.493 1189.5,842.5C 1240.83,863.584 1294.17,871.751 1349.5,867C 1361.25,865.981 1372.25,862.648 1382.5,857C 1390.88,849.565 1392.71,840.731 1388,830.5C 1384.75,826.578 1380.92,823.412 1376.5,821C 1369.36,818.065 1362.03,815.732 1354.5,814C 1321.43,808.879 1289.09,800.879 1257.5,790C 1200.81,765.817 1176.98,722.984 1186,661.5C 1191.88,634.571 1205.71,612.738 1227.5,596C 1256.26,576.799 1287.93,565.132 1322.5,561C 1387.69,553.759 1452.36,556.925 1516.5,570.5C 1516.5,601.167 1516.5,631.833 1516.5,662.5C 1530.83,662.5 1545.17,662.5 1559.5,662.5C 1559.17,638.259 1559.51,614.092 1560.5,590C 1606.62,576.765 1652.62,563.265 1698.5,549.5 Z M 1381.5,663.5 C 1371.28,664.043 1361.28,666.209 1351.5,670C 1346.36,674.384 1346.36,678.718 1351.5,683C 1356.53,685.789 1361.87,687.789 1367.5,689C 1384.83,692.333 1402.17,695.667 1419.5,699C 1446.35,704.06 1471.85,712.893 1496,725.5C 1496.5,709.503 1496.67,693.503 1496.5,677.5C 1458.95,666.711 1420.61,662.044 1381.5,663.5 Z M 1922.5,752.5 C 1916.81,756.179 1913.31,761.512 1912,768.5C 1907.33,795.5 1907.33,822.5 1912,849.5C 1913.11,853.729 1914.78,857.729 1917,861.5C 1924.27,868.2 1931.27,867.867 1938,860.5C 1942.49,851.036 1944.83,841.036 1945,830.5C 1945.67,816.167 1945.67,801.833 1945,787.5C 1944.8,776.97 1942.47,766.97 1938,757.5C 1933.87,752.952 1928.7,751.285 1922.5,752.5 Z M 1534.5,760.5 C 1539.34,766.828 1543.17,773.828 1546,781.5C 1546.5,774.174 1546.67,766.841 1546.5,759.5C 1542.3,759.183 1538.3,759.517 1534.5,760.5 Z M 1712.5,759.5 C 1712.06,787.2 1712.56,814.866 1714,842.5C 1714.72,844.949 1715.72,847.283 1717,849.5C 1723.22,855.12 1730.39,857.12 1738.5,855.5C 1730.24,823.731 1730.58,792.064 1739.5,760.5C 1730.52,759.502 1721.52,759.168 1712.5,759.5 Z"/></g>
<g><path style="opacity:1" fill="#556ca2" d="M 1698.5,549.5 C 1698.56,548.957 1698.89,548.624 1699.5,548.5C 1700.5,586.494 1700.83,624.494 1700.5,662.5C 1699.83,624.833 1699.17,587.167 1698.5,549.5 Z"/></g>
<g><path style="opacity:1" fill="#2e488b" d="M 2436.5,578.5 C 2435.51,585.313 2435.18,592.313 2435.5,599.5C 2433.5,599.5 2431.5,599.5 2429.5,599.5C 2429.5,583.5 2429.5,567.5 2429.5,551.5C 2439.51,551.334 2449.51,551.5 2459.5,552C 2469.96,557.943 2471.29,565.609 2463.5,575C 2460.83,576 2458.17,577 2455.5,578C 2462.14,583.759 2467.47,590.592 2471.5,598.5C 2468.83,599.833 2466.17,599.833 2463.5,598.5C 2459.75,591.918 2455.42,585.751 2450.5,580C 2445.96,578.621 2441.3,578.121 2436.5,578.5 Z"/></g>
<g><path style="opacity:1" fill="#fafafc" d="M 2436.5,556.5 C 2443.17,556.334 2449.84,556.5 2456.5,557C 2461.22,559.435 2462.72,563.269 2461,568.5C 2459.68,570.487 2457.85,571.654 2455.5,572C 2449.18,572.5 2442.84,572.666 2436.5,572.5C 2436.5,567.167 2436.5,561.833 2436.5,556.5 Z"/></g>
<g><path style="opacity:1" fill="#e42a27" d="M 554.5,662.5 C 599.997,663.499 645.664,663.832 691.5,663.5C 691.333,683.503 691.5,703.503 692,723.5C 692.717,722.956 693.217,722.289 693.5,721.5C 717.603,683.262 752.269,661.429 797.5,656C 808.161,655.5 818.828,655.333 829.5,655.5C 829.333,687.502 829.5,719.502 830,751.5C 845.841,713.993 872.674,687.493 910.5,672C 961.884,653.456 1014.22,650.456 1067.5,663C 1109.98,672.797 1142.82,695.964 1166,732.5C 1185.8,771.076 1190.13,811.409 1179,853.5C 1164.89,900.946 1134.39,932.779 1087.5,949C 1046.36,961.939 1004.36,965.606 961.5,960C 927.334,955.508 896.668,942.842 869.5,922C 835.723,892.033 819.39,854.366 820.5,809C 820.115,795.304 821.448,781.804 824.5,768.5C 790.858,769.322 761.192,780.489 735.5,802C 687.627,844.455 671.96,896.622 688.5,958.5C 688.5,959.5 688.5,960.5 688.5,961.5C 644.167,961.5 599.833,961.5 555.5,961.5C 555.667,890.166 555.5,818.833 555,747.5C 554.487,748.527 553.987,749.527 553.5,750.5C 541.954,779.403 522.621,801.569 495.5,817C 464.354,833.917 431.02,842.417 395.5,842.5C 365.5,842.5 335.5,842.5 305.5,842.5C 305.5,882.5 305.5,922.5 305.5,962.5C 255.5,962.5 205.5,962.5 155.5,962.5C 155.5,829.5 155.5,696.5 155.5,563.5C 235.167,563.333 314.834,563.5 394.5,564C 432.797,564.823 468.464,574.823 501.5,594C 527.286,610.611 544.952,633.444 554.5,662.5 Z M 314.5,667.5 C 314.5,691.5 314.5,715.5 314.5,739.5C 325.505,739.667 336.505,739.5 347.5,739C 362.258,739.086 374.758,733.92 385,723.5C 392.594,710.569 392.927,697.569 386,684.5C 376.577,674.016 364.744,668.516 350.5,668C 338.505,667.5 326.505,667.333 314.5,667.5 Z M 997.5,752.5 C 995.563,753.931 993.73,755.598 992,757.5C 988.79,763.798 986.79,770.465 986,777.5C 983.506,802.273 984.173,826.94 988,851.5C 991.005,864.246 998.505,868.413 1010.5,864C 1014.18,859.811 1016.68,854.977 1018,849.5C 1022.21,824.224 1022.54,798.891 1019,773.5C 1018.13,768.232 1016.47,763.232 1014,758.5C 1009.92,753.043 1004.42,751.043 997.5,752.5 Z"/></g>
<g><path style="opacity:1" fill="#8696bc" d="M 2436.5,578.5 C 2436.5,585.833 2436.5,593.167 2436.5,600.5C 2433.94,600.802 2431.61,600.468 2429.5,599.5C 2431.5,599.5 2433.5,599.5 2435.5,599.5C 2435.18,592.313 2435.51,585.313 2436.5,578.5 Z"/></g>
<g><path style="opacity:1" fill="#f9cdcb" d="M 345.5,655.5 C 331.167,655.5 316.833,655.5 302.5,655.5C 302.5,687.5 302.5,719.5 302.5,751.5C 315.833,751.5 329.167,751.5 342.5,751.5C 329.01,752.496 315.344,752.829 301.5,752.5C 301.5,719.833 301.5,687.167 301.5,654.5C 316.343,654.171 331.01,654.504 345.5,655.5 Z"/></g>
<g><path style="opacity:0.952" fill="#fdfcfc" d="M 345.5,655.5 C 362.607,655.591 377.94,660.758 391.5,671C 404.163,686.424 406.996,703.591 400,722.5C 393.647,736.097 383.147,744.597 368.5,748C 359.979,750.225 351.312,751.391 342.5,751.5C 329.167,751.5 315.833,751.5 302.5,751.5C 302.5,719.5 302.5,687.5 302.5,655.5C 316.833,655.5 331.167,655.5 345.5,655.5 Z M 314.5,667.5 C 314.5,691.5 314.5,715.5 314.5,739.5C 325.505,739.667 336.505,739.5 347.5,739C 362.258,739.086 374.758,733.92 385,723.5C 392.594,710.569 392.927,697.569 386,684.5C 376.577,674.016 364.744,668.516 350.5,668C 338.505,667.5 326.505,667.333 314.5,667.5 Z"/></g>
<g><path style="opacity:1" fill="#ed7371" d="M 554.5,662.5 C 600.5,662.5 646.5,662.5 692.5,662.5C 692.17,682.34 692.503,702.007 693.5,721.5C 693.217,722.289 692.717,722.956 692,723.5C 691.5,703.503 691.333,683.503 691.5,663.5C 645.664,663.832 599.997,663.499 554.5,662.5 Z"/></g>
<g><path style="opacity:1" fill="#5c71a5" d="M 2102.5,663.5 C 2148,662.501 2193.66,662.168 2239.5,662.5C 2239.17,682.674 2239.5,702.674 2240.5,722.5C 2240.44,723.043 2240.11,723.376 2239.5,723.5C 2238.5,703.511 2238.17,683.511 2238.5,663.5C 2193.17,663.5 2147.83,663.5 2102.5,663.5 Z"/></g>
<g><path style="opacity:0.961" fill="#fdfbfb" d="M 996.5,739.5 C 1013.01,737.86 1023.84,744.86 1029,760.5C 1030.77,767.075 1032.1,773.742 1033,780.5C 1033.67,798.167 1033.67,815.833 1033,833.5C 1032.59,845.054 1029.93,856.054 1025,866.5C 1016.75,877.611 1005.92,881.111 992.5,877C 982.775,871.258 976.942,862.758 975,851.5C 974.333,847.5 973.667,843.5 973,839.5C 972.088,816.471 972.421,793.471 974,770.5C 975.731,760.204 980.231,751.371 987.5,744C 990.592,742.454 993.592,740.954 996.5,739.5 Z M 997.5,752.5 C 995.563,753.931 993.73,755.598 992,757.5C 988.79,763.798 986.79,770.465 986,777.5C 983.506,802.273 984.173,826.94 988,851.5C 991.005,864.246 998.505,868.413 1010.5,864C 1014.18,859.811 1016.68,854.977 1018,849.5C 1022.21,824.224 1022.54,798.891 1019,773.5C 1018.13,768.232 1016.47,763.232 1014,758.5C 1009.92,753.043 1004.42,751.043 997.5,752.5 Z"/></g>
<g><path style="opacity:0.961" fill="#fbfbfc" d="M 1921.5,739.5 C 1937.28,737.966 1947.78,744.633 1953,759.5C 1954.97,765.013 1956.3,770.679 1957,776.5C 1957.67,797.5 1957.67,818.5 1957,839.5C 1956,849.847 1953,859.513 1948,868.5C 1937.3,879.59 1925.14,881.423 1911.5,874C 1904.57,867.308 1900.4,859.141 1899,849.5C 1897.97,844.215 1897.31,838.882 1897,833.5C 1896.33,815.833 1896.33,798.167 1897,780.5C 1897.44,767.834 1901.44,756.501 1909,746.5C 1912.74,743.219 1916.91,740.885 1921.5,739.5 Z M 1922.5,752.5 C 1916.81,756.179 1913.31,761.512 1912,768.5C 1907.33,795.5 1907.33,822.5 1912,849.5C 1913.11,853.729 1914.78,857.729 1917,861.5C 1924.27,868.2 1931.27,867.867 1938,860.5C 1942.49,851.036 1944.83,841.036 1945,830.5C 1945.67,816.167 1945.67,801.833 1945,787.5C 1944.8,776.97 1942.47,766.97 1938,757.5C 1933.87,752.952 1928.7,751.285 1922.5,752.5 Z"/></g>
<g><path style="opacity:1" fill="#99a7c7" d="M 1700.5,747.5 C 1719.34,746.172 1738.34,746.172 1757.5,747.5C 1757.38,748.107 1757.04,748.44 1756.5,748.5C 1738.01,747.503 1719.34,747.17 1700.5,747.5 Z"/></g>
<g><path style="opacity:1" fill="#aeb8d2" d="M 1509.5,746.5 C 1526.17,746.5 1542.83,746.5 1559.5,746.5C 1559.5,783.833 1559.5,821.167 1559.5,858.5C 1558.5,821.67 1558.17,784.67 1558.5,747.5C 1541.99,747.83 1525.66,747.496 1509.5,746.5 Z"/></g>
<g><path style="opacity:0.969" fill="#fcfcfd" d="M 1700.5,747.5 C 1719.34,747.17 1738.01,747.503 1756.5,748.5C 1742.57,787.185 1741.91,826.185 1754.5,865.5C 1744.34,868.237 1734.01,869.07 1723.5,868C 1709.68,863.542 1702.18,854.042 1701,839.5C 1700.5,808.835 1700.33,778.168 1700.5,747.5 Z M 1712.5,759.5 C 1712.06,787.2 1712.56,814.866 1714,842.5C 1714.72,844.949 1715.72,847.283 1717,849.5C 1723.22,855.12 1730.39,857.12 1738.5,855.5C 1730.24,823.731 1730.58,792.064 1739.5,760.5C 1730.52,759.502 1721.52,759.168 1712.5,759.5 Z"/></g>
<g><path style="opacity:1" fill="#e42b27" d="M 2359.5,792.5 C 2408.55,787.887 2448.05,804.887 2478,843.5C 2495.63,866.968 2496.96,891.302 2482,916.5C 2468.85,930.66 2452.69,939.493 2433.5,943C 2408.74,948.986 2385.4,945.653 2363.5,933C 2374.65,933.296 2384.98,930.629 2394.5,925C 2407.84,911.262 2409.01,896.428 2398,880.5C 2389.19,868.355 2377.36,863.855 2362.5,867C 2344.78,874.281 2336.61,887.448 2338,906.5C 2344.04,931.518 2357.54,951.352 2378.5,966C 2394.36,975.104 2411.36,978.438 2429.5,976C 2450.48,973.253 2469.98,966.419 2488,955.5C 2479.44,990.029 2458.61,1014.2 2425.5,1028C 2370.63,1047.61 2323.47,1036.11 2284,993.5C 2253.82,953.934 2247.82,910.934 2266,864.5C 2285.28,824.956 2316.45,800.956 2359.5,792.5 Z M 2366.5,878.5 C 2354,884.167 2348.83,893.834 2351,907.5C 2352.08,911.559 2353.24,915.559 2354.5,919.5C 2358.33,919.777 2362.17,920.11 2366,920.5C 2376.9,921.045 2385.57,917.045 2392,908.5C 2393.64,896.267 2389.14,886.767 2378.5,880C 2374.6,878.734 2370.6,878.234 2366.5,878.5 Z"/></g>
<g><path style="opacity:1" fill="#fbe1e1" d="M 395.5,842.5 C 366.005,843.498 336.338,843.831 306.5,843.5C 306.832,883.337 306.499,923.004 305.5,962.5C 305.5,922.5 305.5,882.5 305.5,842.5C 335.5,842.5 365.5,842.5 395.5,842.5 Z"/></g>
<g><path style="opacity:1" fill="#e3e6ee" d="M 2102.5,962.5 C 2101.83,929.167 2101.17,895.833 2100.5,862.5C 2100.71,861.078 2101.21,859.745 2102,858.5C 2102.5,893.165 2102.67,927.832 2102.5,962.5 Z"/></g>
<g><path style="opacity:1" fill="#f08988" d="M 555.5,961.5 C 555.5,961.833 555.5,962.167 555.5,962.5C 554.833,891.833 554.167,821.167 553.5,750.5C 553.987,749.527 554.487,748.527 555,747.5C 555.5,818.833 555.667,890.166 555.5,961.5 Z"/></g>
<g><path style="opacity:1" fill="#7e8fb8" d="M 1765.5,887.5 C 1764.83,907.5 1764.17,927.5 1763.5,947.5C 1763.33,926.831 1763.5,906.164 1764,885.5C 1764.72,886.044 1765.22,886.711 1765.5,887.5 Z"/></g>
<g><path style="opacity:1" fill="#e63c39" d="M 688.5,958.5 C 689.434,959.568 689.768,960.901 689.5,962.5C 644.833,962.5 600.167,962.5 555.5,962.5C 555.5,962.167 555.5,961.833 555.5,961.5C 599.833,961.5 644.167,961.5 688.5,961.5C 688.5,960.5 688.5,959.5 688.5,958.5 Z"/></g>
</svg>
