<svg xmlns="http://www.w3.org/2000/svg" fill="none" viewBox="0 0 143 31"><path fill="#FF7F24" fill-rule="evenodd" d="M125 24.1c22 .6 22.8-25 4.3-24-10.4 4-13.6 18.2-4.3 24zM129 7c2.7.2 3.7 2 3.3 5.3-.3 3.2-2.5 5.1-5.1 5-2.7-.2-4.5-1.9-3.8-5.6.6-3.6 2.8-5 5.6-4.7zM11.1 19.7l1.8-10.6h7.6c1.2 0 2.4-.9 2.6-2L24.2.9H7.4C4.7.9 3.7 2.6 3.3 4.6L0 23.7h7.2c2.5 0 3.4-1.7 3.9-4zm10.7 4l3.7-21.6c.2-.8.6-1.3 1.4-1.3h8.7L33.9 11 42 3c1.4-1.5 3-2.2 4.8-2.2h7l-3.3 19.9c-.4 2.2-.3 3-2.5 3h-8l1.7-10-8 7.9a5.6 5.6 0 01-4.3 2.1h-7.7zm30.7.1l3.1-18.7c.5-2.7 1.3-4.2 5-4.2h22.8L79.8 22c-.2 1.2-.8 1.8-2.4 1.8H69l2.5-14.6h-6.3l-2.5 14.6H52.5zm29.4 0L85 5.1c.5-2.7 1.3-4.2 5-4.2h22.8L109.2 22c-.2 1.2-.8 1.8-2.4 1.8h-8.3L101 9.2h-6.3l-2.5 14.6H82z" clip-rule="evenodd"/><path fill="#B5BD00" fill-rule="evenodd" d="M128.1 0C110.6 0 106 21.5 124 24c-9.6-7-6.5-19.4 4.2-24z" clip-rule="evenodd"/><path fill="#939598" d="M81.2 30.7h-.7l1.8-4h1l.6 4h-.8l-.5-3.3-1.4 3.3zm5.1-1.8h-.8l-.3 1.8h-.7l.7-4h.7l-.3 1.6h.8c0-.5.3-.9.6-1.2.3-.3.7-.5 1.2-.5s.9.2 1.1.5c.3.4.4.8.4 1.3 0 .7-.2 1.2-.5 1.7-.4.5-.8.7-1.4.7-.3 0-.5 0-.7-.2-.3-.1-.5-.3-.6-.6a2 2 0 01-.2-1zm.7.2c0 .4.1.7.3.9l.5.2c.4 0 .7-.2.9-.6.2-.4.3-.9.3-1.3 0-.7-.3-1-.9-1-.4 0-.6.2-.8.6L87 29zm3.3 1.6l.7-4h2.5v.6h-1.9l-.2 1h.6l.9.1c.2 0 .3.2.4.4l.2.6c0 .4-.1.7-.4 1-.2.2-.6.3-1.2.3h-1.6zm.8-.6h.9c.2 0 .4 0 .6-.2l.2-.5c0-.1 0-.2-.2-.3l-.6-.2h-.7l-.2 1.2zm3.3.6h-.7l1.8-4h1l.6 4h-.8l-.5-3.3-1.4 3.3zm5-1.8h-.7l-.3 1.8h-.7l.7-4h.7l-.3 1.6h.8c0-.5.3-.9.6-1.2.3-.3.7-.5 1.2-.5s.8.2 1.1.5c.3.4.4.8.4 1.3 0 .7-.2 1.2-.5 1.7-.4.5-.8.7-1.4.7a1.4 1.4 0 01-1.3-.8 2 2 0 01-.2-1zm.8.2c0 .4 0 .7.3.9l.5.2c.4 0 .7-.2.9-.6l.2-1.3c0-.7-.2-1-.8-1-.4 0-.6.2-.8.6l-.3 1.2zm7.1 1.3v.3h-.7l.6-4h.8l-.4 2.2-.1.6.6-.8 1.5-1.6v-.4h.7l-.6 4h-.8l.4-2 .1-.7-.6.8-1.5 1.6zm6.6.3l.6-4h2.1l.4.4.2.6c0 .5-.2.8-.7 1 .4.2.6.5.6.9 0 .3-.1.5-.3.8-.2.2-.6.3-1.1.3h-1.8zm1-2.3h.8c.3 0 .5 0 .6-.2l.2-.4c0-.4-.2-.5-.7-.5h-.6l-.2 1zm-.2 1.7h1.3l.2-.2.1-.4v-.3l-.3-.2h-1.1l-.2 1.1zm6.3-.5c-.3.8-.9 1.2-1.6 1.2-.4 0-.8-.1-1-.4-.3-.3-.5-.8-.5-1.3 0-.7.2-1.3.5-1.8.4-.5.9-.7 1.4-.7.4 0 .8.1 1 .4.3.2.4.6.5 1l-.7.1c0-.6-.3-.9-.8-.9-.4 0-.7.2-.9.7l-.2 1.3c0 .4 0 .6.2.8l.6.2c.2 0 .4 0 .5-.2l.4-.6.6.2zm3.3 1.1h-2.7l.7-4h2.6l-.1.6h-1.9l-.1 1h1.5l-.1.7h-1.5l-.2 1.1h1.9l-.1.6zm-1.1-4.4l-.2-.1-.1-.2v-.3h.5l.1.3v.2h-.3zm1 0a.3.3 0 01-.3-.3.3.3 0 01.3-.4l.2.1.1.3v.2h-.3zm7 1H130l-.6 3.4h-.7l.6-3.4h-1v-.6h2.8v.6zm1.4 2.3l-1-2.9h.8l.7 2 1.1-2h.7l-1.7 3-.6.8c-.2.2-.5.2-.8.2h-.3l.1-.6h.7l.2-.4.1-.1zm5.4-2.3h-1l-.5 3.4h-.8l.6-3.4h-1v-.6h2.9l-.2.6zm.8 2.3h-.3v-2.9h1l-.7 3zm0 1.1h-.7l.1-.7h.8l-.2.7z"/></svg> 
