<svg width="180" height="180" viewBox="0 0 88 88" fill="#ff5a1f" xmlns="http://www.w3.org/2000/svg"><path fill-rule="evenodd" clip-rule="evenodd" d="M63.4962 54.4619L60.7773 61.8094L65.2345 66.8508L79.3871 42.2848L63.4962 54.4619ZM85.5058 37.1908L81.1455 39.9835L83.5263 35.2953L83.6419 35.2213L88 32.4299L85.6187 37.1182L85.5058 37.1908ZM66.6271 33.2319L62.7064 36.911L63.4008 31.7349L63.527 31.6156L67.4462 27.9389L66.7512 33.1157L66.6271 33.2319ZM43.9751 0L45.855 5.10438L43.9751 10.2081L42.0947 5.10438L43.9751 0ZM21.3729 33.2319L25.294 36.911L24.5993 31.7349L24.4729 31.6156L20.5541 27.9389L21.249 33.1157L21.3729 33.2319ZM2.49449 37.1908L6.85451 39.9835L4.47369 35.2953L4.35795 35.2213L0 32.4299L2.3813 37.1182L2.49449 37.1908ZM43.9751 13.1192L36.7975 46.8338L43.9212 70.9693L51.1528 46.8338L43.9751 13.1192ZM41.801 71.5467L28.045 63.1739L23.9993 67.7277L41.801 71.5467ZM46.1404 71.5599L64.0009 67.7282L59.955 63.1734L46.1404 71.5599ZM25.8933 53.7224L28.8459 61.8444L42.0443 69.9165L35.2692 47.2272L25.9296 38.5735L25.8933 53.7224ZM24.5039 54.4619L8.61265 42.2848L22.7655 66.8508L27.2232 61.8094L24.5039 54.4619ZM62.1068 53.7224L62.0702 38.5735L52.7311 47.2272L45.9559 69.9165L59.1546 61.8444L62.1068 53.7224ZM84.366 87.3766H77.3186V85.8848L77.8736 85.8795L77.9653 85.8763L78.0523 85.8716L78.135 85.8641L78.2134 85.8551L78.2882 85.8445L78.3582 85.8323L78.4239 85.8186L78.4865 85.8037L78.5437 85.7868L78.5962 85.7693L78.645 85.7502L78.6906 85.7306L78.7308 85.7104L78.7674 85.6892L78.8003 85.668L78.83 85.6463L78.857 85.6245L78.8803 85.6028L78.901 85.5795L78.9206 85.5567L78.9376 85.5323L78.953 85.5068L78.9668 85.4803L78.98 85.4512L78.9917 85.4199L79.0012 85.387L79.0107 85.3505L79.0176 85.3102L79.0224 85.2667L79.0261 85.2206L79.0282 85.1511L79.0298 85.123V85.1082L79.0293 85.0886L79.0277 85.0653L79.0256 85.0372L79.0219 85.0059L79.0166 84.973L79.0107 84.9348L79.0033 84.8946L78.9943 84.8511L78.9848 84.8055L78.9731 84.7562L78.9609 84.7042L78.9466 84.6507L78.9312 84.5935L78.9148 84.5357L78.1657 82.033H74.4448L73.8278 84.357L73.8198 84.3878L73.8124 84.418L73.806 84.4493L73.7997 84.48L73.7944 84.5113L73.7896 84.5426L73.7848 84.5744L73.7806 84.6056L73.7763 84.638L73.7732 84.6703L73.771 84.7032L73.7689 84.7361L73.7668 84.7689L73.7657 84.8023L73.7652 84.8357L73.7647 84.868L73.7657 84.9454L73.7694 85.0165L73.7758 85.0843L73.7832 85.1485L73.7933 85.2084L73.805 85.2646L73.8187 85.3165L73.8341 85.3653L73.8506 85.4098L73.8691 85.4522L73.8877 85.4909L73.9083 85.5259L73.9295 85.5588L73.9518 85.589L73.9757 85.6176L74.0011 85.6441L74.0287 85.6696L74.0578 85.6929L74.0891 85.7157L74.123 85.7369L74.1596 85.7571L74.1994 85.7767L74.2434 85.7947L74.29 85.8111L74.3404 85.826L74.3945 85.8398L74.4528 85.852L74.5153 85.8615L74.5811 85.8694L74.651 85.8758L74.7247 85.8795L75.2628 85.8875V87.3766H70.5007V85.8965L71.0038 85.879L71.0425 85.8742L71.0807 85.8673L71.1173 85.8573L71.1522 85.8445L71.1878 85.8286L71.2233 85.809L71.2599 85.7857L71.2975 85.7571L71.3357 85.7247L71.3744 85.6866L71.4147 85.642L71.4555 85.5922L71.4963 85.536L71.5371 85.4734L71.5806 85.4014L71.5917 85.3817L71.6039 85.3589L71.6166 85.3351L71.6293 85.3086L71.6431 85.2805L71.6574 85.2519L71.6712 85.2211L71.6861 85.1877L71.7009 85.1543L71.7158 85.1188L71.7306 85.0817L71.7465 85.043L71.7619 85.0032L71.7778 84.9624L71.7937 84.9195L71.8101 84.8749L71.8271 84.8294L71.8435 84.7822L71.86 84.7339L71.8774 84.6846L71.8944 84.6332L71.9119 84.5807L71.9294 84.5272L71.9474 84.4715L71.9644 84.4143L71.9824 84.357L72.0004 84.2976L72.0185 84.2372L72.037 84.1752L72.055 84.1121L72.0741 84.0474L72.0932 83.979L76.7418 67.8856H78.0284L82.8875 84.5744L82.9193 84.6799L82.9511 84.7811L82.9824 84.876L83.0132 84.9672L83.0434 85.0525L83.0731 85.1336L83.1022 85.2084L83.1303 85.2784L83.1579 85.3425L83.1844 85.4008L83.2093 85.4544L83.2342 85.5005L83.256 85.5413L83.2766 85.5747L83.2946 85.6028L83.3116 85.6256L83.3392 85.66L83.3646 85.6881L83.3906 85.7141L83.4176 85.738L83.4457 85.7592L83.4754 85.7788L83.5062 85.7963L83.539 85.8122L83.5746 85.827L83.6117 85.8403L83.653 85.8514L83.6965 85.8615L83.7437 85.8694L83.794 85.8753L83.8481 85.879L84.366 85.8901V87.3766ZM77.5815 80.0461L76.26 75.5056L75.0046 80.0461H77.5815ZM69.713 87.3766H62.9147V86.0778L63.4491 86.0682L63.518 86.0651L63.5842 86.0587L63.6468 86.0502L63.7056 86.0396L63.7602 86.0274L63.8117 86.0126L63.8604 85.9972L63.906 85.9792L63.9479 85.9601L63.9871 85.9394L64.0237 85.9172L64.0587 85.8933L64.091 85.8679L64.1223 85.8408L64.1525 85.8111L64.1827 85.7772L64.2114 85.7428L64.2374 85.7072L64.2623 85.6707L64.284 85.6325L64.3041 85.5938L64.3227 85.553L64.3397 85.51L64.3545 85.4655L64.3683 85.4194L64.3794 85.3711L64.389 85.3197L64.3969 85.2662L64.4027 85.2105L64.4054 85.1522L64.407 85.087V81.4307H60.9612V85.0859L60.9633 85.1485L60.9665 85.2036L60.9718 85.2566L60.9798 85.307L60.9893 85.3558L61.0015 85.4024L61.0142 85.448L61.0307 85.4909L61.0481 85.5328L61.0672 85.5736L61.089 85.6129L61.1118 85.651L61.1377 85.6892L61.1664 85.7263L61.1976 85.7624L61.23 85.7973L61.2639 85.8307L61.2978 85.8604L61.3334 85.888L61.3699 85.9134L61.4092 85.9368L61.4494 85.9585L61.4913 85.9787L61.5359 85.9967L61.583 86.0126L61.6329 86.028L61.6854 86.0396L61.7405 86.0508L61.7993 86.0587L61.8608 86.0651L61.925 86.0682L62.4535 86.0788V87.3766H55.6558V86.0788L56.1843 86.0682L56.2484 86.0651L56.3099 86.0587L56.3682 86.0508L56.4244 86.0396L56.4764 86.028L56.5257 86.0126L56.5729 85.9967L56.6179 85.9787L56.6603 85.9585L56.7001 85.9368L56.7388 85.9134L56.7754 85.888L56.8109 85.8604L56.8454 85.8313L56.8787 85.7973L56.9121 85.7624L56.9424 85.7263L56.971 85.6892L56.9964 85.651L57.0203 85.6129L57.042 85.5736L57.0611 85.5328L57.0786 85.4909L57.0945 85.4475L57.1078 85.4024L57.1194 85.3558L57.1295 85.3075L57.1369 85.2566L57.1427 85.2036L57.1465 85.1485L57.1475 85.0859V76.3034L57.1465 76.2419L57.1433 76.1868L57.1385 76.1343L57.1316 76.084L57.1226 76.0368L57.1125 75.9906L57.1003 75.9472L57.0871 75.9048L57.0717 75.8655L57.0553 75.8274L57.0373 75.7903L57.0176 75.7553L56.9964 75.7214L56.9726 75.688L56.9477 75.6556L56.9222 75.6259L56.8899 75.5925L56.856 75.5618L56.8204 75.5326L56.7833 75.5056L56.7441 75.4812L56.7027 75.4584L56.6582 75.4367L56.6116 75.4176L56.5617 75.4001L56.5087 75.3847L56.452 75.3709L56.3921 75.3598L56.329 75.3508L56.2617 75.3439L56.1907 75.3402L55.6558 75.3291V74.0313H62.4535V75.3291L61.9255 75.3397L61.8614 75.3434L61.8004 75.3492L61.7426 75.3582L61.6875 75.3693L61.6355 75.3815L61.5857 75.3964L61.5396 75.4123L61.495 75.4308L61.4526 75.451L61.4129 75.4733L61.3747 75.4976L61.3376 75.5236L61.3021 75.5517L61.2676 75.5825L61.2332 75.6164L61.1998 75.653L61.1674 75.6917L61.1383 75.7304L61.1118 75.7691L61.0879 75.8078L61.0656 75.847L61.046 75.8878L61.0291 75.9281L61.0132 75.97L61.0004 76.0119L60.9888 76.0574L60.9787 76.102L60.9713 76.1486L60.966 76.1969L60.9633 76.2472L60.9612 76.304V79.613H64.407V76.304L64.4054 76.2435L64.4027 76.1894L64.3969 76.1386L64.3895 76.0893L64.3805 76.0415L64.3688 75.9954L64.3561 75.9514L64.3407 75.9085L64.3243 75.8671L64.3057 75.8268L64.2851 75.7881L64.2628 75.7495L64.2374 75.7118L64.2103 75.6742L64.1812 75.6381L64.1494 75.6031L64.1186 75.5724L64.0879 75.5438L64.0545 75.5183L64.02 75.4939L63.9834 75.4711L63.9447 75.4499L63.9023 75.4303L63.8573 75.4123L63.8095 75.3964L63.7581 75.3815L63.7035 75.3693L63.6452 75.3582L63.5832 75.3497L63.5174 75.3434L63.4485 75.3397L62.9147 75.3301V74.0313H69.713V75.3301L69.1791 75.3397L69.1102 75.3434L69.045 75.3497L68.9825 75.3582L68.9247 75.3693L68.8695 75.3815L68.8181 75.3964L68.7704 75.4123L68.7259 75.4303L68.6835 75.4499L68.6442 75.4711L68.6077 75.4939L68.5732 75.5183L68.5403 75.5438L68.5085 75.5724L68.4778 75.6031L68.447 75.6381L68.4179 75.6742L68.3903 75.7118L68.3654 75.7495L68.3431 75.7881L68.3219 75.8268L68.3034 75.8671L68.2864 75.9085L68.2721 75.9509L68.2588 75.9954L68.2472 76.0415L68.2382 76.0893L68.2307 76.1386L68.2249 76.19L68.2223 76.244L68.2207 76.304V85.0859L68.2223 85.1485L68.2254 85.2052L68.2307 85.2582L68.2387 85.3091L68.2482 85.3584L68.2599 85.4051L68.2737 85.4506L68.2885 85.4947L68.306 85.536L68.3251 85.5773L68.3463 85.6166L68.3691 85.6553L68.3946 85.6929L68.4216 85.73L68.4523 85.7661L68.4841 85.8016L68.5165 85.8334L68.5488 85.862L68.5827 85.8891L68.6188 85.914L68.657 85.9373L68.6962 85.9585L68.7386 85.9781L68.7831 85.9961L68.8308 86.012L68.8812 86.0274L68.9342 86.0396L68.9909 86.0497L69.0519 86.0587L69.1145 86.0651L69.1823 86.0682L69.713 86.0783V87.3766ZM55.9293 81.0814L55.9272 81.251L55.9224 81.4186L55.9139 81.5855L55.9023 81.7515L55.8869 81.9147L55.8689 82.078L55.8466 82.2397L55.8217 82.4003L55.7931 82.5594L55.7607 82.7174L55.7252 82.8732L55.686 83.0291L55.6441 83.1823L55.598 83.3339L55.5487 83.485L55.4962 83.6345L55.44 83.7824L55.3806 83.9287L55.3175 84.0739L55.2518 84.2176L55.1824 84.3591L55.1092 84.5001L55.0323 84.638L54.9534 84.7758L54.8707 84.912L54.7837 85.0462L54.6941 85.1787L54.6008 85.3096L54.5049 85.4385L54.4052 85.5667L54.3024 85.6929L54.1947 85.8186L54.0744 85.9527L53.9514 86.0815L53.8268 86.2071L53.6991 86.328L53.5687 86.4446L53.4361 86.5581L53.301 86.6667L53.1637 86.7712L53.0242 86.8714L52.8824 86.9679L52.7382 87.0596L52.5912 87.1476L52.4424 87.2313L52.2906 87.3103L52.1371 87.3851L51.9813 87.4556L51.8241 87.5224L51.6637 87.5844L51.5009 87.6422L51.3368 87.6952L51.1706 87.7439L51.0023 87.7885L50.8312 87.8293L50.6591 87.8659L50.4843 87.8966L50.3083 87.9242L50.1298 87.9475L49.9495 87.9666L49.7673 87.9814L49.5833 87.9915L49.3974 87.9979L49.2095 88L49.0199 87.9979L48.8322 87.9915L48.6462 87.9814L48.4624 87.9671L48.2808 87.948L48.1004 87.9253L47.9229 87.8977L47.7474 87.8664L47.5735 87.8309L47.4018 87.7911L47.2321 87.7466L47.0647 87.6984L46.8995 87.6453L46.7365 87.5881L46.5756 87.5271L46.4166 87.4614L46.261 87.3914L46.1064 87.3172L45.955 87.2387L45.8057 87.1561L45.659 87.0686L45.514 86.9774L45.3721 86.882L45.2325 86.7823L45.0955 86.6784L44.9608 86.5703L44.8286 86.4584L44.6994 86.3423L44.5721 86.2225L44.4481 86.0979L44.3261 85.9696L44.2084 85.8392L44.1022 85.7184L43.9978 85.5938L43.8969 85.4681L43.7992 85.3399L43.7052 85.21L43.6138 85.078L43.526 84.9449L43.442 84.8097L43.3619 84.6735L43.2841 84.5346L43.2101 84.3941L43.1392 84.252L43.0728 84.1084L43.0089 83.9631L42.9485 83.8158L42.8918 83.6673L42.8385 83.5173L42.7885 83.3652L42.7425 83.212L42.6992 83.0572L42.6598 82.9002L42.6242 82.7423L42.5918 82.5832L42.5621 82.4221L42.5371 82.2593L42.5151 82.095L42.4968 81.9301L42.4809 81.7631L42.4693 81.5951L42.4607 81.4255L42.4554 81.2537L42.4543 81.0814L42.4557 80.9001L42.4612 80.7199L42.4704 80.5417L42.4827 80.3647L42.4992 80.1892L42.5197 80.0159L42.5436 79.8446L42.571 79.6745L42.6024 79.5059L42.6379 79.3389L42.676 79.1746L42.7186 79.0107L42.7647 78.8496L42.8144 78.69L42.8684 78.5326L42.9256 78.3762L42.9869 78.2219L43.0517 78.0703L43.1203 77.9198L43.1925 77.7708L43.2689 77.625L43.3485 77.4803L43.432 77.3382L43.5193 77.1972L43.6098 77.0588L43.7045 76.9221L43.8026 76.788L43.9045 76.656L44.0096 76.5255L44.1189 76.3973L44.2309 76.2711L44.3473 76.1465L44.4666 76.0256L44.5876 75.908L44.7117 75.794L44.8376 75.6832L44.9654 75.5766L45.0958 75.4738L45.2284 75.3752L45.3624 75.2798L45.4992 75.1886L45.6385 75.1011L45.78 75.0173L45.9229 74.9378L46.068 74.862L46.2152 74.7899L46.3648 74.7221L46.5162 74.6574L46.6694 74.5975L46.8245 74.5408L46.9817 74.4888L47.1414 74.4406L47.3023 74.3955L47.4648 74.3552L47.6296 74.3186L47.7962 74.2858L47.9643 74.2566L48.1345 74.2317L48.3062 74.211L48.48 74.193L48.6553 74.1803L48.8324 74.1707L49.0109 74.1644L49.1909 74.1628L49.3699 74.1644L49.5465 74.1707L49.7217 74.1803L49.8954 74.193L50.0671 74.211L50.2375 74.2317L50.406 74.2572L50.5732 74.2858L50.7382 74.3186L50.9016 74.3558L51.0632 74.3955L51.2232 74.4406L51.3813 74.4888L51.5378 74.5413L51.6922 74.5975L51.8447 74.6574L51.9957 74.7221L52.1445 74.7899L52.2917 74.862L52.4364 74.9378L52.5792 75.0173L52.7197 75.1011L52.8593 75.1886L52.9957 75.2798L53.1308 75.3747L53.2633 75.4733L53.3943 75.5761L53.5231 75.6827L53.6493 75.7929L53.7738 75.9064L53.8952 76.024L54.0161 76.1454L54.1333 76.2695L54.2467 76.3951L54.357 76.5234L54.4635 76.6538L54.5658 76.7864L54.6655 76.9205L54.7609 77.0567L54.8526 77.1951L54.9406 77.3361L55.0244 77.4787L55.105 77.6234L55.1824 77.7692L55.255 77.9176L55.3244 78.0682L55.3907 78.2209L55.4522 78.3746L55.5105 78.5305L55.5646 78.689L55.6149 78.848L55.6616 79.0097L55.7045 79.173L55.7438 79.3378L55.7793 79.5048L55.8106 79.6734L55.8387 79.8436L55.8625 80.0159L55.8832 80.1892L55.8996 80.3636L55.9129 80.5412L55.9219 80.7199L55.9272 80.9001L55.9293 81.0814ZM51.9512 81.118L51.9505 80.9658L51.9486 80.8153L51.9452 80.6668L51.941 80.5195L51.9352 80.3753L51.9281 80.2321L51.9202 80.0917L51.91 79.9528L51.8996 79.816L51.8873 79.6808L51.8744 79.5483L51.8595 79.4174L51.8442 79.288L51.8271 79.1613L51.8084 79.0362L51.7894 78.9132L51.7681 78.7923L51.7463 78.6736L51.7234 78.5559L51.6991 78.4414L51.6732 78.328L51.6468 78.2166L51.6186 78.1079L51.5894 78.0009L51.5597 77.8954L51.5276 77.7925L51.4954 77.6907L51.4618 77.5916L51.4266 77.4951L51.3908 77.3992L51.3535 77.3059L51.3162 77.2158L51.2674 77.1076L51.2174 77.0027L51.1664 76.9019L51.1137 76.8054L51.0604 76.7132L51.0058 76.6247L50.95 76.5399L50.8926 76.4593L50.8347 76.3829L50.7764 76.3103L50.716 76.2414L50.6551 76.1757L50.5933 76.1142L50.5306 76.0574L50.4667 76.0023L50.4023 75.9514L50.3361 75.9042L50.2692 75.8597L50.2011 75.8184L50.1322 75.7807L50.0618 75.7463L49.9898 75.7145L49.9164 75.6853L49.8414 75.6593L49.7646 75.6371L49.6859 75.6169L49.6058 75.5994L49.5236 75.5856L49.4389 75.575L49.3525 75.5671L49.2639 75.5623L49.1731 75.5602L49.0872 75.5623L49.003 75.5666L48.9204 75.5745L48.84 75.584L48.7609 75.5973L48.6847 75.6137L48.6092 75.6328L48.5361 75.654L48.4641 75.6789L48.3937 75.706L48.324 75.7367L48.2564 75.7691L48.1898 75.8056L48.124 75.8443L48.0595 75.8857L47.9953 75.9313L47.9331 75.979L47.8715 76.0309L47.8103 76.0861L47.7502 76.1449L47.6907 76.2064L47.6321 76.2721L47.5742 76.3411L47.5178 76.4137L47.462 76.49L47.4073 76.5701L47.3534 76.6549L47.3006 76.7424L47.2488 76.8335L47.1985 76.93L47.1485 77.0292L47.0999 77.1325L47.0603 77.2226L47.0213 77.3159L46.9835 77.4114L46.9472 77.5084L46.9115 77.6075L46.8773 77.7098L46.8439 77.8137L46.8127 77.9198L46.7819 78.0284L46.7522 78.1382L46.7245 78.2516L46.6978 78.3661L46.6724 78.4833L46.6478 78.6026L46.6243 78.724L46.6025 78.8469L46.5821 78.9726L46.5631 79.1003L46.5448 79.2307L46.5286 79.3633L46.5131 79.4974L46.4986 79.6347L46.487 79.7731L46.4744 79.9141L46.465 80.0567L46.4564 80.2019L46.4485 80.3498L46.4423 80.4988L46.4381 80.6509L46.4344 80.8047L46.4326 80.9605L46.4314 81.118L46.4326 81.2722L46.4346 81.4244L46.4383 81.5749L46.443 81.7239L46.4493 81.8697L46.4573 82.0144L46.4661 82.157L46.4773 82.2975L46.4888 82.4353L46.502 82.5716L46.5171 82.7062L46.5333 82.8382L46.5504 82.9692L46.5696 83.0975L46.5893 83.2236L46.6115 83.3482L46.6337 83.4701L46.6583 83.5905L46.6837 83.7087L46.7104 83.8248L46.7388 83.9388L46.7682 84.0511L46.799 84.1609L46.831 84.269L46.8643 84.375L46.8992 84.4795L46.9353 84.5813L46.9724 84.6814L47.0108 84.7795L47.0506 84.8755L47.0918 84.9698L47.134 85.0626L47.1831 85.1655L47.2326 85.263L47.2835 85.3558L47.3351 85.4459L47.3872 85.5318L47.4409 85.6145L47.4951 85.6929L47.5504 85.7682L47.6064 85.8392L47.6638 85.9071L47.7212 85.9707L47.7798 86.0317L47.8393 86.0889L47.8993 86.1425L47.9602 86.1934L48.0217 86.2405L48.0845 86.2845L48.1484 86.3259L48.2129 86.3641L48.2782 86.3985L48.3444 86.4308L48.4125 86.4605L48.481 86.487L48.5514 86.5114L48.6236 86.5321L48.6967 86.5507L48.7712 86.566L48.8486 86.5793L48.9268 86.5894L49.0069 86.5962L49.0891 86.6015L49.1731 86.6021L49.2616 86.6005L49.3474 86.5962L49.4315 86.5883L49.5134 86.5772L49.5935 86.5628L49.6718 86.5464L49.7484 86.5263L49.8234 86.5029L49.8972 86.4775L49.969 86.4483L50.0393 86.4165L50.1095 86.3815L50.1778 86.3434L50.2444 86.302L50.3109 86.2575L50.3762 86.2093L50.4412 86.1578L50.5044 86.1032L50.5671 86.0444L50.6294 85.9818L50.6905 85.9156L50.7507 85.8456L50.8095 85.7719L50.8685 85.694L50.9257 85.6129L50.9822 85.527L51.0378 85.4369L51.0924 85.343L51.1456 85.2455L51.1977 85.1432L51.2489 85.0372L51.2989 84.9264L51.3382 84.8347L51.3759 84.7408L51.413 84.6449L51.4486 84.5468L51.4836 84.4477L51.5172 84.3464L51.5496 84.2441L51.5804 84.1391L51.6102 84.0331L51.6391 83.925L51.6664 83.8152L51.6931 83.7044L51.7176 83.5915L51.7417 83.4765L51.7637 83.3599L51.7852 83.2416L51.8051 83.1213L51.8241 82.9999L51.8412 82.8764L51.8574 82.7518L51.8725 82.6251L51.8859 82.4963L51.8984 82.3664L51.9093 82.2344L51.9193 82.1008L51.9274 81.9656L51.9347 81.8283L51.941 81.6894L51.9452 81.5495L51.9486 81.4069L51.9505 81.2638L51.9512 81.118ZM42.0184 78.0104L42.017 78.1186L42.0133 78.2256L42.0063 78.3317L41.9971 78.4372L41.9843 78.5421L41.9691 78.645L41.9515 78.7473L41.9302 78.8485L41.9068 78.9493L41.8802 79.0479L41.851 79.147L41.819 79.244L41.7841 79.3389L41.7459 79.4343L41.7052 79.5276L41.6621 79.6188L41.6158 79.71L41.5667 79.799L41.5149 79.887L41.4607 79.9734L41.4033 80.0583L41.3431 80.1415L41.2804 80.2237L41.2153 80.3042L41.148 80.3827L41.0776 80.4601L41.0047 80.5359L40.9294 80.6107L40.8517 80.6828L40.7711 80.7543L40.689 80.8232L40.6056 80.8906L40.5271 80.9515L40.4452 81.0119L40.3623 81.0713L40.2788 81.127L40.1941 81.1816L40.1072 81.2346L40.0197 81.285L39.9317 81.3337L39.8422 81.3809L39.7517 81.4255L39.6593 81.4684L39.5665 81.5087L39.4727 81.5468L39.3771 81.584L39.2811 81.6184L39.1836 81.6513L39.0864 81.682L38.9871 81.7101L38.8866 81.7366L38.7862 81.761L38.6836 81.7833L38.5806 81.8045L38.4764 81.823L38.3716 81.8395L38.2664 81.8543L38.1597 81.867L38.0516 81.8771L37.9437 81.8861L37.8343 81.893L37.7239 81.8973L37.6127 81.9004L37.5023 81.901H36.0326V85.1925L36.0338 85.2487L36.0363 85.299L36.0407 85.3478L36.0463 85.3939L36.0532 85.439L36.0627 85.483L36.0729 85.5249L36.0842 85.5646L36.0977 85.6039L36.1122 85.6415L36.128 85.6786L36.1454 85.7136L36.1639 85.748L36.1845 85.7814L36.206 85.8154L36.2294 85.8467L36.2627 85.888L36.2946 85.9235L36.3289 85.9564L36.3641 85.9861L36.4027 86.0136L36.4435 86.0396L36.4872 86.0629L36.5345 86.0852L36.5858 86.1048L36.6405 86.1223L36.6998 86.1377L36.7634 86.1515L36.8319 86.1615L36.9049 86.17L36.9819 86.1743L37.5245 86.1843V87.4826H30.7267V86.1838L31.255 86.1748L31.3196 86.1711L31.3809 86.1653L31.4397 86.1568L31.4953 86.1462L31.5471 86.1334L31.5969 86.1191L31.6441 86.1032L31.6888 86.0847L31.7312 86.0645L31.7714 86.0433L31.8101 86.0189L31.8467 85.994L31.8821 85.9665L31.9163 85.9368L31.9501 85.9039L31.983 85.8684L32.014 85.8323L32.042 85.7947L32.0677 85.7571L32.0913 85.7189L32.1131 85.6791L32.1323 85.6394L32.1497 85.5975L32.1654 85.5535L32.1793 85.509L32.1909 85.4623L32.2008 85.413L32.2082 85.3626L32.2138 85.3096L32.2173 85.2545L32.2184 85.192V76.3559L32.2173 76.3018L32.2138 76.2546L32.209 76.2101L32.2013 76.1666L32.192 76.1253L32.1809 76.0845L32.168 76.0458L32.1529 76.0071L32.1358 75.9694L32.1163 75.9318L32.0948 75.8952L32.071 75.8587L32.0441 75.8226L32.0149 75.786L31.9828 75.75L31.9483 75.7145L31.9128 75.6821L31.8777 75.6524L31.8406 75.6243L31.8029 75.5989L31.7638 75.5756L31.7221 75.5544L31.6793 75.5342L31.6348 75.5162L31.5881 75.4998L31.5388 75.486L31.4867 75.4738L31.4325 75.4632L31.3756 75.4552L31.3152 75.4494L31.2527 75.4457L30.7267 75.4356V74.1379H37.4484L37.5491 74.1389L37.6514 74.1411L37.7528 74.1442L37.8535 74.149L37.9537 74.1564L38.053 74.1644L38.1512 74.1745L38.2493 74.1856L38.3468 74.1983L38.4431 74.2126L38.5387 74.2291L38.6336 74.2466L38.728 74.2651L38.8213 74.2853L38.9141 74.308L39.0061 74.3308L39.0975 74.3563L39.188 74.3828L39.2774 74.4114L39.366 74.4411L39.454 74.4729L39.541 74.5053L39.6276 74.5402L39.7128 74.5758L39.7977 74.6139L39.8815 74.6526L39.9641 74.6935L40.0466 74.7359L40.1276 74.7793L40.2082 74.8249L40.2873 74.871L40.3688 74.9219L40.4693 74.9893L40.5656 75.0571L40.6591 75.1271L40.75 75.1997L40.8376 75.2745L40.9228 75.3513L41.0049 75.4298L41.0836 75.5104L41.16 75.5936L41.2329 75.6789L41.3029 75.7664L41.3695 75.856L41.4334 75.9472L41.4941 76.0405L41.5517 76.1364L41.6054 76.2334L41.6556 76.3326L41.7029 76.4338L41.747 76.5367L41.7876 76.6406L41.8251 76.7466L41.8591 76.8542L41.8899 76.9634L41.9172 77.0742L41.9411 77.1861L41.9616 77.3L41.979 77.4151L41.9934 77.5312L42.0045 77.6494L42.0124 77.7687L42.017 77.889L42.0184 78.0104ZM38.2148 77.721L38.2109 77.6515L38.2054 77.5837L38.1991 77.5174L38.1919 77.4511L38.1838 77.387L38.1748 77.3239L38.1648 77.2619L38.1542 77.2014L38.1424 77.1421L38.1297 77.0848L38.1162 77.0276L38.1021 76.9714L38.0866 76.9173L38.0709 76.8638L38.0542 76.8123L38.0368 76.7615L38.0179 76.7121L37.9991 76.6634L37.9794 76.6162L37.9586 76.5701L37.9368 76.525L37.9146 76.481L37.8919 76.4386L37.868 76.3967L37.8438 76.3564L37.8185 76.3167L37.7923 76.278L37.7671 76.2425L37.7095 76.1666L37.6525 76.0993L37.5949 76.0373L37.5372 75.9816L37.4791 75.9318L37.4204 75.8873L37.3625 75.8465L37.3026 75.812L37.2423 75.7813L37.1812 75.7553L37.1183 75.733L37.0541 75.715L36.9877 75.7007L36.9188 75.6901L36.8472 75.6837L36.7678 75.6816L36.6979 75.6821L36.6266 75.6832L36.5588 75.6848L36.4956 75.688L36.4366 75.6917L36.3815 75.6948L36.3305 75.7001L36.2843 75.706L36.243 75.7107L36.206 75.7171L36.174 75.7235L36.1481 75.7293L36.128 75.7351L36.1134 75.7394L36.106 75.742L36.1 75.7463L36.0949 75.7489L36.0912 75.7521L36.0882 75.7553L36.0851 75.7585L36.0807 75.7643L36.0761 75.7722L36.0701 75.7828L36.0643 75.7966L36.0578 75.8157L36.0514 75.838L36.0453 75.8661L36.0407 75.8979L36.0363 75.935L36.0338 75.9769L36.0326 76.0272V80.3922L36.0729 80.3917L36.2215 80.3838L36.3634 80.3716L36.4991 80.3541L36.6287 80.3329L36.7511 80.3069L36.8676 80.2756L36.9787 80.2412L37.0831 80.2019L37.1815 80.1595L37.274 80.1129L37.362 80.0625L37.4435 80.0084L37.5208 79.9501L37.5933 79.8886L37.6618 79.8224L37.7264 79.7513L37.7868 79.6766L37.8435 79.5965L37.897 79.5107L37.9461 79.4205L37.9919 79.3241L38.034 79.2212L38.0722 79.1125L38.1065 78.9975L38.1366 78.8761L38.1623 78.7478L38.1838 78.6137L38.201 78.4732L38.2127 78.3248L38.2199 78.171L38.2227 78.0083L38.222 77.9362L38.2206 77.863L38.2183 77.7915L38.2148 77.721ZM30.9478 80.8921L30.9459 81.0618L30.9411 81.2298L30.9325 81.3968L30.9209 81.5617L30.9059 81.726L30.8876 81.8888L30.8654 82.051L30.8401 82.2111L30.8117 82.3696L30.7797 82.5276L30.7441 82.684L30.705 82.8388L30.6624 82.9925L30.617 83.1457L30.5677 83.2962L30.5149 83.4457L30.4591 83.5931L30.3999 83.7394L30.3367 83.8847L30.2705 84.0278L30.2012 84.1699L30.1276 84.3104L30.0515 84.4498L29.9718 84.5871L29.8887 84.7228L29.8026 84.8569L29.7126 84.9894L29.6197 85.1199L29.5235 85.2497L29.4239 85.3775L29.3209 85.5042L29.214 85.6293L29.0934 85.764L28.9704 85.8933L28.8457 86.0179L28.7177 86.1387L28.5875 86.2559L28.4552 86.3683L28.3204 86.4775L28.1827 86.5819L28.0436 86.6821L27.9015 86.7786L27.7567 86.8703L27.6102 86.9583L27.4611 87.0421L27.3095 87.1216L27.1561 87.1963L27.0009 87.2663L26.8429 87.3331L26.6824 87.3946L26.5207 87.4529L26.3558 87.5059L26.1891 87.5552L26.0209 87.5998L25.8507 87.6401L25.6778 87.6756L25.5035 87.7079L25.3269 87.7355L25.1489 87.7588L24.9683 87.7774L24.7863 87.7922L24.6023 87.8028L24.4164 87.8092L24.2287 87.8108L24.0389 87.8092L23.8507 87.8028L23.6648 87.7927L23.4815 87.7779L23.2993 87.7593L23.1194 87.736L22.9416 87.709L22.7659 87.6772L22.5926 87.6422L22.4203 87.6019L22.2511 87.5574L22.0838 87.5091L21.9185 87.4566L21.7552 87.3994L21.5944 87.3379L21.4358 87.2716L21.2793 87.2022L21.1256 87.1274L20.9738 87.0495L20.8245 86.9663L20.6775 86.8793L20.533 86.7887L20.3909 86.6927L20.2516 86.5931L20.1143 86.4897L19.9793 86.3815L19.8476 86.2697L19.7179 86.1536L19.5909 86.0327L19.4666 85.9092L19.3446 85.7809L19.2272 85.6505L19.1207 85.5291L19.0168 85.4051L18.9154 85.2789L18.818 85.1506L18.7235 85.0207L18.6325 84.8893L18.5453 84.7557L18.4608 84.6205L18.38 84.4837L18.3027 84.3448L18.2288 84.2049L18.1582 84.0633L18.0913 83.9191L18.0274 83.7739L17.9675 83.627L17.9103 83.4781L17.8573 83.328L17.8075 83.1764L17.7614 83.0222L17.7182 82.8674L17.6793 82.711L17.6432 82.5535L17.6108 82.394L17.5816 82.2328L17.5561 82.0701L17.5341 81.9063L17.5149 81.7409L17.4994 81.5739L17.4885 81.4058L17.4792 81.2357L17.4744 81.065L17.4726 80.8921L17.4744 80.7108L17.4795 80.5306L17.4892 80.3525L17.5019 80.1754L17.5184 80.0005L17.5385 79.8271L17.5622 79.6554L17.5901 79.4847L17.6212 79.3166L17.6564 79.1496L17.6952 78.9848L17.7371 78.822L17.7829 78.6603L17.8334 78.5008L17.8871 78.3433L17.9443 78.1869L18.0056 78.0332L18.0705 77.8811L18.1395 77.7305L18.2114 77.5826L18.2876 77.4352L18.3675 77.2916L18.4506 77.149L18.538 77.0079L18.6288 76.8696L18.7235 76.7333L18.8212 76.5987L18.9233 76.4662L19.0286 76.3358L19.1371 76.208L19.2497 76.0818L19.3656 75.9578L19.4853 75.8364L19.6066 75.7187L19.73 75.6047L19.8564 75.4945L19.9849 75.3874L20.1145 75.2851L20.2467 75.1865L20.3816 75.091L20.5184 74.9993L20.6573 74.9124L20.7987 74.8286L20.9416 74.7486L21.087 74.6722L21.234 74.6007L21.3835 74.5323L21.5351 74.4681L21.6881 74.4082L21.8435 74.3515L22.0006 74.299L22.1602 74.2508L22.321 74.2063L22.4835 74.166L22.6483 74.1294L22.8148 74.0965L22.9833 74.0674L23.1532 74.0425L23.3247 74.0213L23.4986 74.0043L23.6738 73.9905L23.8507 73.9804L24.0301 73.9757L24.2104 73.973L24.3889 73.9757L24.5655 73.9804L24.7407 73.9905L24.9143 74.0043L25.0861 74.0218L25.2567 74.0425L25.4248 74.0674L25.5919 74.0971L25.7574 74.1294L25.9204 74.166L26.0824 74.2068L26.2421 74.2508L26.4 74.2996L26.5565 74.3521L26.7114 74.4082L26.8635 74.4687L27.0144 74.5323L27.1632 74.6007L27.31 74.6728L27.4552 74.7486L27.598 74.8286L27.7392 74.9124L27.8778 74.9993L28.0151 75.0905L28.1496 75.1859L28.2825 75.2845L28.413 75.3868L28.5415 75.4934L28.6681 75.6031L28.7924 75.7171L28.9147 75.8348L29.0348 75.9557L29.1519 76.0797L29.2654 76.2059L29.3758 76.3347L29.4823 76.4646L29.5853 76.5966L29.6841 76.7307L29.7795 76.868L29.8712 77.0064L29.9593 77.1468L30.0436 77.2889L30.1241 77.4336L30.2012 77.5805L30.2744 77.7289L30.3434 77.8789L30.4094 78.0316L30.4712 78.1853L30.5291 78.3417L30.5832 78.4997L30.6341 78.6593L30.6804 78.821L30.7235 78.9842L30.7626 79.1491L30.7978 79.3161L30.8295 79.4841L30.8573 79.6543L30.8814 79.8261L30.9019 80L30.9186 80.1749L30.9316 80.352L30.9402 80.5306L30.9457 80.7108L30.9478 80.8921ZM26.9697 80.9287L26.9692 80.7766L26.9674 80.6255L26.9648 80.4771L26.96 80.3307L26.9542 80.186L26.9466 80.0434L26.9391 79.9024L26.9294 79.7635L26.9183 79.6267L26.9065 79.4921L26.8933 79.359L26.8783 79.2281L26.8627 79.0993L26.8454 78.9721L26.8273 78.8469L26.8079 78.724L26.7875 78.6026L26.7653 78.4843L26.7426 78.3672L26.7181 78.2521L26.6924 78.1382L26.6658 78.0279L26.6375 77.9182L26.6086 77.8111L26.5783 77.7061L26.547 77.6033L26.5144 77.5015L26.4804 77.4029L26.4456 77.3059L26.4095 77.2099L26.3725 77.1172L26.3347 77.027L26.2857 76.9184L26.2361 76.8134L26.1852 76.7127L26.1327 76.6162L26.079 76.524L26.0243 76.436L25.9685 76.3506L25.9118 76.2706L25.8535 76.1937L25.7949 76.1211L25.735 76.0521L25.6741 75.9864L25.612 75.9255L25.5493 75.8671L25.4856 75.8131L25.4208 75.7622L25.3551 75.7145L25.2887 75.671L25.2202 75.6296L25.1509 75.5915L25.0803 75.557L25.0085 75.5252L24.9352 75.496L24.8602 75.4701L24.7838 75.4478L24.7046 75.4277L24.6245 75.4107L24.5424 75.3969L24.4581 75.3858L24.3718 75.3778L24.2824 75.3725L24.1921 75.3715L24.1057 75.3725L24.0215 75.3773L23.9389 75.3847L23.8588 75.3953L23.7796 75.408L23.7034 75.4245L23.6282 75.4436L23.5548 75.4653L23.4831 75.4897L23.4125 75.5173L23.343 75.5469L23.2752 75.5803L23.2085 75.6164L23.1428 75.6546L23.0779 75.697L23.0145 75.742L22.952 75.7903L22.89 75.8417L22.8284 75.8968L22.7687 75.9551L22.7097 76.0166L22.6507 76.0829L22.5935 76.1518L22.5365 76.2244L22.4812 76.3008L22.4263 76.3813L22.3719 76.4656L22.3189 76.5531L22.2678 76.6448L22.2166 76.7402L22.1668 76.8399L22.1185 76.9433L22.0789 77.0334L22.0404 77.1262L22.0025 77.2216L21.9657 77.3191L21.9303 77.4188L21.8963 77.5206L21.8631 77.625L21.8314 77.7305L21.8009 77.8387L21.7715 77.9494L21.743 78.0618L21.7166 78.1769L21.6907 78.2935L21.6664 78.4133L21.6434 78.5347L21.6214 78.6582L21.6011 78.7833L21.5816 78.9116L21.5641 79.042L21.5467 79.174L21.5321 79.3082L21.5175 79.4454L21.505 79.5838L21.4937 79.7243L21.4835 79.868L21.4749 80.0132L21.4678 80.1595L21.4615 80.3095L21.4569 80.4612L21.4537 80.6149L21.4513 80.7713L21.4502 80.9287L21.4513 81.083L21.4537 81.2357L21.4571 81.3862L21.462 81.5341L21.4682 81.681L21.4759 81.8252L21.4856 81.9678L21.4955 82.1082L21.5076 82.2466L21.5212 82.3829L21.5356 82.5164L21.5516 82.649L21.5694 82.7794L21.5882 82.9082L21.6083 83.0344L21.6298 83.1589L21.6527 83.2809L21.677 83.4007L21.7027 83.5194L21.7291 83.6355L21.7576 83.75L21.7872 83.8624L21.8177 83.9721L21.8497 84.0803L21.8835 84.1858L21.918 84.2902L21.9539 84.392L21.9909 84.4922L22.0298 84.5903L22.0692 84.6862L22.1104 84.7806L22.1529 84.8734L22.202 84.9757L22.2516 85.0727L22.3023 85.167L22.3536 85.2572L22.4062 85.3425L22.4599 85.4252L22.5138 85.5042L22.5689 85.5784L22.625 85.65L22.6822 85.7178L22.7403 85.782L22.7986 85.8424L22.8581 85.8997L22.918 85.9532L22.9793 86.0036L23.0407 86.0508L23.1037 86.0953L23.1671 86.1361L23.2317 86.1743L23.2969 86.2098L23.3634 86.2416L23.4307 86.2708L23.5 86.2983L23.5706 86.3222L23.6423 86.3434L23.7153 86.3614L23.7903 86.3773L23.8669 86.39L23.9458 86.4001L24.0254 86.4075L24.1079 86.4118L24.1921 86.4134L24.2805 86.4118L24.3662 86.407L24.45 86.3985L24.5327 86.3884L24.612 86.3741L24.6907 86.3572L24.7673 86.3375L24.8426 86.3142L24.9155 86.2882L24.9875 86.2596L25.0583 86.2273L25.128 86.1923L25.1963 86.1541L25.2637 86.1128L25.3301 86.0682L25.3954 86.02L25.4599 85.9686L25.5232 85.9134L25.5859 85.8546L25.6484 85.7926L25.7093 85.7268L25.7692 85.6569L25.8285 85.5832L25.8871 85.5053L25.9449 85.4236L26.0014 85.3377L26.0567 85.2481L26.1109 85.1543L26.1644 85.0557L26.2167 84.9539L26.2678 84.8479L26.3176 84.7371L26.3567 84.6459L26.3949 84.5516L26.4322 84.4556L26.4681 84.3575L26.5024 84.2584L26.5363 84.1572L26.5683 84.0543L26.5996 83.9499L26.6296 83.8433L26.6574 83.7357L26.6855 83.626L26.7121 83.5147L26.7368 83.4017L26.7604 83.2867L26.7822 83.1706L26.8037 83.0529L26.8241 82.9326L26.8429 82.8107L26.8602 82.6877L26.8764 82.5626L26.891 82.4353L26.9044 82.307L26.9174 82.1772L26.9285 82.0446L26.9384 81.911L26.9466 81.7759L26.9535 81.6391L26.9595 81.5007L26.9642 81.3602L26.9674 81.2176L26.9692 81.074L26.9697 80.9287ZM12.2894 85.7708L12.3231 85.7523L12.3451 85.7353L12.3604 85.721L12.3722 85.7051L12.384 85.6839L12.3963 85.6521L12.4081 85.6076L12.4176 85.5493L12.4243 85.4772L12.4259 85.43L12.4201 85.413L12.4056 85.3754L12.3852 85.3271L12.3604 85.2699L12.3308 85.2052L12.296 85.131L12.2565 85.0504L12.2127 84.9619L12.1644 84.8659L12.1111 84.7626L12.0537 84.6528L11.9916 84.5351L11.9252 84.4111L9.00781 79.0272V84.1625L9.00802 84.2155L9.00919 84.2653L9.01083 84.3157L9.01337 84.365L9.01661 84.4127L9.02005 84.4599L9.02493 84.507L9.02954 84.5526L9.03606 84.5977L9.04232 84.6422L9.04995 84.6862L9.05732 84.7292L9.0657 84.771L9.0754 84.8119L9.08489 84.8537L9.09533 84.8935L9.10593 84.9322L9.11754 84.9714L9.13027 85.0096L9.14278 85.0467L9.15598 85.0838L9.16987 85.1193L9.18418 85.1548L9.1995 85.1898L9.21519 85.2243L9.23141 85.2572L9.2488 85.29L9.26592 85.3229L9.28352 85.3547L9.30271 85.386L9.32217 85.4167L9.3395 85.4438L9.38048 85.5005L9.41961 85.5493L9.4599 85.5938L9.49992 85.6341L9.54158 85.6701L9.58325 85.7019L9.62704 85.7306L9.67125 85.7565L9.71801 85.7788L9.76683 85.7984L9.81778 85.8159L9.87217 85.8297L9.92868 85.8413L9.98933 85.8498L10.0539 85.8546L10.5824 85.8679V87.3527H3.45747V85.87L3.99429 85.8546L4.06628 85.8472L4.13295 85.8371L4.19568 85.8223L4.25517 85.8048L4.31049 85.783L4.36351 85.7576L4.41444 85.7284L4.46397 85.6956L4.51143 85.6569L4.55865 85.6145L4.60448 85.5662L4.65009 85.5111L4.69407 85.4512L4.73782 85.3839L4.78111 85.3075L4.80981 85.2513L4.83805 85.192L4.86375 85.131L4.88806 85.0684L4.91074 85.0038L4.93134 84.9375L4.95009 84.8691L4.96699 84.7991L4.98227 84.7265L4.99523 84.6528L5.0068 84.577L5.01584 84.4986L5.02301 84.418L5.02834 84.3358L5.03157 84.251L5.03273 84.1619V70.972L5.03111 70.875L5.02717 70.7838L5.02 70.6953L5.01005 70.6094L4.99755 70.5267L4.98273 70.4456L4.96491 70.3682L4.94477 70.2919L4.92208 70.2187L4.89731 70.1471L4.86977 70.0788L4.83944 70.0119L4.80726 69.9468L4.77231 69.8837L4.73481 69.8222L4.69476 69.7639L4.65472 69.7087L4.61443 69.661L4.57416 69.617L4.53226 69.5773L4.49036 69.5423L4.44777 69.5105L4.40425 69.4818L4.35911 69.4559L4.31304 69.4347L4.26443 69.4145L4.21374 69.3975L4.16142 69.3843L4.1054 69.3732L4.04614 69.3652L3.98433 69.3599L3.45747 69.3461V67.8618H10.5824V69.3461L10.0592 69.3599L9.9995 69.3652L9.94278 69.3726L9.88839 69.3838L9.83745 69.3975L9.78815 69.414L9.74022 69.4341L9.69463 69.4553L9.64994 69.4813L9.60642 69.5099L9.56269 69.5423L9.51937 69.5783L9.47728 69.6186L9.43514 69.6637L9.39368 69.7124L9.35249 69.767L9.31173 69.8264L9.27334 69.8874L9.23788 69.9505L9.20432 70.0151L9.17379 70.0819L9.14532 70.1508L9.1203 70.2214L9.09692 70.295L9.0763 70.3703L9.05849 70.4482L9.04322 70.5283L9.0305 70.611L9.02032 70.6969L9.01337 70.7843L9.00945 70.876L9.00781 70.9725V75.8772L12.2984 71.1406L12.3755 71.0298L12.4449 70.9259L12.5095 70.8267L12.5685 70.7319L12.6227 70.6412L12.6704 70.5564L12.7137 70.4758L12.7507 70.4005L12.7824 70.3316L12.809 70.268L12.8301 70.2107L12.8458 70.1609L12.8576 70.1185L12.8641 70.084L12.8673 70.0586L12.8683 70.0385L12.8673 70.0088L12.8648 69.9775L12.8604 69.9489L12.8539 69.9213L12.8463 69.8948L12.8373 69.8693L12.8257 69.8444L12.8127 69.8185L12.7972 69.7935L12.7792 69.7676L12.7581 69.7411L12.734 69.714L12.7067 69.6865L12.6757 69.6584L12.641 69.6297L12.6014 69.6001L12.5581 69.5704L12.5132 69.5428L12.469 69.5163L12.4243 69.493L12.3794 69.4712L12.3345 69.4516L12.2887 69.4341L12.2426 69.4177L12.1961 69.4044L12.1491 69.3922L12.1016 69.3816L12.053 69.3732L12.0044 69.3673L11.9535 69.362L11.9027 69.3594L11.3893 69.3493V67.8618H17.8418V69.3551L17.3246 69.3583L17.2679 69.3599L17.2119 69.3615L17.1568 69.3641L17.1022 69.3673L17.0487 69.3716L16.9943 69.3763L16.9422 69.3816L16.8911 69.388L16.8401 69.3949L16.7892 69.4028L16.7395 69.4108L16.6908 69.4198L16.642 69.4293L16.5943 69.4394L16.5476 69.4511L16.5012 69.4622L16.4554 69.4749L16.41 69.4882L16.3656 69.5014L16.3218 69.5163L16.2788 69.5311L16.2364 69.5465L16.1943 69.5629L16.1536 69.5799L16.1128 69.5974L16.0723 69.616L16.0327 69.635L15.9943 69.6546L15.9558 69.6748L15.9174 69.696L15.8801 69.7172L15.8429 69.7395L15.8054 69.7633L15.7672 69.7877L15.729 69.8142L15.691 69.8418L15.6517 69.8704L15.6126 69.9006L15.5728 69.9324L15.5334 69.9653L15.4924 69.9992L15.4517 70.0347L15.4107 70.0724L15.3695 70.1111L15.3276 70.1508L15.285 70.1922L15.2433 70.2346L15.201 70.2781L15.1577 70.3242L15.1148 70.3703L15.0713 70.4191L15.0283 70.4684L14.9841 70.5193L14.9401 70.5712L14.8956 70.6253L14.8516 70.6799L14.8065 70.7366L14.7621 70.7944L14.7167 70.8533L14.6716 70.9137L14.626 70.9757L14.5806 71.0388L14.5338 71.1035L11.6773 75.1764L17.2056 85.026L17.2751 85.1469L17.3425 85.2556L17.4077 85.3552L17.4719 85.4454L17.5341 85.5254L17.5939 85.5964L17.6508 85.6579L17.7054 85.7094L17.7554 85.7533L17.8015 85.7868L17.8427 85.8127L17.8786 85.8313L17.9098 85.844L17.9357 85.8509L17.957 85.8546L18.4376 85.8827V87.3527H11.2338V85.8668L11.8433 85.8535L11.972 85.844L12.0808 85.8297L12.1694 85.8117L12.2386 85.7915L12.2894 85.7708Z" fill="#ff5a1f"></path></svg> 
