<svg xmlns="http://www.w3.org/2000/svg" xmlns:xlink="http://www.w3.org/1999/xlink" version="1.1" id="Слой_1" x="0px" y="0px" viewBox="0 0 230 50" style="enable-background:new 0 0 230 50;" xml:space="preserve">
<style type="text/css">
	.st0{fill:#E32929;}
</style>
<g>
	<path class="st0" d="M51.2,20c-1.5-9.8-8.1-12.7-14.4-11.8c-8.6,1.3-12.5,8.9-11.2,17c1.4,9.2,8.2,14.3,16.1,13.1   c3-0.5,6.2-1.7,9.5-3.9L48,29.6c-1.8,1.1-4.2,2.3-6.6,2.6c-3.2,0.5-6.3-0.4-7.5-4.6l17.4-6C51.2,21.1,51.2,20.5,51.2,20z    M32.4,22.2c0-0.4-0.1-0.6,0-0.9c-0.1-4.4,2.5-7.2,5.5-7.6c2.6-0.4,5.5,0.7,6.1,4.7L32.4,22.2z"/>
	<g>
		<path class="st0" d="M54.9,22.1c0-2.8-0.1-5.2-0.2-7.1h5.8l0.3,3H61c1-1.4,2.9-3.5,6.8-3.5c2.9,0,5.2,1.5,6.1,3.8H74    c0.8-1.1,1.8-2.1,2.9-2.7c1.2-0.7,2.6-1.1,4.2-1.1c4.3,0,7.5,3,7.5,9.7v13.1h-6.8V25.2c0-3.2-1-5.1-3.3-5.1    c-1.6,0-2.7,1.1-3.2,2.4c-0.2,0.5-0.3,1.2-0.3,1.8v13.1h-6.8V24.8c0-2.8-1-4.7-3.2-4.7c-1.8,0-2.8,1.4-3.2,2.5    c-0.2,0.5-0.3,1.2-0.3,1.7v13h-6.8V22.1z"/>
		<path class="st0" d="M106.9,37.3l-0.4-2.2h-0.1c-1.5,1.8-3.7,2.7-6.4,2.7c-4.5,0-7.2-3.3-7.2-6.8c0-5.8,5.2-8.6,13.1-8.5v-0.3    c0-1.2-0.6-2.9-4.1-2.9c-2.3,0-4.7,0.8-6.2,1.7l-1.3-4.5c1.6-0.9,4.6-2,8.7-2c7.4,0,9.8,4.4,9.8,9.6v7.8c0,2.1,0.1,4.2,0.3,5.4    H106.9z M106,26.8c-3.7,0-6.5,0.8-6.5,3.5c0,1.8,1.2,2.6,2.7,2.6c1.7,0,3.1-1.1,3.6-2.6c0.1-0.4,0.1-0.8,0.1-1.2V26.8z"/>
		<path class="st0" d="M118.3,4.9h6.9v32.4h-6.9V4.9z"/>
		<path class="st0" d="M130.8,4.9h6.9v32.4h-6.9V4.9z"/>
		<path class="st0" d="M142.5,33.6c0-2.5,1.7-4.2,4.1-4.2c2.4,0,4.1,1.7,4.1,4.2c0,2.4-1.6,4.2-4.1,4.2    C144.2,37.8,142.5,36,142.5,33.6z"/>
		<path class="st0" d="M154.7,37.3c0.1-1.5,0.2-4.2,0.2-6.7V4.9h6.9v12.7h0.1c1.3-1.9,3.7-3.1,6.8-3.1c5.3,0,9.3,4.4,9.2,11.3    c0,8-5.1,12-10.2,12c-2.6,0-5.1-1-6.7-3.6h-0.1l-0.3,3.1H154.7z M161.8,27.8c0,0.5,0,0.9,0.1,1.2c0.5,1.9,2.1,3.3,4.1,3.3    c3,0,4.8-2.3,4.8-6.3c0-3.5-1.6-6.2-4.8-6.2c-1.9,0-3.6,1.4-4.1,3.4c-0.1,0.4-0.1,0.8-0.1,1.3V27.8z"/>
		<path class="st0" d="M186.9,15l3.3,11c0.4,1.3,0.8,3,1.1,4.2h0.1c0.3-1.2,0.7-2.9,1-4.2l2.7-11h7.4l-5.2,14.7    c-3.2,8.9-5.3,12.4-7.9,14.7c-2.4,2.1-5,2.8-6.7,3.1l-1.5-5.9c0.9-0.1,2-0.5,3-1.2c1-0.5,2.2-1.6,2.9-2.8c0.2-0.3,0.4-0.7,0.4-1    c0-0.2,0-0.6-0.3-1.1L179.2,15H186.9z"/>
	</g>
</g>
</svg>
