<svg xmlns="http://www.w3.org/2000/svg" viewBox="0 0 126.7 48.89"><defs><style>.cls-1{fill:#fff;}.cls-2{fill:#00416b;}</style></defs><g id="Слой_2" data-name="Слой 2"><g id="Layer_3" data-name="Layer 3"><path class="cls-1" d="M115,48.21a15.53,15.53,0,0,0,11-4.54V35.59a16.23,16.23,0,0,0-22,0v8.08A15.53,15.53,0,0,0,115,48.21Z"/><path class="cls-2" d="M115,48.89a16.21,16.21,0,0,1-11.6-4.84l-.1-.1V25.07l.1-.1a16.29,16.29,0,0,1,23.19,0l.1.1V44l-.1.1A16.21,16.21,0,0,1,115,48.89Zm-11-5.22a15.63,15.63,0,0,0,22,0V25.35a15.61,15.61,0,0,0-22,0Z"/><path class="cls-1" d="M89.18,48.21a15.55,15.55,0,0,0,11-4.54V35.59a16.24,16.24,0,0,0-22,0v8.08A15.55,15.55,0,0,0,89.18,48.21Z"/><path class="cls-2" d="M89.18,48.89a16.25,16.25,0,0,1-11.6-4.84l-.1-.1V25.07l.1-.1a16.3,16.3,0,0,1,23.2,0l.09.1V44l-.09.1A16.23,16.23,0,0,1,89.18,48.89Zm-11-5.22a15.64,15.64,0,0,0,22,0V25.35a15.62,15.62,0,0,0-22,0Z"/><path class="cls-1" d="M63.35,48.21a15.55,15.55,0,0,0,11-4.54V35.59a16.24,16.24,0,0,0-22,0v8.08A15.57,15.57,0,0,0,63.35,48.21Z"/><path class="cls-2" d="M63.35,48.89a16.25,16.25,0,0,1-11.6-4.84l-.1-.1V25.07l.1-.1A16.3,16.3,0,0,1,75,25l.09.1V44l-.09.1A16.25,16.25,0,0,1,63.35,48.89Zm-11-5.22a15.64,15.64,0,0,0,22,0V25.35a15.62,15.62,0,0,0-22,0Z"/><path class="cls-1" d="M37.53,48.21a15.53,15.53,0,0,0,11-4.54V35.59a16.24,16.24,0,0,0-22,0v8.08A15.57,15.57,0,0,0,37.53,48.21Z"/><path class="cls-2" d="M37.53,48.89a16.25,16.25,0,0,1-11.61-4.84l-.09-.1V25.07l.09-.1a16.3,16.3,0,0,1,23.2,0l.1.1V44l-.1.1A16.21,16.21,0,0,1,37.53,48.89Zm-11-5.22a15.64,15.64,0,0,0,22,0V25.35a15.62,15.62,0,0,0-22,0Z"/><path class="cls-1" d="M11.7,48.21a15.51,15.51,0,0,0,11-4.54V35.59a16.23,16.23,0,0,0-22,0v8.08A15.55,15.55,0,0,0,11.7,48.21Z"/><path class="cls-2" d="M11.7,48.89A16.21,16.21,0,0,1,.1,44.05L0,44V25.07L.1,25a16.29,16.29,0,0,1,23.19,0l.1.1V44l-.1.1A16.21,16.21,0,0,1,11.7,48.89Zm-11-5.22a15.63,15.63,0,0,0,22,0V25.35a15.61,15.61,0,0,0-22,0Z"/><path class="cls-2" d="M7.14,37c1.37,0,1.93,1.26,1.93,2.44s-.56,2.44-1.93,2.44S5.2,40.6,5.2,39.43,5.77,37,7.14,37Zm0,.79c-.84,0-1,1-1,1.65s.16,1.65,1,1.65,1-1,1-1.65S8,37.78,7.14,37.78Z"/><path class="cls-2" d="M9.46,42.48l.19-1.25c0-.29.24-.41.56-.39a.41.41,0,0,1,.39.62l-.45,1.11a.35.35,0,0,1-.4.26A.28.28,0,0,1,9.46,42.48Z"/><path class="cls-2" d="M14.32,39.06a2.82,2.82,0,0,1-2.11,2.84c-.24.06-.44.06-.56-.23s-.07-.41.17-.49A2,2,0,0,0,13.29,40a1.22,1.22,0,0,1-.77.2A1.46,1.46,0,0,1,11,38.61a1.58,1.58,0,0,1,1.64-1.68C13.91,36.93,14.32,37.92,14.32,39.06Zm-.91-.48c0-.47-.23-.94-.73-.94s-.77.49-.77,1,.23.86.74.86A.82.82,0,0,0,13.41,38.58Z"/><path class="cls-2" d="M17.4,38.19c.23,0,.42.09.42.35v2.94a1.48,1.48,0,0,1-1.24,1.63,3.05,3.05,0,0,1-1.41,0,.45.45,0,0,1-.27-.54c0-.24.18-.38.38-.31a2,2,0,0,0,1.13.07.67.67,0,0,0,.49-.69,1.19,1.19,0,0,1-.77.25c-1.09,0-1.5-.71-1.5-1.8s.4-1.86,1.5-1.86a1.22,1.22,0,0,1,.82.31C17,38.24,17.2,38.19,17.4,38.19Zm-.5,1.67c0-.39-.2-1-.66-1s-.65.64-.65,1.15.09,1.09.65,1.09.66-.57.66-1Z"/><path class="cls-2" d="M31.54,41.29a.81.81,0,0,1,.23-.55,8.77,8.77,0,0,1,1.33-1.18c.39-.3.79-.67.79-1.09a.67.67,0,0,0-.76-.72.69.69,0,0,0-.7.58.4.4,0,0,1-.49.29c-.23,0-.34-.12-.34-.36A1.42,1.42,0,0,1,33.13,37c.92,0,1.68.45,1.68,1.42a2.06,2.06,0,0,1-1,1.6c-.39.32-.82.61-1.15.94,0,0,0,.08,0,.08h1.81c.23,0,.29.2.29.41s-.06.41-.29.41H32C31.65,41.81,31.54,41.69,31.54,41.29Z"/><path class="cls-2" d="M35.15,42.48l.19-1.25c0-.29.24-.41.56-.39a.4.4,0,0,1,.38.62l-.44,1.11a.35.35,0,0,1-.4.26A.28.28,0,0,1,35.15,42.48Z"/><path class="cls-2" d="M38.48,38.74s0,.08,0,.08a1.37,1.37,0,0,1,1.42,1.41,1.62,1.62,0,0,1-1.72,1.66A1.6,1.6,0,0,1,36.66,41a.4.4,0,0,1,.22-.57.39.39,0,0,1,.53.16.81.81,0,0,0,.82.49.76.76,0,0,0,.78-.8c0-.76-.68-.85-1.29-.78a.35.35,0,0,1-.37-.25.43.43,0,0,1,.11-.48l.65-.7a2.13,2.13,0,0,1,.26-.26H37c-.23,0-.3-.2-.3-.4s.07-.42.3-.42h2.36c.23,0,.28.18.27.42a.68.68,0,0,1-.18.37Z"/><path class="cls-2" d="M42.94,38.19c.24,0,.42.09.42.35v2.94a1.48,1.48,0,0,1-1.23,1.63,3,3,0,0,1-1.41,0c-.25-.08-.3-.31-.28-.54s.18-.38.39-.31a2,2,0,0,0,1.13.07.68.68,0,0,0,.48-.69,1.14,1.14,0,0,1-.76.25c-1.09,0-1.5-.71-1.5-1.8s.39-1.86,1.5-1.86a1.24,1.24,0,0,1,.82.31C42.54,38.24,42.74,38.19,42.94,38.19Zm-.5,1.67c0-.39-.2-1-.65-1s-.65.64-.65,1.15.08,1.09.65,1.09.65-.57.65-1Z"/><path class="cls-2" d="M59.64,37c.23,0,.29.2.29.41s-.06.42-.29.42H58.22c-.1,0-.11,0-.13.13l-.08.59c0,.17.05.19.19.17,1.15-.22,2.12.24,2.11,1.51a1.6,1.6,0,0,1-1.69,1.65,1.57,1.57,0,0,1-1.56-.9.33.33,0,0,1,.2-.5.42.42,0,0,1,.57.13.85.85,0,0,0,.8.49.76.76,0,0,0,.76-.83c0-.84-.86-1.06-1.57-.8-.37.13-.82,0-.75-.49l.18-1.36c.06-.46.14-.62.54-.62Z"/><path class="cls-2" d="M60.63,42.48l.19-1.25c0-.29.24-.41.57-.39a.41.41,0,0,1,.38.62l-.45,1.11a.34.34,0,0,1-.39.26A.28.28,0,0,1,60.63,42.48Z"/><path class="cls-2" d="M64.21,37c1.37,0,1.94,1.26,1.94,2.44s-.57,2.44-1.94,2.44-1.94-1.27-1.94-2.44S62.84,37,64.21,37Zm0,.79c-.84,0-1,1-1,1.65s.16,1.65,1,1.65,1-1,1-1.65S65,37.78,64.21,37.78Z"/><path class="cls-2" d="M69.23,38.19c.23,0,.41.09.41.35v2.94a1.48,1.48,0,0,1-1.23,1.63,3,3,0,0,1-1.41,0c-.25-.08-.3-.31-.28-.54s.18-.38.39-.31a2,2,0,0,0,1.13.07.69.69,0,0,0,.49-.69,1.19,1.19,0,0,1-.77.25c-1.09,0-1.5-.71-1.5-1.8s.39-1.86,1.5-1.86a1.22,1.22,0,0,1,.82.31C68.82,38.24,69,38.19,69.23,38.19Zm-.5,1.67c0-.39-.2-1-.66-1s-.65.64-.65,1.15.09,1.09.65,1.09.66-.57.66-1Z"/><path class="cls-2" d="M86.05,39.62c0,.24-.2.3-.4.3s-.41-.06-.41-.3v-3.4a.51.51,0,0,1-.2.12l-.35.14a.28.28,0,0,1-.34-.17.3.3,0,0,1,.12-.42l.87-.51a.59.59,0,0,1,.31-.07c.2,0,.4.06.4.3Z"/><path class="cls-2" d="M86.54,39.39a.76.76,0,0,1,.21-.52A8.86,8.86,0,0,1,88,37.75c.37-.29.76-.64.76-1a.64.64,0,0,0-.72-.69.66.66,0,0,0-.67.55.38.38,0,0,1-.47.27c-.21,0-.32-.11-.32-.33a1.35,1.35,0,0,1,1.46-1.25c.87,0,1.59.43,1.59,1.35a2,2,0,0,1-.92,1.52,13.83,13.83,0,0,0-1.08.89s0,.07,0,.07h1.73c.21,0,.27.2.27.39s-.06.39-.27.39H87C86.64,39.88,86.54,39.77,86.54,39.39Z"/><path class="cls-2" d="M91.76,35.31c1.3,0,1.84,1.2,1.84,2.31s-.54,2.31-1.84,2.31-1.84-1.2-1.84-2.31S90.46,35.31,91.76,35.31Zm0,.74c-.8,0-1,1-1,1.57s.15,1.57,1,1.57.95-1,.95-1.57S92.54,36.05,91.76,36.05Z"/><path class="cls-2" d="M87.65,41.91a1.23,1.23,0,0,1,1-.5c.69,0,1,.39,1,1.18v2c0,.25-.21.31-.44.31s-.43-.06-.43-.31V42.76c0-.25,0-.58-.38-.58-.52,0-.67.47-.67.9v1.55c0,.25-.22.31-.44.31s-.44-.06-.44-.31V42.8c0-.25-.05-.62-.4-.62s-.65.47-.65.92v1.53c0,.25-.22.31-.43.31s-.44-.06-.44-.31V41.76c0-.23.18-.32.38-.32s.39.07.42.32v.08a1.22,1.22,0,0,1,1-.43A1,1,0,0,1,87.65,41.91Z"/><path class="cls-2" d="M92.69,41.45c.22,0,.39.08.39.33v2.79a1.41,1.41,0,0,1-1.17,1.55,3,3,0,0,1-1.34,0,.45.45,0,0,1-.26-.52c0-.23.17-.36.37-.29a1.78,1.78,0,0,0,1.07.07.65.65,0,0,0,.46-.66,1.11,1.11,0,0,1-.73.25c-1,0-1.42-.68-1.42-1.71s.38-1.77,1.42-1.77a1.15,1.15,0,0,1,.78.29C92.3,41.5,92.5,41.45,92.69,41.45ZM92.21,43c0-.36-.19-.92-.62-.92s-.62.61-.62,1.1.08,1,.62,1,.62-.55.62-.92Z"/><path class="cls-2" d="M114.24,40.82v.74c0,.25-.22.31-.45.31s-.45-.06-.45-.31v-.74h-1.78c-.21,0-.34-.1-.35-.38a.54.54,0,0,1,.11-.37l1.74-2.76a.64.64,0,0,1,.63-.36c.22,0,.55,0,.55.36v2.74h.28c.22,0,.27.2.27.39s-.05.38-.27.38Zm-1.09-2.24-.66,1.06a1.7,1.7,0,0,1-.31.41h1.16V38.2A1.93,1.93,0,0,1,113.15,38.58Z"/><path class="cls-2" d="M118.11,40.82v.74c0,.25-.23.31-.45.31s-.46-.06-.46-.31v-.74h-1.78c-.21,0-.33-.1-.35-.38a.6.6,0,0,1,.11-.37l1.74-2.76a.65.65,0,0,1,.63-.36c.23,0,.56,0,.56.36v2.74h.28c.21,0,.27.2.27.39s-.06.38-.27.38ZM117,38.58l-.67,1.06a2,2,0,0,1-.3.41h1.15V38.2A1.91,1.91,0,0,1,117,38.58Z"/><path class="cls-2" d="M2.44,29c0,.18-.16.23-.32.23S1.8,29.16,1.8,29V26.22c0-.36.23-.42.47-.42h.86a1.05,1.05,0,0,1,0,2.1H2.44Zm1-2.14a.4.4,0,0,0-.41-.46H2.52s-.08,0-.08.08v.85h.62A.42.42,0,0,0,3.47,26.84Z"/><path class="cls-2" d="M5.49,27.81H5.2V29c0,.18-.16.23-.31.23s-.32-.05-.32-.23V26.22c0-.36.22-.42.47-.42h.85a1,1,0,0,1,1,1,.91.91,0,0,1-.58.87,1.27,1.27,0,0,1,.37.5,6.51,6.51,0,0,0,.33.71c.14.21-.09.32-.27.32a.41.41,0,0,1-.36-.13A4.59,4.59,0,0,1,6,28.23C5.91,28,5.77,27.81,5.49,27.81Zm.75-1a.39.39,0,0,0-.42-.43H5.28s-.08,0-.08.08v.8h.62A.41.41,0,0,0,6.24,26.81Z"/><path class="cls-2" d="M8.62,25.75c1,0,1.37.71,1.37,1.73s-.35,1.74-1.37,1.74-1.36-.72-1.36-1.74S7.6,25.75,8.62,25.75Zm0,.56c-.63,0-.71.65-.71,1.17s.09,1.17.71,1.17.71-.65.71-1.17S9.25,26.31,8.62,26.31Z"/><path class="cls-2" d="M12.14,25.8c.15,0,.2.14.2.29s0,.29-.2.29h-.62V29c0,.18-.15.23-.31.23s-.32-.05-.32-.23v-2.6h-.61c-.16,0-.2-.15-.2-.29s0-.29.2-.29Z"/><path class="cls-2" d="M13.36,26.46v.68h1c.16,0,.21.14.21.29s0,.28-.21.28h-1v.8c0,.06,0,.08.08.08h1.07c.17,0,.2.14.2.29s0,.28-.2.28H13.19c-.24,0-.47-.06-.47-.42V26.22c0-.36.23-.42.47-.42h1.32c.16,0,.2.14.2.29s0,.29-.2.29H13.44C13.38,26.38,13.36,26.4,13.36,26.46Z"/><path class="cls-2" d="M15.83,29c0,.18-.16.23-.32.23s-.32-.05-.32-.23V26c0-.17.16-.22.32-.22s.32,0,.32.22Z"/><path class="cls-2" d="M18.07,27.55a2.79,2.79,0,0,1,.23.43V26c0-.17.16-.22.31-.22s.31,0,.31.22v3c0,.18-.18.23-.33.23a.35.35,0,0,1-.34-.16l-.95-1.61a3.16,3.16,0,0,1-.22-.45v2c0,.18-.16.23-.31.23s-.32-.05-.32-.23V26c0-.17.18-.22.34-.22a.34.34,0,0,1,.34.16Z"/><path class="cls-2" d="M20.51,28.67c.29,0,.55-.14.55-.47s-.36-.42-.6-.48c-.52-.14-1.1-.35-1.1-1a1,1,0,0,1,1.09-1,1.1,1.1,0,0,1,1.19.81c0,.14-.06.26-.24.28a.33.33,0,0,1-.36-.15.54.54,0,0,0-.57-.38c-.23,0-.47.1-.47.39s.36.38.57.44c.54.14,1.12.34,1.13,1a1,1,0,0,1-1.18,1.06,1.15,1.15,0,0,1-1.21-.88.25.25,0,0,1,.21-.31.33.33,0,0,1,.4.18A.62.62,0,0,0,20.51,28.67Z"/><path class="cls-2" d="M33.65,26.29V27h.94c.16,0,.21.15.21.3s0,.3-.21.3h-.94v1.31c0,.18-.17.23-.33.23s-.34-.05-.34-.23V26.05c0-.38.24-.45.49-.45h1.36c.16,0,.21.16.21.31s0,.3-.21.3h-1.1S33.65,26.23,33.65,26.29Z"/><path class="cls-2" d="M35.43,28.92c-.07.21-.21.23-.38.23s-.37,0-.3-.23l1-3.11a.38.38,0,0,1,.39-.26.36.36,0,0,1,.38.26l1,3.11c.07.2-.13.23-.3.23s-.3,0-.37-.23l-.2-.6h-1.1ZM36.29,27a3.11,3.11,0,0,1-.11-.49,2.33,2.33,0,0,1-.12.49l-.24.73h.71Z"/><path class="cls-2" d="M39.47,25.6c.16,0,.21.16.21.31s0,.3-.21.3h-.64v2.72c0,.18-.17.23-.33.23s-.33-.05-.33-.23V26.21h-.64c-.17,0-.21-.15-.21-.3s0-.31.21-.31Z"/><path class="cls-2" d="M40.94,28.61c.3,0,.58-.15.58-.5s-.39-.44-.63-.5c-.54-.14-1.15-.37-1.15-1.07a1,1,0,0,1,1.13-1,1.16,1.16,0,0,1,1.25.84c0,.15-.06.28-.25.3s-.31,0-.38-.16a.57.57,0,0,0-.6-.4c-.23,0-.49.11-.49.41s.38.41.6.46c.56.15,1.17.36,1.18,1.09A1.1,1.1,0,0,1,41,29.19a1.21,1.21,0,0,1-1.26-.92A.25.25,0,0,1,39.9,28a.33.33,0,0,1,.42.19A.64.64,0,0,0,40.94,28.61Z"/><path class="cls-2" d="M56.63,25.55a1.15,1.15,0,0,1,1.24,1.12c0,.15-.15.24-.33.24s-.31,0-.35-.22c-.08-.36-.21-.55-.59-.55-.64,0-.72.67-.72,1.22s.09,1.23.72,1.22c.39,0,.51-.26.6-.56,0-.15.15-.21.35-.22s.37.09.33.3a1.23,1.23,0,0,1-1.28,1.07c-1.05,0-1.41-.74-1.41-1.81S55.56,25.55,56.63,25.55Z"/><path class="cls-2" d="M58.68,28.92c-.07.21-.21.23-.38.23s-.37,0-.3-.23l1-3.11a.38.38,0,0,1,.39-.26.37.37,0,0,1,.38.26l1,3.11c.07.2-.13.23-.3.23s-.31,0-.38-.23l-.19-.6H58.87ZM59.54,27a3.11,3.11,0,0,1-.11-.49,2.33,2.33,0,0,1-.12.49l-.24.73h.71Z"/><path class="cls-2" d="M62.23,27.7h-.3v1.23c0,.18-.16.23-.33.23s-.33-.05-.33-.23V26.05c0-.38.24-.45.49-.45h.89a1,1,0,0,1,1.06,1.06,1,1,0,0,1-.61.91,1.35,1.35,0,0,1,.39.53,4.08,4.08,0,0,0,.35.73c.14.22-.11.33-.3.33s-.31-.05-.36-.13a4.69,4.69,0,0,1-.4-.89C62.67,27.9,62.52,27.7,62.23,27.7Zm.78-1a.4.4,0,0,0-.43-.45H62c-.06,0-.09,0-.09.08v.84h.65A.43.43,0,0,0,63,26.66Z"/><path class="cls-2" d="M66.84,28.06a1,1,0,0,1-1,1.06h-1c-.25,0-.49-.07-.49-.44V26.05c0-.38.24-.45.49-.45h.86a.91.91,0,0,1,1,1,.81.81,0,0,1-.35.69A.83.83,0,0,1,66.84,28.06ZM66,26.6a.35.35,0,0,0-.4-.39h-.52c-.06,0-.09,0-.09.08V27h.61A.36.36,0,0,0,66,26.6Zm-1,1.83c0,.07,0,.09.09.09h.65c.28,0,.4-.18.4-.46a.4.4,0,0,0-.46-.46H65Z"/><path class="cls-2" d="M68.62,25.55c1.06,0,1.43.74,1.43,1.81s-.36,1.81-1.43,1.81-1.43-.74-1.43-1.81S67.56,25.55,68.62,25.55Zm0,.59c-.66,0-.74.67-.74,1.22s.09,1.22.74,1.22.74-.68.74-1.22S69.27,26.14,68.62,26.14Z"/><path class="cls-2" d="M71.31,28.79c0,.23-.08.39-.39.39s-.37-.16-.37-.39.07-.38.37-.38S71.31,28.56,71.31,28.79Z"/><path class="cls-2" d="M81.23,25.55a1.14,1.14,0,0,1,1.24,1.12c0,.15-.14.24-.32.24s-.31,0-.35-.22c-.08-.36-.21-.55-.6-.55-.63,0-.71.67-.71,1.22s.09,1.23.71,1.22c.4,0,.52-.26.61-.56,0-.15.15-.21.35-.22s.36.09.32.3a1.22,1.22,0,0,1-1.28,1.07c-1,0-1.4-.74-1.4-1.81S80.17,25.55,81.23,25.55Z"/><path class="cls-2" d="M83.29,28.92c-.07.21-.21.23-.38.23s-.37,0-.3-.23l1-3.11a.37.37,0,0,1,.38-.26.38.38,0,0,1,.39.26l1,3.11c.07.2-.14.23-.3.23s-.31,0-.38-.23l-.19-.6H83.48ZM84.15,27a2.33,2.33,0,0,1-.12-.49,3.11,3.11,0,0,1-.11.49l-.24.73h.71Z"/><path class="cls-2" d="M87.62,28.51c.17,0,.21.16.21.31s0,.3-.21.3H86.37c-.26,0-.49-.07-.49-.45V25.79c0-.18.16-.23.33-.23s.34.05.34.23v2.64c0,.07,0,.08.08.08Z"/><path class="cls-2" d="M89.26,25.55a1.14,1.14,0,0,1,1.24,1.12c0,.15-.14.24-.32.24s-.32,0-.36-.22c-.07-.36-.2-.55-.59-.55-.63,0-.71.67-.71,1.22s.09,1.23.71,1.22c.4,0,.52-.26.6-.56,0-.15.16-.21.36-.22s.36.09.32.3a1.22,1.22,0,0,1-1.28,1.07c-1,0-1.4-.74-1.4-1.81S88.2,25.55,89.26,25.55Z"/><path class="cls-2" d="M91.64,28.93c0,.18-.17.23-.34.23s-.33-.05-.33-.23V25.82c0-.18.17-.24.33-.24s.34.06.34.24Z"/><path class="cls-2" d="M93,27.91a.58.58,0,0,0,.6.66.59.59,0,0,0,.61-.66V25.82c0-.18.16-.24.33-.24s.33.06.33.24v2a1.27,1.27,0,1,1-2.54,0v-2c0-.18.17-.24.33-.24s.34.06.34.24Z"/><path class="cls-2" d="M98.36,25.82v3.11c0,.18-.17.23-.32.23s-.33-.05-.33-.23v-2a2.17,2.17,0,0,1-.19.44l-.38.76a.26.26,0,0,1-.44,0l-.38-.76a4.48,4.48,0,0,1-.19-.44v2c0,.18-.17.23-.33.23s-.32-.05-.32-.23V25.82c0-.18.16-.24.32-.24a.3.3,0,0,1,.28.14c.08.12.84,1.6.84,1.6s.76-1.48.84-1.6a.31.31,0,0,1,.29-.14C98.21,25.58,98.36,25.64,98.36,25.82Z"/><path class="cls-2" d="M112.38,28.86c.11.19,0,.28-.23.29a.5.5,0,0,1-.52-.24l-.82-1.43-.3.34v1.11c0,.19-.17.23-.33.23s-.34,0-.34-.23V25.82c0-.18.17-.24.34-.24s.33.06.33.24v1.09l.93-1.06c.16-.19.28-.31.56-.26s.31.2.18.35l-.9,1Z"/><path class="cls-2" d="M113.78,25.55A1.14,1.14,0,0,1,115,26.67c0,.15-.15.24-.32.24s-.32,0-.36-.22c-.08-.36-.21-.55-.59-.55-.64,0-.72.67-.72,1.22s.09,1.23.72,1.22c.39,0,.51-.26.6-.56,0-.15.15-.21.36-.22s.36.09.32.3a1.22,1.22,0,0,1-1.28,1.07c-1,0-1.4-.74-1.4-1.81S112.71,25.55,113.78,25.55Z"/><path class="cls-2" d="M115.83,28.92c-.07.21-.21.23-.38.23s-.37,0-.3-.23l1-3.11a.38.38,0,0,1,.39-.26.37.37,0,0,1,.38.26l1,3.11c.07.2-.13.23-.3.23s-.3,0-.37-.23l-.2-.6H116Zm.86-1.92a3.11,3.11,0,0,1-.11-.49,2.33,2.33,0,0,1-.12.49l-.24.73h.71Z"/><path class="cls-2" d="M120.16,28.51c.17,0,.21.16.21.31s0,.3-.21.3h-1.25c-.25,0-.49-.07-.49-.45V25.79c0-.18.17-.23.33-.23s.34.05.34.23v2.64c0,.07,0,.08.08.08Z"/><path class="cls-2" d="M5.08.08c.18,0,.37.06.37.3V6.79c0,.25-.22.35-.48.35a.57.57,0,0,1-.53-.29L1.31,1.39a8.26,8.26,0,0,1,.07,1.05V6.85c0,.23-.2.29-.37.29S.64,7.08.64,6.85V.45c0-.27.23-.37.48-.37a.52.52,0,0,1,.52.3L4.81,5.9a11.24,11.24,0,0,1-.1-1.34V.38C4.71.19,4.88.08,5.08.08Z"/><path class="cls-2" d="M7.41,2.17v3c0,.7.1,1.32.91,1.32A1.65,1.65,0,0,0,9.77,4.7V2.17c0-.28.2-.34.4-.34s.39.06.39.34V6.76c0,.26-.2.34-.39.34S9.83,7,9.83,6.76V6.07A1.8,1.8,0,0,1,8.19,7.15c-1.14,0-1.56-.81-1.56-1.91V2.17c0-.28.19-.34.39-.34S7.41,1.92,7.41,2.17Z"/><path class="cls-2" d="M12.29,1.92v-1c0-.27.2-.34.38-.34s.39.07.39.34v1H14c.22,0,.28.16.28.32s-.06.31-.28.31h-.94V5.46c0,.48.15,1,.74,1a2.46,2.46,0,0,0,.37,0c.19-.05.34,0,.35.22s0,.33-.23.4a1.52,1.52,0,0,1-.46.08c-1.25,0-1.54-.72-1.54-1.64V2.55h-.67c-.21,0-.27-.15-.27-.31s.06-.32.27-.32Z"/><path class="cls-2" d="M16.08,4.48V6.82c0,.26-.19.33-.39.33s-.38-.07-.38-.33V2.17c0-.28.18-.34.36-.34s.37.06.37.34v.68a1.66,1.66,0,0,1,1.49-1.06.34.34,0,0,1,.36.4c0,.27-.13.34-.36.36C16.46,2.62,16.08,3.59,16.08,4.48Z"/><path class="cls-2" d="M19.72.56c0,.3-.08.52-.46.52s-.47-.22-.47-.52.1-.49.47-.49S19.72.27,19.72.56Zm-.08,6.26c0,.26-.19.33-.38.33s-.39-.07-.39-.33V2.17c0-.28.19-.34.39-.34s.38.06.38.34Z"/><path class="cls-2" d="M21.46,1.92v-1c0-.27.19-.34.38-.34s.39.07.39.34v1h.94c.22,0,.28.16.28.32s-.06.31-.28.31h-.94V5.46c0,.48.15,1,.74,1a2.46,2.46,0,0,0,.37,0c.19-.05.33,0,.34.22s0,.33-.22.4A1.52,1.52,0,0,1,23,7.1c-1.26,0-1.54-.72-1.54-1.64V2.55h-.67c-.21,0-.27-.15-.27-.31s.06-.32.27-.32Z"/><path class="cls-2" d="M25.41.56c0,.3-.08.52-.47.52s-.46-.22-.46-.52.1-.49.46-.49S25.41.27,25.41.56Zm-.08,6.26c0,.26-.2.33-.39.33s-.38-.07-.38-.33V2.17c0-.28.18-.34.38-.34s.39.06.39.34Z"/><path class="cls-2" d="M28.6,1.83c1.61,0,2.18,1.1,2.18,2.67s-.57,2.65-2.18,2.65S26.4,6.06,26.4,4.5,27,1.83,28.6,1.83Zm0,.56c-1.15,0-1.38,1.17-1.38,2.11s.23,2.11,1.38,2.11S30,5.44,30,4.5,29.74,2.39,28.6,2.39Z"/><path class="cls-2" d="M34,2.51a1.63,1.63,0,0,0-1.46,1.77V6.82c0,.26-.19.33-.39.33s-.39-.07-.39-.33V2.16c0-.27.17-.33.37-.33s.36.06.36.33v.75a1.78,1.78,0,0,1,1.67-1.08A1.56,1.56,0,0,1,35.7,3.59V6.82c0,.26-.2.33-.39.33s-.39-.07-.39-.33V3.64C34.92,3.15,34.75,2.51,34,2.51Z"/><path class="cls-2" d="M40.88.56c0,.3-.08.52-.46.52S40,.86,40,.56s.1-.49.47-.49S40.88.27,40.88.56ZM40.8,6.82c0,.26-.19.33-.38.33S40,7.08,40,6.82V2.17c0-.28.19-.34.39-.34s.38.06.38.34Z"/><path class="cls-2" d="M44.41,2.51a1.64,1.64,0,0,0-1.47,1.77V6.82c0,.26-.19.33-.38.33s-.39-.07-.39-.33V2.16c0-.27.17-.33.37-.33s.35.06.35.33v.75a1.79,1.79,0,0,1,1.68-1.08,1.56,1.56,0,0,1,1.52,1.76V6.82c0,.26-.2.33-.38.33s-.39-.07-.39-.33V3.64C45.32,3.15,45.15,2.51,44.41,2.51Z"/><path class="cls-2" d="M50,.46c0,.18-.09.28-.28.26a3.73,3.73,0,0,0-.46,0,.73.73,0,0,0-.8.84v.39h1c.22,0,.28.16.28.32s-.06.31-.28.31h-1V6.81c0,.26-.2.33-.39.33s-.38-.07-.38-.33V2.54h-.63c-.22,0-.27-.15-.27-.31s0-.32.27-.32h.63V1.52c0-.92.39-1.58,1.62-1.52a3,3,0,0,1,.49.07C50,.12,50,.26,50,.46Z"/><path class="cls-2" d="M52.7,1.83c1.61,0,2.18,1.1,2.18,2.67s-.57,2.65-2.18,2.65S50.5,6.06,50.5,4.5,51.07,1.83,52.7,1.83Zm0,.56c-1.15,0-1.38,1.17-1.38,2.11s.23,2.11,1.38,2.11,1.37-1.17,1.37-2.11S53.84,2.39,52.7,2.39Z"/><path class="cls-2" d="M56.65,4.48V6.82c0,.26-.19.33-.39.33s-.39-.07-.39-.33V2.17c0-.28.18-.34.37-.34s.37.06.37.34v.68a1.65,1.65,0,0,1,1.48-1.06.34.34,0,0,1,.37.4c0,.27-.13.34-.37.36C57,2.62,56.65,3.59,56.65,4.48Z"/><path class="cls-2" d="M64.61,1.83c1.3,0,1.44,1.15,1.44,1.76V6.82c0,.26-.18.33-.38.33s-.39-.07-.39-.33V3.64c0-.49-.09-1.13-.83-1.13A1.49,1.49,0,0,0,63.09,4V6.82c0,.26-.19.33-.38.33s-.39-.07-.39-.33v-3c0-.5-.09-1.27-.83-1.27a1.47,1.47,0,0,0-1.36,1.57V6.82c0,.26-.2.33-.38.33s-.39-.07-.39-.33V2.22c0-.27.18-.33.38-.33s.34.06.34.33v.69a1.66,1.66,0,0,1,1.57-1.08A1.45,1.45,0,0,1,63,2.91,1.85,1.85,0,0,1,64.61,1.83Z"/><path class="cls-2" d="M70.2,6.13a1.77,1.77,0,0,1-1.74,1.06,1.48,1.48,0,0,1-1.61-1.55c0-1.54,1.56-1.78,2.7-1.78l.65,0A3.17,3.17,0,0,0,70.11,3c-.15-.47-.73-.59-1.17-.59a1.66,1.66,0,0,0-1.09.38.39.39,0,0,1-.52,0c-.14-.12-.19-.31,0-.52a2.53,2.53,0,0,1,1.68-.46c1.39,0,1.9.71,1.9,2.09V6.05a4.5,4.5,0,0,0,0,.65c0,.29-.1.35-.27.38S70.3,7,70.26,6.8A3.17,3.17,0,0,1,70.2,6.13Zm-.71-1.69c-.77,0-1.81.21-1.81,1.23a.85.85,0,0,0,.94.91,1.46,1.46,0,0,0,1.15-.53,2.09,2.09,0,0,0,.43-1.58Z"/><path class="cls-2" d="M72.64,1.92v-1c0-.27.19-.34.38-.34s.39.07.39.34v1h.94c.22,0,.28.16.28.32s-.06.31-.28.31h-.94V5.46c0,.48.15,1,.74,1a2.46,2.46,0,0,0,.37,0c.19-.05.34,0,.35.22s0,.33-.23.4a1.52,1.52,0,0,1-.46.08c-1.26,0-1.54-.72-1.54-1.64V2.55H72c-.21,0-.27-.15-.27-.31s.06-.32.27-.32Z"/><path class="cls-2" d="M76.59.56c0,.3-.08.52-.47.52s-.46-.22-.46-.52.1-.49.46-.49S76.59.27,76.59.56Zm-.08,6.26c0,.26-.2.33-.39.33s-.38-.07-.38-.33V2.17c0-.28.18-.34.38-.34s.39.06.39.34Z"/><path class="cls-2" d="M79.78,1.83C81.39,1.83,82,2.93,82,4.5s-.57,2.65-2.18,2.65-2.2-1.09-2.2-2.65S78.15,1.83,79.78,1.83Zm0,.56c-1.15,0-1.38,1.17-1.38,2.11s.23,2.11,1.38,2.11,1.37-1.17,1.37-2.11S80.92,2.39,79.78,2.39Z"/><path class="cls-2" d="M85.19,2.51a1.63,1.63,0,0,0-1.46,1.77V6.82c0,.26-.19.33-.39.33S83,7.08,83,6.82V2.16c0-.27.17-.33.37-.33s.36.06.36.33v.75a1.78,1.78,0,0,1,1.67-1.08,1.56,1.56,0,0,1,1.53,1.76V6.82c0,.26-.2.33-.39.33s-.39-.07-.39-.33V3.64C86.1,3.15,85.93,2.51,85.19,2.51Z"/><path class="cls-2" d="M3.12,10.29c.19,0,.24.13.24.28s0,.26-.24.26H2V15c0,.21-.16.26-.31.26s-.29,0-.29-.26v-4.2H.35c-.19,0-.24-.13-.24-.26s.05-.28.24-.28Z"/><path class="cls-2" d="M4,16.46a.26.26,0,0,1-.18-.31c0-.21.19-.21.29-.18.33.07.42-.14.51-.38l.16-.51L3.6,11.74c-.07-.17.09-.24.26-.24a.32.32,0,0,1,.33.24L5,13.93c0,.12.09.29.13.45a3.47,3.47,0,0,1,.13-.46L6,11.74a.3.3,0,0,1,.32-.24c.17,0,.35.07.29.24L5.21,15.58C5,16.06,4.82,16.62,4,16.46Z"/><path class="cls-2" d="M7.68,12.14a1.28,1.28,0,0,1,1.12-.66c1.07,0,1.38.89,1.38,1.92s-.38,1.92-1.45,1.92a1.21,1.21,0,0,1-1-.57V16.3c0,.19-.14.24-.28.24s-.28-.05-.28-.24V11.74c0-.19.13-.24.27-.24a.22.22,0,0,1,.25.24Zm1,2.69c.77,0,.87-.8.87-1.43S9.47,12,8.7,12a1.07,1.07,0,0,0-1,1.2v.35C7.72,14.1,8,14.83,8.7,14.83Z"/><path class="cls-2" d="M11.55,10.6c0,.21-.06.37-.33.37s-.33-.16-.33-.37.07-.34.33-.34S11.55,10.4,11.55,10.6Zm-.06,4.46c0,.19-.14.24-.27.24s-.28-.05-.28-.24V11.75c0-.2.14-.25.28-.25s.27.05.27.25Z"/><path class="cls-2" d="M13.81,11.5a1.22,1.22,0,0,1,1.28,1.05c0,.19,0,.28-.21.3a.26.26,0,0,1-.31-.2c-.09-.39-.28-.7-.76-.7-.81,0-1,.81-1,1.46s.16,1.46,1,1.46c.48,0,.67-.32.76-.71,0-.15.14-.21.31-.2s.24.11.21.3a1.22,1.22,0,0,1-1.28,1c-1.15,0-1.56-.78-1.56-1.89S12.66,11.5,13.81,11.5Z"/><path class="cls-2" d="M17.92,14.57a1.27,1.27,0,0,1-1.24.75,1.06,1.06,0,0,1-1.15-1.1c0-1.1,1.11-1.27,1.92-1.27h.47a2,2,0,0,0-.07-.63c-.11-.33-.52-.42-.83-.42a1.2,1.2,0,0,0-.78.27.27.27,0,0,1-.37,0c-.1-.08-.13-.22,0-.36a1.79,1.79,0,0,1,1.2-.34c1,0,1.34.51,1.34,1.49v1.55a3.23,3.23,0,0,0,0,.46c0,.21-.08.25-.2.28A.26.26,0,0,1,18,15,2.3,2.3,0,0,1,17.92,14.57Zm-.51-1.21c-.55,0-1.29.15-1.29.88a.61.61,0,0,0,.67.65,1,1,0,0,0,.82-.38,1.47,1.47,0,0,0,.31-1.12Z"/><path class="cls-2" d="M19.89,15.06c0,.19-.14.24-.28.24s-.27-.05-.27-.24V10.5c0-.19.14-.24.27-.24s.28.05.28.24Z"/><path class="cls-2" d="M23.82,15.05l-1.15-3.27c-.07-.21,0-.28.22-.28s.25.07.31.25l.8,2.33a2.74,2.74,0,0,1,.14.5,4.06,4.06,0,0,1,.14-.51l.8-2.32a.3.3,0,0,1,.34-.25c.2,0,.25.09.19.28l-1.15,3.27a.31.31,0,0,1-.32.23A.32.32,0,0,1,23.82,15.05Z"/><path class="cls-2" d="M28.31,14.57a1.27,1.27,0,0,1-1.24.75,1.06,1.06,0,0,1-1.15-1.1c0-1.1,1.11-1.27,1.92-1.27h.47a2.41,2.41,0,0,0-.06-.63c-.12-.33-.53-.42-.84-.42a1.2,1.2,0,0,0-.78.27.26.26,0,0,1-.36,0c-.1-.08-.14-.22,0-.36a1.79,1.79,0,0,1,1.2-.34c1,0,1.35.51,1.35,1.49v1.55a3.32,3.32,0,0,0,0,.46c0,.21-.07.25-.19.28a.27.27,0,0,1-.33-.21A2.3,2.3,0,0,1,28.31,14.57Zm-.51-1.21c-.55,0-1.29.15-1.29.88a.61.61,0,0,0,.67.65,1,1,0,0,0,.82-.38,1.47,1.47,0,0,0,.31-1.12Z"/><path class="cls-2" d="M30.28,15.06c0,.19-.13.24-.28.24s-.27-.05-.27-.24V10.5c0-.19.14-.24.27-.24s.28.05.28.24Z"/><path class="cls-2" d="M31.68,11.75v2.14c0,.5.07.94.65.94s1-.68,1-1.28v-1.8c0-.2.14-.25.28-.25s.28.05.28.25V15c0,.19-.14.25-.28.25s-.24,0-.24-.25v-.48a1.29,1.29,0,0,1-1.17.77c-.81,0-1.1-.58-1.1-1.37V11.75c0-.2.13-.25.27-.25S31.68,11.57,31.68,11.75Z"/><path class="cls-2" d="M36.25,15.32c-1.12,0-1.62-.91-1.62-1.91s.46-1.94,1.62-1.94A1.38,1.38,0,0,1,37.7,13c0,.25-.05.49-.58.49H35.25c0,.7.25,1.4,1,1.4a.85.85,0,0,0,.86-.63.31.31,0,0,1,.31-.18.22.22,0,0,1,.21.28A1.37,1.37,0,0,1,36.25,15.32Zm0-3.42a1.11,1.11,0,0,0-1,1.13H37c.09,0,.15,0,.14-.17A.87.87,0,0,0,36.27,11.9Z"/><path class="cls-2" d="M38.42,14c.16,0,.3,0,.34.2.11.44.36.67,1,.67a.7.7,0,0,0,.74-.63c0-.47-.54-.57-.91-.64-.61-.12-1.33-.26-1.33-1.06a1.17,1.17,0,0,1,1.31-1.08c.72,0,1.17.24,1.32.82.06.21,0,.28-.26.28s-.26-.05-.28-.16c-.06-.34-.34-.5-.76-.5s-.78.16-.78.57.56.52.9.57c.65.12,1.36.3,1.36,1.15s-.73,1.12-1.39,1.12c-.84,0-1.34-.39-1.44-1A.22.22,0,0,1,38.42,14Z"/><path class="cls-2" d="M44.39,12.14a1.28,1.28,0,0,1,1.12-.66c1.07,0,1.38.89,1.38,1.92s-.39,1.92-1.46,1.92a1.24,1.24,0,0,1-1-.57V16.3c0,.19-.14.24-.28.24s-.27-.05-.27-.24V11.74c0-.19.13-.24.27-.24a.22.22,0,0,1,.25.24Zm1,2.69c.76,0,.87-.8.87-1.43S46.17,12,45.41,12a1.08,1.08,0,0,0-1,1.2v.35C44.42,14.1,44.73,14.83,45.41,14.83Z"/><path class="cls-2" d="M49,15.32c-1.12,0-1.62-.91-1.62-1.91s.46-1.94,1.61-1.94A1.38,1.38,0,0,1,50.46,13c0,.25-.05.49-.58.49H48c0,.7.26,1.4,1,1.4a.86.86,0,0,0,.86-.63.29.29,0,0,1,.31-.18.21.21,0,0,1,.2.28A1.35,1.35,0,0,1,49,15.32Zm0-3.42A1.09,1.09,0,0,0,48,13h1.75c.09,0,.16,0,.15-.17A.88.88,0,0,0,49,11.9Z"/><path class="cls-2" d="M51.72,13.39v1.67c0,.19-.13.24-.27.24s-.28-.05-.28-.24V11.75a.23.23,0,0,1,.26-.25c.14,0,.26.05.26.25v.48a1.18,1.18,0,0,1,1.06-.76.25.25,0,0,1,.26.29c0,.19-.09.24-.26.26C52,12.07,51.72,12.76,51.72,13.39Z"/><path class="cls-2" d="M57.31,15.08c0,.2-.15.26-.31.26s-.29-.06-.29-.26V10.94a2,2,0,0,1-.36.21l-.43.23c-.26.13-.35,0-.39-.14a.28.28,0,0,1,.17-.31l1-.57a.59.59,0,0,1,.29-.1c.16,0,.29.08.29.27Z"/><path class="cls-2" d="M59.76,15.3c-1.2,0-1.71-1.05-1.71-2.55s.45-2.54,1.71-2.54,1.71,1,1.71,2.54S61,15.3,59.76,15.3Zm0-.46c1,0,1.07-1.16,1.07-2.09s-.07-2.08-1.07-2.08-1.07,1.16-1.07,2.08S58.78,14.84,59.76,14.84Z"/><path class="cls-2" d="M63.74,15.3c-1.2,0-1.7-1.05-1.7-2.55s.45-2.54,1.7-2.54,1.71,1,1.71,2.54S64.94,15.3,63.74,15.3Zm0-.46c1,0,1.07-1.16,1.07-2.09s-.06-2.08-1.07-2.08-1.06,1.16-1.06,2.08S62.77,14.84,63.74,14.84Z"/><path class="cls-2" d="M68.74,11.5c.14,0,.26.05.26.25v3.13a1.52,1.52,0,0,1-1.33,1.64,2.78,2.78,0,0,1-1.15-.09c-.17-.06-.24-.12-.22-.3s.14-.24.31-.19a2.43,2.43,0,0,0,1,.1,1,1,0,0,0,.84-1.17V14.7a1.2,1.2,0,0,1-1,.55c-1.06,0-1.44-.82-1.44-1.85s.38-1.92,1.45-1.92a1.21,1.21,0,0,1,1,.61v-.34C68.48,11.55,68.6,11.5,68.74,11.5Zm-.29,2.05v-.33c0-.59-.26-1.25-1-1.25s-.91.79-.91,1.43.12,1.36.88,1.36S68.45,14.15,68.45,13.55Z"/></g></g></svg>