<?xml version="1.0" encoding="UTF-8" standalone="no"?>
<svg
   data-name="Слой 1"
   version="1.1"
   viewBox="0 0 318.01 186.27"
   id="svg553"
   sodipodi:docname="hand.svg"
   inkscape:version="1.2 (1:1.2.1+202207142221+cd75a1ee6d)"
   xmlns:inkscape="http://www.inkscape.org/namespaces/inkscape"
   xmlns:sodipodi="http://sodipodi.sourceforge.net/DTD/sodipodi-0.dtd"
   xmlns="http://www.w3.org/2000/svg"
   xmlns:svg="http://www.w3.org/2000/svg">
  <sodipodi:namedview
     id="namedview555"
     pagecolor="#ffffff"
     bordercolor="#999999"
     borderopacity="1"
     inkscape:showpageshadow="0"
     inkscape:pageopacity="0"
     inkscape:pagecheckerboard="0"
     inkscape:deskcolor="#d1d1d1"
     showgrid="false"
     inkscape:zoom="1.374349"
     inkscape:cx="76.035998"
     inkscape:cy="68.396017"
     inkscape:window-width="1366"
     inkscape:window-height="696"
     inkscape:window-x="0"
     inkscape:window-y="0"
     inkscape:window-maximized="1"
     inkscape:current-layer="svg553" />
  <defs
     id="defs527">
    <style
       id="style525">.cls-1,.cls-2,.cls-3{fill:#1f335c;}.cls-1{stroke:#1f335c;stroke-miterlimit:10;}.cls-2{fill-rule:evenodd;}</style>
  </defs>
  <path
     class="cls-2"
     d="M 128.28551,60.521775 A 32.648263,30.054265 0 0 1 120.75601,59.807986 36.157952,33.285098 0 0 1 96.086162,42.526784 48.972395,45.081397 0 0 1 91.127707,30.260887 60.889011,56.051203 0 0 1 89.801371,14.801725 C 89.985019,11.833867 90.35231,8.640601 90.964466,4.7523305 l 0.306077,-1.7093363 a 24.955516,22.972728 0 0 0 1.877276,3.0054265 43.360974,39.91582 0 0 0 15.181441,12.0592733 c 1.28553,0.676221 2.89753,1.446361 4.67279,2.310422 a 132.63357,122.09545 0 0 1 12.24309,6.442883 38.973864,35.877279 0 0 1 8.06005,6.799777 26.526713,24.419089 0 0 1 5.59101,11.270349 22.44568,20.662306 0 0 1 -1.44877,9.504662 20.996914,19.328649 0 0 1 -0.95905,2.254069 c -0.40809,-0.732572 -0.83661,-1.446361 -1.30592,-2.141366 A 63.133578,58.117434 0 0 0 121.98032,41.099207 c -2.20376,-1.746905 -4.48914,-3.437457 -6.7133,-5.090442 -2.71389,-2.009879 -5.5298,-4.094893 -8.16207,-6.273827 a 45.421897,41.812996 0 0 1 -4.89724,-4.433005 22.670138,20.86893 0 0 1 -2.958747,-4.22638 l -3.468879,-6.874913 1.550793,7.513567 a 16.466967,15.15862 0 0 0 2.652672,5.409766 l 0.265271,0.413246 a 50.115083,46.133296 0 0 0 8.85584,9.54223 c 1.63241,1.427577 3.34645,2.798803 5.04007,4.188813 2.81591,2.291638 5.75426,4.677194 8.34572,7.250591 a 28.873308,26.57924 0 0 1 7.75396,12.078058 c -0.63257,-0.07513 -1.28553,-0.07513 -1.9589,-0.07513 z"
     id="path529"
     style="stroke-width:1.95778" />
  <path
     class="cls-2"
     d="m 158.24029,179.74329 c -2.04051,0 -3.89738,-0.13149 -5.85628,-0.26298 -3.9178,-0.15027 -7.9172,-0.39446 -11.75338,-0.63866 l -4.18305,-0.26297 h -0.71419 c -5.67264,-0.30054 -11.08,-0.60108 -16.32412,-0.99555 h -1.08148 -0.85702 l -2.57105,-0.15026 c -1.40795,0 -2.7955,-0.13149 -4.18305,-0.2442 l -12.834853,-1.40879 c -0.877423,0 -1.673224,-0.13149 -2.489431,-0.22541 -3.346447,-0.35689 -6.346006,-0.695 -9.40678,-1.12703 l -0.714181,-0.11271 -0.918233,-0.13149 c -0.306076,0 -0.775396,-0.13149 -1.22431,-0.20662 a 4.7339981,4.3578683 0 0 1 -0.652965,-0.1127 50.278325,46.283567 0 0 1 -5.509393,-1.35244 67.214612,61.874217 0 0 1 -11.630945,-4.39544 c -9.672047,-4.58328 -19.303285,-9.59858 -28.567231,-14.46361 l -1.081473,-0.54474 A 101.67893,93.600249 0 0 1 15.036848,140.10922 C 11.792427,137.29164 8.5684116,134.1735 7.7113949,129.75929 a 45.850405,42.207458 0 0 1 -0.5509396,-8.71574 19.425717,17.882288 0 0 1 1.4079563,-5.33463 13.508219,12.434951 0 0 1 10.3862284,-7.1191 l 1.367146,-0.26298 a 11.26365,10.368721 0 0 1 1.448767,0 17.772899,16.360791 0 0 1 6.998972,1.87839 c 2.040516,0.80771 4.081033,1.50271 6.019523,2.16015 l 1.632414,0.54473 0.346886,-0.13149 a 8.5701691,7.8892444 0 0 1 2.183353,-0.50716 l -0.510128,1.39001 0.775396,0.28176 a 7.4682901,6.874913 0 0 1 0.938638,0.33811 65.70463,60.484207 0 0 1 17.487225,11.909 7.8355833,7.2130235 0 0 0 1.244715,0.92042 q 0.550939,0.31933 1.10188,0.56351 a 4.0810329,3.7567831 0 0 0 0.795801,0.28176 l 12.712417,2.94908 -1.224309,-0.13149 c -2.040517,-0.22541 -3.897387,-0.50717 -5.856283,-0.78892 -1.958896,-0.28177 -4.468731,-0.63865 -6.713299,-0.86406 a 8.8354362,8.1334353 0 0 1 -4.427921,-1.8784 129.16469,118.90219 0 0 0 -11.120814,-7.19424 50.278325,46.283567 0 0 0 -13.365383,-4.92138 c -1.428362,-0.35689 -2.877129,-0.71379 -4.285085,-1.10825 a 15.548735,14.313343 0 0 0 -2.366998,-0.52595 h -0.306078 v 0 h -0.632561 -1.081473 -0.591749 a 2.5914559,2.3855572 0 0 0 -0.571345,0 9.5700222,8.8096563 0 0 0 -4.550351,1.29608 7.4070747,6.8185613 0 0 0 -2.040517,2.06624 13.018495,11.984138 0 0 0 -0.734587,9.63614 18.711535,17.22485 0 0 0 7.549912,8.95993 201.09289,185.11548 0 0 0 28.403989,15.85363 c 6.815325,3.24962 13.651055,6.4241 20.405165,9.61736 l 1.816058,0.86407 a 36.096737,33.228747 0 0 0 11.855401,4.0761 c 1.673223,0.18784 3.326042,0.41324 4.97886,0.63865 1.652818,0.22541 3.75455,0.50717 5.631825,0.69501 5.101291,0.54474 11.161628,1.1646 17.344388,1.69055 l 2.04052,0.15028 1.40795,0.11269 c 1.85688,0 3.65253,0.15028 5.40738,0.31934 l 1.06107,0.11269 1.69362,0.15028 2.04052,0.15027 4.40752,0.30054 c 0.95904,0 2.0405,0.11271 2.93834,0.15027 0.89783,0.0375 2.3874,0.1127 3.5913,0.22541 l 9.46801,0.93919 4.08103,0.39447 2.28537,0.20662 h 0.71419 a 45.666759,42.038403 0 0 0 4.73399,0.20663 61.603192,56.70864 0 0 0 6.30519,-0.30054 c 3.28524,-0.43204 6.46844,-1.03313 9.4272,-1.61542 1.42835,-0.28177 43.58542,-12.35982 81.17174,-23.14179 -28.26115,10.76318 -76.02964,28.88966 -78.58029,29.5471 l -1.26512,0.31933 a 56.950813,52.425908 0 0 1 -15.58955,2.70488 z M 83.965494,127.84333 c -4.081033,-0.4696 -8.162066,-0.97676 -12.059452,-1.74691 a 42.218285,38.863921 0 0 1 -10.508659,-3.13691 c -2.693482,-1.25853 -5.346154,-2.7988 -7.896799,-4.28273 -1.85687,-1.08947 -3.795361,-2.19773 -5.73385,-3.23084 l -1.040665,-0.54473 a 41.626536,38.319187 0 0 0 -6.692895,-3.04299 16.038459,14.764158 0 0 1 2.224164,0.18783 38.198468,35.16349 0 0 1 13.793891,4.88382 c 1.387551,0.73257 2.795508,1.42758 4.183059,2.08502 h -0.142836 l 4.081033,1.87839 a 45.891214,42.245025 0 0 0 6.774515,2.40434 c 3.815766,1.05189 7.651937,2.4419 11.345271,3.75678 l 2.815913,1.03311 z m 7.019377,-3.21205 -2.958749,-0.77014 -3.754551,-1.0519 c -3.32604,-0.92041 -6.754109,-1.87839 -10.202581,-2.49827 l -1.938491,-0.37567 a 35.749849,32.909419 0 0 0 -7.264239,-0.92041 h -1.754844 a 5.2645324,4.8462501 0 0 1 1.448767,-0.50717 h 0.306077 a 11.528918,10.612912 0 0 1 2.366999,-0.37568 h 0.448913 c 1.02026,0 2.040518,-0.15027 2.856725,-0.15027 a 27.383731,25.208014 0 0 1 8.162065,1.20217 47.625654,43.841658 0 0 1 13.038899,5.63518 z"
     id="path533"
     style="stroke-width:1.95778" />
  <path
     class="cls-2"
     d="m 97.024799,162.2179 a 24.486197,22.540698 0 0 1 -3.897387,-0.28177 10.794332,9.9366911 0 0 1 -8.162064,-5.09044 19.038018,17.525393 0 0 1 -2.32619,-11.42062 c 0.673372,-4.07611 1.632413,-8.30249 5.203317,-11.10129 0.469319,-0.33811 0.959043,-0.65744 1.489578,-0.99555 l 0.163242,-0.1127 v 0 l 0.857015,-0.50717 0.510129,-0.30054 c 0.306078,-0.20662 0.571346,-0.3569 0.836613,-0.50716 l 0.979448,-0.56352 0.530534,-0.31933 c 2.142542,-1.44637 8.896656,-4.97773 12.243096,-6.6683 l 1.1631,-0.61986 a 333.21633,306.74134 0 0 1 31.42395,-12.4913 l 1.55079,-0.45082 1.34674,-0.39446 0.63256,-0.20662 v -0.61988 c 0.10199,-1.44635 0.28567,-2.74245 0.48972,-4.22637 0.20405,-1.48393 0.48973,-3.6253 0.67338,-6.179911 a 135.85758,125.06331 0 0 0 0.16325,-16.360791 57.134461,52.594963 0 0 0 -3.5505,-15.421593 54.196116,49.890079 0 0 1 3.73412,9.617364 94.210645,86.725336 0 0 1 2.04053,13.693474 2.1629475,1.991095 0 0 0 0.55095,1.521497 l 0.8366,0.807708 0.73459,-0.901627 c 0.18365,-0.225408 0.26526,-0.356895 0.34688,-0.469598 a 39.07589,35.971198 0 0 1 2.3874,-3.756784 q -0.8366,1.39001 -1.53037,2.817588 a 27.363325,25.18923 0 0 0 -2.95876,10.462643 c 0,1.69055 0,3.06178 0,4.24516 0,0.8265 0,3.56895 0,3.56895 l 3.65253,-1.08947 c 1.24471,-0.39446 2.48943,-0.77014 3.73415,-1.10825 2.87712,-0.8265 5.75425,-1.61542 8.63138,-2.38556 l 8.79462,-2.44191 0.71419,-0.18784 c 0.69378,-0.18784 1.40795,-0.39446 2.04051,-0.61987 l 0.59174,-0.20662 0.3265,-0.15027 h 0.28567 l 0.20405,-0.13149 a 7.4274799,6.8373452 0 0 0 1.06107,-0.65744 125.69581,115.70892 0 0 1 24.48619,-15.290103 c 2.24457,-1.033115 4.59117,-2.028662 7.10101,-3.005425 l 1.12227,-0.469598 a 35.831469,32.984555 0 0 1 3.95862,-1.48393 106.59658,98.127173 0 0 1 33.48486,-5.522471 109.02479,100.36246 0 0 1 17.71168,1.408794 87.742207,80.770836 0 0 1 16.34455,4.132462 46.544179,42.846111 0 0 0 13.52862,3.042994 h 0.75499 a 35.015263,32.233199 0 0 1 -5.12169,0.375677 v 0 a 31.260712,28.776958 0 0 1 -7.36628,-0.845275 120.39048,110.8251 0 0 0 -28.81209,-3.625297 c -2.18335,0 -4.22387,0 -6.22357,0.244191 a 121.57397,111.91456 0 0 0 -26.52672,5.221929 124.00219,114.14985 0 0 0 -21.44581,9.767636 142.61169,131.28078 0 0 0 -15.97726,11.270346 l -0.65296,0.52595 a 7.6111264,7.0064004 0 0 0 -0.61215,0.48839 4.4891362,4.1324614 0 0 0 -0.59175,0.43203 2.6526713,2.4419089 0 0 0 -0.38771,0.28175 l -0.22445,0.16906 a 16.977097,15.628217 0 0 1 -7.22342,3.13691 l -2.04053,0.39446 -1.14268,0.26298 c -0.65296,0.15027 -1.32634,0.30054 -2.04052,0.48838 -0.71418,0.18784 -0.95905,0.24419 -1.48957,0.39446 l -1.14269,0.31933 -5.32576,1.65299 c -10.20258,3.15569 -20.73165,6.44287 -31.03626,9.86155 l -0.91822,0.31932 c -1.1631,0.39446 -2.28538,0.78893 -3.40766,1.22096 l -1.14269,0.45081 c -1.40796,0.54474 -2.81592,1.10826 -4.20346,1.72812 -4.7136,2.08502 -9.42719,4.43301 -13.97755,6.68708 -2.95874,1.48392 -5.917495,2.94908 -8.896648,4.35786 l -0.734586,0.41326 -1.081474,0.61987 c -0.183646,0.1127 -0.367293,0.26296 -0.571344,0.41324 l -0.244863,0.20662 a 11.508513,10.594128 0 0 0 -3.407662,6.40532 11.161625,10.274802 0 0 0 2.48943,7.87046 7.3050489,6.7246417 0 0 0 5.631826,2.55461 5.8766874,5.4097675 0 0 0 0.836612,0 55.338807,50.941978 0 0 0 7.243829,-1.18339 c 0.7754,-0.24419 19.32369,-5.33463 21.77232,-5.93571 4.34629,-1.08947 8.81503,-1.8784 13.14093,-2.76124 h 0.22444 c 4.34631,-0.84527 10.08016,-1.87839 15.93644,-2.85516 2.81591,-0.45081 5.87668,-0.82649 9.52921,-1.18338 l -4.89724,1.27731 c -8.16206,2.12258 -16.44656,4.30151 -24.62902,6.70586 -5.40738,1.61541 -10.87597,3.45623 -16.16091,5.22192 -3.95859,1.33366 -8.03963,2.70488 -12.05944,3.96341 a 37.280235,34.318213 0 0 1 -12.079861,2.08502 z"
     id="path537"
     style="stroke-width:1.95778" />
  <g
     id="g560"
     transform="matrix(2.0405165,0,0,1.8783915,-171.11946,0)">
    <path
       class="cls-3"
       transform="translate(-42.05,-31.78)"
       d="m 170.87,34.92 0.24,0.36 c 0.2,0.29 0.41,0.58 0.63,0.86 l 1.37,7.22 a 9.07,9.07 0 0 0 1.37,3.06 l 0.13,0.19 a 24.15,24.15 0 0 0 4.43,5.2 c 0.81,0.77 1.66,1.51 2.47,2.24 1.38,1.22 2.81,2.48 4.07,3.83 a 14.28,14.28 0 0 1 3.51,5.61 h -0.31 a 15.63,15.63 0 0 1 -3.58,-0.37 17.2,17.2 0 0 1 -11.8,-8.94 23.46,23.46 0 0 1 -2.4,-6.41 29.14,29.14 0 0 1 -0.64,-8.08 c 0.08,-1.42 0.23,-2.95 0.49,-4.77 m 1.31,1.76 a 23.25,23.25 0 0 0 6.53,5.18 c 0.65,0.36 1.45,0.78 2.31,1.23 a 68.74,68.74 0 0 1 6,3.4 18.47,18.47 0 0 1 3.85,3.51 12.52,12.52 0 0 1 2.63,5.76 10.6,10.6 0 0 1 -0.69,4.83 1.18,1.18 0 0 1 -0.07,0.2 l -0.14,-0.22 A 31.15,31.15 0 0 0 186,53.32 c -1.09,-0.94 -2.21,-1.85 -3.3,-2.72 -1.33,-1.08 -2.7,-2.18 -4,-3.33 A 21.25,21.25 0 0 1 176.38,44.94 11.26,11.26 0 0 1 175,42.76 l -2.82,-6.08 m -1.82,-4.9 c -0.13,0.82 -0.28,1.63 -0.4,2.46 -0.26,1.79 -0.48,3.58 -0.58,5.4 A 30.07,30.07 0 0 0 170,48 a 24.7,24.7 0 0 0 2.49,6.68 18.32,18.32 0 0 0 12.51,9.42 16.68,16.68 0 0 0 3.8,0.39 c 0.34,0 0.68,0 1,0 0.32,0 0.53,-0.19 0.43,-0.6 a 14.67,14.67 0 0 0 -3.93,-6.67 c -2,-2.2 -4.4,-4.06 -6.58,-6.12 a 23.37,23.37 0 0 1 -4.25,-5 8.49,8.49 0 0 1 -1.37,-2.93 12,12 0 0 0 1.53,2.38 22.39,22.39 0 0 0 2.42,2.45 c 2.36,2.11 4.9,4 7.3,6.06 a 30.65,30.65 0 0 1 6.38,7 c 0.37,0.61 0.69,1.24 1,1.9 a 7.68,7.68 0 0 0 1,-2 11.72,11.72 0 0 0 0.73,-5.29 13.53,13.53 0 0 0 -2.87,-6.3 19.61,19.61 0 0 0 -4,-3.71 c -2.67,-1.8 -6.32,-3.52 -8.36,-4.67 a 21,21 0 0 1 -7.27,-6.28 21.62,21.62 0 0 1 -1.57,-2.93 z"
       id="path531" />
    <path
       class="cls-3"
       transform="translate(-42.05,-31.78)"
       d="m 136.51,89.81 a 8.36,8.36 0 0 1 3.22,0.9 c 1,0.45 2,0.81 3,1.17 l 0.61,0.23 0.37,0.13 0.35,-0.15 a 3.82,3.82 0 0 1 0.66,-0.19 l -0.23,0.66 0.41,0.15 0.41,0.17 a 31.76,31.76 0 0 1 8.43,6.23 5,5 0 0 0 0.59,0.5 5.51,5.51 0 0 1 -1.08,-0.66 64.44,64.44 0 0 0 -5.5,-3.86 25.1,25.1 0 0 0 -6.64,-2.5 c -0.7,-0.19 -1.4,-0.38 -2.07,-0.58 a 7.89,7.89 0 0 0 -1.19,-0.3 l -0.06,-0.09 h -0.51 -0.53 -0.64 a 5.38,5.38 0 0 0 -2.48,0.78 v 0 0 a 4.18,4.18 0 0 0 -1.05,1.22 6.88,6.88 0 0 0 -0.41,5.53 9.67,9.67 0 0 0 3.88,5 100.12,100.12 0 0 0 14,8.49 c 3.35,1.72 6.75,3.45 10,5.11 h 0.06 l 0.83,0.43 a 18.3,18.3 0 0 0 6,2.23 c 0.81,0.09 1.62,0.21 2.43,0.33 0.81,0.12 1.84,0.27 2.77,0.38 2.51,0.29 5.49,0.62 8.51,0.89 l 1,0.09 0.69,0.06 h 0.07 c 0.85,0 1.73,0.08 2.58,0.17 l 0.51,0.06 0.85,0.08 1,0.08 2.14,0.16 1.46,0.08 c 0.6,0 1.17,0.06 1.73,0.11 l 4.55,0.49 2.09,0.23 h 0.08 l 1,0.1 h 0.31 0.06 c 0.76,0.07 1.55,0.1 2.34,0.1 a 29.94,29.94 0 0 0 3.18,-0.17 c 1.62,-0.23 3.18,-0.55 4.63,-0.86 0.49,-0.1 9.86,-3 29.16,-9 C 227.31,119.22 213,125.1 212,125.38 l -0.62,0.17 a 27.49,27.49 0 0 1 -7.5,1.42 h -0.4 c -1.06,0 -1.95,-0.08 -2.88,-0.14 -1.91,-0.08 -3.86,-0.21 -5.75,-0.34 l -2.07,-0.14 h -0.25 -0.07 -0.07 c -2.71,-0.15 -5.36,-0.31 -7.95,-0.52 h -0.07 -0.45 -0.46 l -1.25,-0.08 c -0.7,0 -1.36,-0.07 -2,-0.13 -2,-0.22 -4,-0.47 -6.3,-0.75 h -0.05 l -1.18,-0.12 c -1.63,-0.19 -3.1,-0.36 -4.59,-0.6 h -0.33 l -0.43,-0.07 -0.62,-0.11 h -0.1 a 0.9,0.9 0 0 1 -0.16,0 h -0.09 a 24,24 0 0 1 -2.62,-0.7 33,33 0 0 1 -5.61,-2.3 c -4.74,-2.45 -9.48,-5.13 -14.06,-7.72 l -0.48,-0.27 a 49.15,49.15 0 0 1 -10,-6.84 c -1.52,-1.45 -3.05,-3 -3.44,-5.24 a 22.13,22.13 0 0 1 -0.26,-4.54 9.14,9.14 0 0 1 0.66,-2.68 6.17,6.17 0 0 1 4.71,-3.68 l 0.61,-0.12 a 3.39,3.39 0 0 1 0.64,0 m 12.68,2.76 a 22.76,22.76 0 0 1 4,1.89 l 0.37,0.22 h -0.42 l 4.08,1.87 a 23.86,23.86 0 0 0 3.38,1.29 c 1,0.29 1.93,0.63 2.89,1 -0.75,-0.12 -1.49,-0.26 -2.22,-0.41 a 20.07,20.07 0 0 1 -5,-1.62 c -1.31,-0.66 -2.59,-1.47 -3.83,-2.26 -0.92,-0.58 -1.87,-1.18 -2.83,-1.73 l -0.42,-0.24 M 161,95.08 a 12.9,12.9 0 0 1 3.33,0.6 c 0.68,0.21 1.34,0.44 2,0.69 -1.32,-0.39 -2.67,-0.77 -4,-1 l -1,-0.2 -0.32,-0.06 m -24.52,-6.27 a 5.49,5.49 0 0 0 -0.8,0.06 L 135,89 a 7.12,7.12 0 0 0 -5.47,4.1 10.19,10.19 0 0 0 -0.72,3 22.67,22.67 0 0 0 0.28,4.74 c 0.44,2.48 2.05,4.2 3.73,5.79 a 50.77,50.77 0 0 0 10.23,7 c 4.82,2.73 9.65,5.47 14.57,8 a 32.56,32.56 0 0 0 5.77,2.37 22.69,22.69 0 0 0 2.72,0.73 c 0.12,0 0.26,0 0.38,0.08 0.12,0.08 0.43,0.06 0.61,0.1 0.18,0.04 0.53,0.1 0.79,0.13 1.54,0.24 3.09,0.43 4.63,0.61 0.41,0 0.81,0.09 1.22,0.11 q 3.15,0.4 6.3,0.75 c 1.1,0.11 2.2,0.14 3.31,0.21 a 2.82,2.82 0 0 0 0.41,0 c 0.18,0 0.37,0 0.55,0.06 2.65,0.21 5.32,0.37 8,0.52 0.13,0 0.28,0 0.42,0 2.61,0.17 5.21,0.37 7.81,0.48 1,0.07 1.93,0.1 2.89,0.14 h 0.43 a 31.17,31.17 0 0 0 8.39,-1.63 c 1.83,-0.51 48.63,-19.91 48.63,-19.91 v 0 0 c 0,0 -49.08,15.36 -50.12,15.62 -1.51,0.32 -3,0.63 -4.56,0.85 -1,0.1 -2,0.16 -3,0.16 -0.75,0 -1.49,0 -2.24,-0.1 l -0.38,-0.05 -1.12,-0.11 -6.64,-0.72 c -1.07,-0.1 -2.14,-0.12 -3.21,-0.2 -1.07,-0.08 -2.14,-0.16 -3.2,-0.24 -0.45,0 -0.89,-0.09 -1.34,-0.13 -0.88,-0.1 -1.77,-0.14 -2.66,-0.18 l -1.7,-0.14 c -2.83,-0.26 -5.66,-0.57 -8.48,-0.89 -1.74,-0.2 -3.46,-0.51 -5.2,-0.72 -2.35,-0.3 -4.4,-1.5 -6.48,-2.55 -3.37,-1.71 -6.73,-3.41 -10.09,-5.14 a 100,100 0 0 1 -13.85,-8.4 8.68,8.68 0 0 1 -3.52,-4.51 5.93,5.93 0 0 1 0.32,-4.74 3,3 0 0 1 0.79,-0.93 4.25,4.25 0 0 1 2.05,-0.62 h 0.45 0.56 0.37 a 8,8 0 0 1 1.1,0.27 c 2.87,0.87 5.86,1.39 8.5,3 a 62.67,62.67 0 0 1 5.41,3.8 4.88,4.88 0 0 0 2.41,1.07 c 2.07,0.24 4.1,0.63 6.16,0.88 2.06,0.25 5.94,0.63 5.94,0.63 a 1.6,1.6 0 0 0 0.63,-0.1 c -4,-1 -8,-2 -12,-3 a 1,1 0 0 1 -0.31,-0.13 4.59,4.59 0 0 1 -0.49,-0.26 3.56,3.56 0 0 1 -0.53,-0.43 32.92,32.92 0 0 0 -8.72,-6.37 c -0.28,-0.13 -0.57,-0.22 -0.86,-0.34 a 18.8,18.8 0 0 1 4.24,2 c 2.26,1.28 4.39,2.84 6.7,4 A 22.09,22.09 0 0 0 161,99.4 c 2.47,0.52 5,0.81 7.52,1.15 h 0.46 c 0.79,0 0.83,-0.37 0.66,-0.43 -2.94,-1.07 -5.82,-2.36 -8.81,-3.27 a 21.56,21.56 0 0 1 -3.25,-1.24 h 0.07 a 23.54,23.54 0 0 1 4.42,0.68 c 2.3,0.44 4.55,1.23 6.81,1.88 0.92,0.25 1.83,0.53 2.74,0.79 a 1.69,1.69 0 0 0 0.47,0.08 c 0.39,0 0.34,-0.27 0.22,-0.36 a 23.14,23.14 0 0 0 -7.69,-4 13.83,13.83 0 0 0 -4.19,-0.66 13.29,13.29 0 0 0 -1.4,0.08 h -0.26 a 7.19,7.19 0 0 0 -1.23,0.21 0.56,0.56 0 0 1 -0.1,0 3.51,3.51 0 0 0 -1.29,0.58 c -0.84,-0.44 -1.69,-0.87 -2.52,-1.35 a 19.55,19.55 0 0 0 -6.94,-2.67 8.5,8.5 0 0 0 -1.23,-0.1 4.76,4.76 0 0 0 -1.82,0.34 c -1.19,-0.44 -2.38,-0.85 -3.54,-1.37 a 9.12,9.12 0 0 0 -3.63,-1 z"
       id="path535" />
    <path
       class="cls-3"
       transform="translate(-42.05,-31.78)"
       d="m 246.46,71.78 a 53.64,53.64 0 0 1 8.6,0.74 43.48,43.48 0 0 1 7.7,2.19 l 0.83,0.32 a 59,59 0 0 0 -13.87,-1.85 c -1.09,0 -2.1,0 -3.1,0.13 a 50.92,50.92 0 0 0 -23.72,8.07 70.55,70.55 0 0 0 -7.9,6.08 l -0.29,0.25 -0.27,0.23 -0.3,0.24 -0.2,0.16 -0.1,0.08 A 7.7,7.7 0 0 1 210.49,90 l -0.52,0.1 -0.5,0.1 h -0.06 l -0.52,0.13 -1,0.26 c -0.25,0.06 -0.5,0.14 -0.74,0.22 l -0.25,0.08 -0.31,0.09 h -0.05 l -0.42,0.14 -0.74,0.25 -1.38,0.53 c -5,1.68 -10.15,3.43 -15.21,5.26 l -0.43,0.16 c -0.57,0.21 -1.14,0.42 -1.72,0.66 l -0.55,0.24 c -0.68,0.29 -1.38,0.59 -2.07,0.93 -2.33,1.12 -4.64,2.37 -6.88,3.57 -1.42,0.77 -2.9,1.57 -4.35,2.32 v 0 0 l -0.31,0.2 -0.52,0.32 a 2.38,2.38 0 0 0 -0.36,0.28 0.39,0.39 0 0 1 -0.1,0.08 v 0 0 a 6.15,6.15 0 0 0 -1.79,3.67 6,6 0 0 0 1.34,4.59 4.09,4.09 0 0 0 3.14,1.54 h 0.48 0.07 a 28.06,28.06 0 0 0 3.54,-0.64 v 0 c 0.34,-0.11 9.39,-2.81 10.63,-3.14 2.1,-0.58 4.29,-1 6.4,-1.46 h 0.12 c 1.72,-0.37 3.22,-0.68 4.6,-0.94 -2.29,0.67 -4.58,1.35 -6.85,2.08 -2.67,0.85 -5.35,1.84 -7.95,2.78 -1.93,0.71 -3.92,1.44 -5.89,2.11 a 17.82,17.82 0 0 1 -5.74,1.1 12,12 0 0 1 -1.82,-0.14 4.76,4.76 0 0 1 -3.78,-2.47 8.84,8.84 0 0 1 -1.08,-5.76 c 0.31,-2.09 0.75,-4.23 2.35,-5.59 l 0.71,-0.52 0.17,-0.12 v 0 0 l 0.19,-0.13 0.09,-0.06 0.23,-0.14 v 0 0 l 0.38,-0.25 0.45,-0.29 0.27,-0.16 v 0 0 c 1,-0.73 4.42,-2.67 5.88,-3.5 l 0.57,-0.33 a 163.2,163.2 0 0 1 15.32,-6.57 l 0.74,-0.24 c 0.22,-0.07 0.45,-0.13 0.67,-0.21 l 0.63,-0.22 v -0.66 c 0.05,-0.76 0.14,-1.43 0.23,-2.22 0.09,-0.79 0.25,-2 0.34,-3.31 0.12,-1.6 0.18,-3.23 0.19,-4.86 0,0.11 0,0.21 0,0.32 a 1.52,1.52 0 0 0 0.41,1.15 l 0.52,0.49 a 11,11 0 0 0 -0.75,3.94 c 0,0.9 0,1.62 0,2.26 v 1.22 1.35 l 1.29,-0.41 1.15,-0.38 c 0.6,-0.2 1.21,-0.4 1.82,-0.58 1.4,-0.44 2.81,-0.86 4.23,-1.27 l 4.31,-1.3 0.34,-0.1 c 0.35,-0.11 0.71,-0.21 1.08,-0.35 h 0.08 l 0.21,-0.08 h 0.05 v 0 h 0.08 l 0.13,-0.06 v 0 h 0.05 0.07 a 3.46,3.46 0 0 0 0.6,-0.4 60.37,60.37 0 0 1 11.92,-8.07 c 1.1,-0.55 2.23,-1.07 3.48,-1.6 l 0.54,-0.24 a 15.61,15.61 0 0 1 1.88,-0.78 52.07,52.07 0 0 1 16.26,-2.91 M 187.71,57.84 c 1,1.26 1.55,2 1.57,2 A 31.73,31.73 0 0 1 193,66 a 27,27 0 0 1 2.51,10 65.75,65.75 0 0 1 -0.08,8.65 c -0.17,2.48 -0.46,3.83 -0.57,5.53 -0.46,0.16 -0.94,0.29 -1.41,0.46 a 163.63,163.63 0 0 0 -15.48,6.64 c -1.21,0.69 -5.37,3 -6.56,3.9 l -0.73,0.46 -0.4,0.27 -0.38,0.23 c -0.12,0.09 -0.26,0.16 -0.37,0.25 v 0 c -0.26,0.18 -0.51,0.36 -0.76,0.56 -1.85,1.57 -2.37,3.89 -2.72,6.22 a 9.86,9.86 0 0 0 1.19,6.39 5.79,5.79 0 0 0 4.33,3 12.23,12.23 0 0 0 2,0.16 18.86,18.86 0 0 0 6.06,-1.15 c 4.63,-1.58 9.2,-3.4 13.83,-4.89 5.34,-1.71 10.75,-3.18 16.14,-4.74 0.89,-0.25 1.78,-0.42 2.69,-0.71 -1,0 -2,0 -3,0.12 v 0 h -0.28 -0.14 c -1.94,0.19 -3.9,0.42 -5.83,0.75 -2.62,0.45 -5.23,1 -7.83,1.53 -2.2,0.45 -4.4,0.9 -6.57,1.5 -1.21,0.32 -10.35,3 -10.69,3.15 a 25.47,25.47 0 0 1 -3.47,0.62 2.06,2.06 0 0 1 -0.35,0 c -2.42,0 -3.82,-3 -3.49,-5 a 5.17,5.17 0 0 1 1.49,-3.11 c 0.13,-0.1 0.24,-0.22 0.37,-0.3 0.13,-0.08 0.56,-0.35 0.84,-0.52 3.75,-1.93 7.41,-4.06 11.2,-5.88 0.86,-0.42 1.72,-0.77 2.58,-1.15 0.7,-0.28 1.4,-0.54 2.11,-0.81 5.52,-2 11.08,-3.86 16.63,-5.73 l 1.15,-0.39 0.58,-0.17 a 7.38,7.38 0 0 1 0.73,-0.21 c 0.49,-0.15 1,-0.26 1.48,-0.39 l 1,-0.21 a 8.67,8.67 0 0 0 3.76,-1.77 l 0.33,-0.26 0.29,-0.24 c 0.2,-0.18 0.42,-0.34 0.62,-0.53 a 70.38,70.38 0 0 1 7.79,-6 60.52,60.52 0 0 1 10.38,-5.14 59.92,59.92 0 0 1 12.86,-2.76 c 0.73,-0.06 1.73,-0.12 3,-0.12 a 58.36,58.36 0 0 1 14,1.91 15.29,15.29 0 0 0 3.73,0.46 18.67,18.67 0 0 0 3,-0.25 c 1.91,-0.31 3.81,-0.61 5.71,-0.93 a 1.08,1.08 0 0 1 0,-0.19 H 276 v 0 l -5.58,0.17 h -0.75 -0.06 a 22.34,22.34 0 0 1 -6.5,-1.59 44.21,44.21 0 0 0 -7.91,-2.25 55.52,55.52 0 0 0 -8.76,-0.75 52.24,52.24 0 0 0 -16.56,3 22.5,22.5 0 0 0 -2.53,1.06 c -1.18,0.5 -2.35,1 -3.52,1.62 a 61.67,61.67 0 0 0 -12.12,8.2 3.84,3.84 0 0 1 -0.54,0.35 l -0.25,0.11 -0.27,0.11 c -0.45,0.16 -0.91,0.29 -1.35,0.42 -2.85,0.88 -5.7,1.69 -8.55,2.57 -1,0.3 -2,0.65 -3,1 0,-1 0,-2 0,-3.47 a 12.87,12.87 0 0 1 1.41,-5.37 41.36,41.36 0 0 1 4.4,-7 c 0.51,-0.7 0.89,-1.43 1.38,-2.13 0.49,-0.7 1,-1.59 1.29,-2 A 12.7,12.7 0 0 0 204.68,71 c -1.47,1.78 -2.78,3.62 -4.23,5.42 a 23.51,23.51 0 0 0 -2.6,4 1.08,1.08 0 0 1 -0.13,0.19 0.62,0.62 0 0 1 -0.13,-0.5 45.89,45.89 0 0 0 -1.06,-7.38 27.84,27.84 0 0 0 -4.17,-9.22 41,41 0 0 0 -3.13,-4.06 10.67,10.67 0 0 0 -1.52,-1.56 z"
       id="path539" />
  </g>
  <path
     class="cls-2"
     d="m 163.42321,76.844997 h -1.24472 c 0.16323,-0.469598 0.3673,-0.920412 0.55094,-1.333658 a 24.486197,22.540698 0 0 1 6.81532,-7.87046 c 1.32633,-1.089467 2.69349,-2.16015 4.08103,-3.230834 1.38756,-1.070683 3.01997,-2.366773 4.48915,-3.568943 a 41.096,37.830805 0 0 0 5.97871,-6.067205 l 0.26526,-0.319327 v -0.187838 a 1.2651201,1.1646028 0 0 0 0,-0.95798 1.3263357,1.2209545 0 0 0 -0.77538,-0.695005 l -0.61217,-0.244191 -1.36715,1.127035 a 67.173801,61.836649 0 0 1 -8.93745,7.025184 l -2.04052,1.371226 a 70.846731,65.217753 0 0 0 -10.05975,8.358842 31.709626,29.190204 0 0 0 -2.85671,3.606512 11.569729,10.65048 0 0 1 -0.44893,-1.239739 14.079563,12.960901 0 0 1 2.61186,-12.096841 34.68878,31.932656 0 0 1 11.0188,-8.077083 c 1.28552,-0.657437 2.67307,-1.258523 4.08104,-1.878392 a 51.563851,47.466954 0 0 0 5.73383,-2.798804 28.893713,26.598024 0 0 0 9.71287,-8.340058 l 0.22445,2.272853 a 42.340716,38.976624 0 0 1 -2.73429,18.971756 27.628593,25.433421 0 0 1 -14.87536,14.369694 24.669843,22.709754 0 0 1 -9.61083,1.803256 z"
     id="path541"
     style="stroke-width:1.95778" />
  <path
     class="cls-3"
     d="m 189.60304,42.057186 a 41.544916,38.244051 0 0 1 -2.7343,18.257966 26.649145,24.531794 0 0 1 -14.28361,13.86253 23.54756,21.676638 0 0 1 -8.85585,1.728119 v 0 a 23.894448,21.995965 0 0 1 6.55007,-7.513566 l 4.08103,-3.212049 c 1.53038,-1.183387 3.04036,-2.366774 4.48913,-3.55016 a 43.401786,39.953388 0 0 0 6.12155,-6.23626 l 0.51013,-0.601085 v -0.356894 a 2.4690249,2.2728537 0 0 0 0,-1.408794 2.2853784,2.1037985 0 0 0 -1.34674,-1.220955 l -1.20392,-0.488381 -0.95904,0.826492 -0.4285,0.33811 -0.44892,0.375679 v 0 0 a 65.174094,59.995825 0 0 1 -8.77422,6.818561 l -2.0405,1.427577 a 71.907799,66.194518 0 0 0 -10.2026,8.471546 c -0.63255,0.676221 -1.20389,1.352442 -1.73443,2.028663 a 13.140926,12.096841 0 0 1 2.57105,-10.594128 33.933788,31.237651 0 0 1 10.69231,-7.814109 c 1.26511,-0.657437 2.65267,-1.239738 3.979,-1.878391 a 53.053427,48.83818 0 0 0 5.81547,-2.836372 34.015409,31.312787 0 0 0 8.42733,-6.536803 m 1.42837,-5.841797 a 15.854813,14.595103 0 0 1 -0.83661,1.540281 25.955369,23.89314 0 0 1 -10.20258,9.241686 c -3.04036,1.878392 -6.50925,2.986643 -9.71287,4.620844 a 36.198762,33.322666 0 0 0 -11.32486,8.321274 15.140631,13.937665 0 0 0 -2.69349,12.904549 c 0.26528,0.826493 0.59175,1.652985 0.91825,2.423126 0,0.206623 0.22445,0.33811 0.38769,0.619869 a 32.097324,29.547098 0 0 1 3.5913,-4.940169 72.41793,66.664116 0 0 1 9.91692,-8.227355 86.273035,79.418394 0 0 0 10.99838,-8.415194 l 0.87742,-0.713789 c 0.51012,0.187839 0,0.488382 0.10198,0.713789 a 40.810329,37.567831 0 0 1 -5.85628,5.935717 c -2.81591,2.310422 -5.73386,4.526923 -8.54977,6.799777 a 25.914559,23.855572 0 0 0 -7.06018,8.189787 c -0.26527,0.563517 -0.53054,1.20217 -0.75499,1.878392 -0.22446,0.67622 0,0.713789 0.63256,0.77014 h 1.75484 a 25.547265,23.517462 0 0 0 9.8761,-1.878391 28.669256,26.391401 0 0 0 15.4059,-14.858077 43.932319,40.44177 0 0 0 2.85672,-19.422569 c -0.18365,-1.709336 -0.3673,-3.437456 -0.57135,-5.409767 z"
     id="path543"
     style="stroke-width:1.95778" />
  <path
     class="cls-2"
     d="M 126.08175,48.950883 Z"
     id="path545"
     style="stroke-width:1.95778" />
  <path
     class="cls-3"
     d="M 126.08175,48.932099 Z"
     id="path547"
     style="stroke-width:1.95778" />
  <path
     class="cls-2"
     d="M 126.04095,48.932099 Z"
     id="path549"
     style="stroke-width:1.95778" />
  <path
     class="cls-3"
     d="m 126.06134,48.932099 z m 0,0 z"
     id="path551"
     style="stroke-width:1.95778" />
</svg>
