<?xml version="1.0" encoding="UTF-8"?>
<svg version="1.1" viewBox="0 0 409.45 176.51" xmlns="http://www.w3.org/2000/svg">
 <defs>
  <style>.cls-1,.cls-2{fill:#12416a;}.cls-2{fill-rule:evenodd;}</style>
 </defs>
 <g data-name="Слой 2">
  <path class="cls-1" d="m170.19 22.93h-1.24a13.21 13.21 0 0 0-13.49 13.37c-0.23 26.2-1.61 52.56-4.09 78.33-0.13 1.44-0.27 4.41-0.43 7.92-0.35 7.81-1.63 15.56-0.23 18.83a4.38 4.38 0 0 0 4.56 3 4 4 0 0 0 4.12-2.76c1.38-3.72 4-17.1 7-32.74 4.88-25.64 11.62-49.42 15.26-70.57a13.42 13.42 0 0 0-2.65-10.5 12.41 12.41 0 0 0-8.81-4.88z"/>
  <path class="cls-1" d="m62.6 68.81a28.05 28.05 0 0 0-20.14-8.52 37.43 37.43 0 0 0-10.05 1.47 6.58 6.58 0 0 1-1.87 0.33 3.83 3.83 0 0 1-2.67-1.09 13.13 13.13 0 0 0-8.87-3.79 13.63 13.63 0 0 0-5.46 1.22c-5.12 2.23-7.8 6.42-8 12.47l-0.42 13.83c-0.34 12-0.7 24.47-1.29 36.7-0.38 8.24-1.16 16.59-1.91 24.66l-0.66 7.15c-0.13 1.44-0.37 2.89-0.62 4.32s-0.51 2.94-0.64 4.44a4.64 4.64 0 0 0 3.36 4.86 4.52 4.52 0 0 0 1.38 0.21 5.14 5.14 0 0 0 4.34-2.49 13.84 13.84 0 0 0 1.46-3l0.58-1.83c1.55-4.78 3.1-9.57 4.46-14.4 1.26-4.44 2.42-8.91 3.58-13.43l1.93-7.41 3.42 1.74a29.74 29.74 0 0 0 14 3.57 27.07 27.07 0 0 0 20.68-9.49c8.48-9.76 11.94-21.69 10.56-36.5a23.72 23.72 0 0 0-7.15-15.02zm-10.2 29.85a51.73 51.73 0 0 1-2.55 9c-2.64 6.25-7.42 9.69-13.48 9.69a19.39 19.39 0 0 1-7-1.41c-5.48-2.14-5.77-2.69-4.53-8.44 0.25-1.12 0.48-2.25 0.71-3.38 0.44-2.23 0.89-4.46 1.46-6.65a4.39 4.39 0 0 1 2.75-2.85 14.93 14.93 0 0 0 9.44-7 10 10 0 0 1 3.17-3.3 6.82 6.82 0 0 1 3.47-1 6 6 0 0 1 5.58 4 17.89 17.89 0 0 1 1.25 4.63 27.79 27.79 0 0 1-0.27 6.71z"/>
  <path class="cls-1" d="m138.76 105.17a14.63 14.63 0 0 1 4.4-7.66 12.39 12.39 0 0 0 2.14-15.11c-5.58-9.61-13.87-15.19-24.63-16.56a41.89 41.89 0 0 0-5.31-0.35c-10 0-19.23 3.79-27.39 11.25a37.15 37.15 0 0 0-12.57 27.07c-0.27 7.82 2.23 14.87 7 19.82s11.79 7.77 19.91 7.76a37 37 0 0 0 22.71-7.7l1-0.7 0.68 1a17.14 17.14 0 0 0 8.8 7 6.61 6.61 0 0 0 2.11 0.34 6.86 6.86 0 0 0 6.2-3.91c1.49-3.2 0.33-7.19-2.49-8.54-3.55-1.69-3.85-4.53-3.74-6.82a38.2 38.2 0 0 1 1.18-6.89zm-14.12-2.47c-4.85 7.3-11.4 11.52-18.51 11.87-5.31 0-8.73-1.21-10.49-3.7-1.54-2.2-1.62-5.3-0.22-9.21 2.47-6.88 10.13-12.27 17.45-12.27a14 14 0 0 1 3.2 0.36 8.24 8.24 0 0 1 5.54 4.25 13.67 13.67 0 0 0 2.39 3.5c1.77 1.6 2 3.2 0.64 5.2z"/>
  <path class="cls-2" d="m233.79 0a34.77 34.77 0 0 0-4.71 6.66 33.28 33.28 0 0 0-3.46 11.8c-0.44 3.72-0.81 7.47-1.37 11.2a23.72 23.72 0 0 1-2.32 7.74c-4.39 8.2-15.8 10.09-22.38 3.25-2.86-3-3.9-6.73-3.88-10.76a23.14 23.14 0 0 1 6-15.26 34.84 34.84 0 0 1 9.08-7.43 53.63 53.63 0 0 1 9-4.23 51.4 51.4 0 0 1 13.58-3 3.05 3.05 0 0 1 0.46 0.03z"/>
  <path class="cls-1" d="m206.5 55.52a5.26 5.26 0 0 0-3.13-5.52 5.77 5.77 0 0 0-2-0.47 4.79 4.79 0 0 0-4.26 2.08 16.84 16.84 0 0 0-1.76 3.39c-5 11.72-19.84 63.9-12.34 76.86 2.41 4.16 6.4 7.17 11.23 7.42a13.86 13.86 0 0 0 4.61-0.56c6.31-1.88 9.87-7.93 9.2-15.06-1.26-13.38-4.8-34.38-1.55-68.14z"/>
  <path class="cls-1" d="m403.84 118.92c-3.54-1.7-3.85-4.54-3.74-6.82a37.35 37.35 0 0 1 1.16-6.93 14.55 14.55 0 0 1 4.4-7.66 12.38 12.38 0 0 0 2.14-15.11c-5.59-9.62-13.88-15.19-24.63-16.56a41.8 41.8 0 0 0-5.32-0.35c-10 0-19.21 3.79-27.39 11.25a37.22 37.22 0 0 0-12.57 27.06c-0.26 7.83 2.24 14.87 7 19.83s11.79 7.77 19.91 7.76a37.08 37.08 0 0 0 22.72-7.7l1-0.7 0.68 1a17.08 17.08 0 0 0 8.81 7 6.74 6.74 0 0 0 2.1 0.34 6.83 6.83 0 0 0 6.19-3.91c1.52-3.16 0.37-7.15-2.46-8.5zm-16.7-16.22c-4.84 7.3-11.4 11.51-18.52 11.86-5.3 0-8.72-1.2-10.47-3.69-1.56-2.2-1.63-5.3-0.23-9.21 2.47-6.89 10.14-12.28 17.45-12.28a14 14 0 0 1 3.2 0.37 8.25 8.25 0 0 1 5.54 4.25 13.9 13.9 0 0 0 2.41 3.47c1.76 1.62 1.94 3.23 0.62 5.23z"/>
  <path class="cls-1" d="m279.52 105.83c1.16 3.24-0.59 7.29-4.78 12.56a33.22 33.22 0 0 1-26.36 13h-0.14a26.07 26.07 0 0 1-26.46-30.53c0.53-3.75 1.27-7.55 2-11.23 0.36-1.83 1.69-8.35 1.69-8.35s-6.81-2-8.44-2.59-4.55-2.14-3.8-5.87a3.44 3.44 0 0 1 3.41-2.72c3.1 0.08 7.41 0.54 7.41 0.54 1.83 0 2.86-1 3-3.1a58.55 58.55 0 0 0 0.31-9.18 33.11 33.11 0 0 1 0.09-4.85 12.52 12.52 0 0 1 25 1c0 3.39-1.24 8.05-1.9 10.56-0.34 1.28-1 3.82-1 3.82l8.53-1.88a14.18 14.18 0 0 1 2.95-0.33 9.7 9.7 0 0 1 8.51 14.17 9.31 9.31 0 0 1-8.88 5.26q-0.47 0-0.93 0c-2.84-0.18-5.69-0.41-8.58-0.65l-5-0.41-1 3.66c-0.54 2-1.07 4-1.65 6-0.38 1.31-0.8 2.61-1.22 3.91-0.68 2.12-1.36 4.22-1.88 6.36-1.22 5 1.23 9.14 6.21 10.54a19.48 19.48 0 0 0 5.22 0.75c4.48 0 8.79-1.74 12.8-5.15a25.28 25.28 0 0 0 4.75-5.44c1.53-2.34 4.11-3.58 6.25-3.08 0.37 0.13 3.08 0.96 3.89 3.23z"/>
  <path class="cls-1" d="m333 72.07c2.42 0 3 2.92 5.19 3.59 5.3 1.62 9.56-3.79 6.25-8.9-2.41-3.73-6.25-7.06-12.22-7.06a17.24 17.24 0 0 0-10.18 3.64c-1.68 1.24-3.26 2.65-4.93 4.13-0.8 0.71-1.6 1.43-2.45 2.15l-1.18 1-1.37-2.94a13.08 13.08 0 0 0-25.11 4.83q-0.44 20.8-0.63 41.63a34.66 34.66 0 0 0 0.91 8.49c1.31 5.32 5.51 8.76 10.71 8.76a12.4 12.4 0 0 0 1.71-0.12c4.46-0.66 7.61-3.42 9.9-8.71 1.57-3.63 2.9-7.45 4.18-11.16l0.91-2.61c1-2.77 1.92-5.55 2.85-8.34 2-5.81 4-11.82 6.33-17.61a27.74 27.74 0 0 1 5-7.28c0.59-0.72 1.2-1.42 1.77-2.14a3.12 3.12 0 0 1 2.36-1.35z"/>
 </g>
</svg>
