<svg xmlns="http://www.w3.org/2000/svg" viewBox="0 0 71 71"><defs><style>.cls-1{fill:#00416b;}.cls-2,.cls-3{fill:#fff;}.cls-3{fill-rule:evenodd;}</style></defs><g id="Слой_2" data-name="Слой 2"><g id="Layer_3" data-name="Layer 3"><circle class="cls-1" cx="35.5" cy="35.5" r="35.5"/><path class="cls-2" d="M35.5,66.69A31.19,31.19,0,1,1,66.69,35.5,31.23,31.23,0,0,1,35.5,66.69Zm0-60.89A29.7,29.7,0,1,0,65.2,35.5,29.73,29.73,0,0,0,35.5,5.8Z"/><path class="cls-2" d="M35.5,52.83A17.33,17.33,0,1,1,52.83,35.5,17.35,17.35,0,0,1,35.5,52.83Zm0-33.17A15.84,15.84,0,1,0,51.34,35.5,15.85,15.85,0,0,0,35.5,19.66Z"/><path class="cls-2" d="M14.58,30.75a1.43,1.43,0,1,1-1.42-1.43A1.43,1.43,0,0,1,14.58,30.75Z"/><path class="cls-2" d="M59.46,30.75a1.43,1.43,0,1,1-2.85,0,1.43,1.43,0,1,1,2.85,0Z"/><path class="cls-3" d="M35.41,48.31v-.45a8.73,8.73,0,0,0-.2-1.77,3.24,3.24,0,0,0-.11-.76L35,44.57a4.23,4.23,0,0,0-.19-.76,10,10,0,0,0-.4-1.61,3.6,3.6,0,0,0-.2-.66c-.07-.27-.15-.54-.23-.81a5.61,5.61,0,0,0-.23-.65s0-.09-.05-.12a2.85,2.85,0,0,0-.22-.7,4,4,0,0,0-.28-.75L33,38l-.09-.21a5.52,5.52,0,0,0-.31-.8,15.72,15.72,0,0,0-.64-1.52A14,14,0,0,0,31.23,34a14.52,14.52,0,0,0-.78-1.52l-.21-.37c-.19-.33-.39-.66-.59-1,.14,0,.2.09.27.16.66.62,1.25,1.3,1.85,2l.36.45c.07.11.15.21.22.31l.57.77c.34.52.68,1,1,1.56l.84,1.53.68,1.44c.07.18.15.35.22.53h.05c0-.18,0-.36.07-.53s.11-.51.17-.76c.05,0,0-.1,0-.15,0-.2.1-.4.16-.6l.23-.77a3.45,3.45,0,0,0,.22-.64.56.56,0,0,0,.1-.27l.24-.6c.1-.22.19-.45.28-.68L38,33.21c.13-.15.08-.28,0-.42-.31-.38-.63-.76-1-1.12a17.28,17.28,0,0,0-2.55-2.21l-.05,0a4.88,4.88,0,0,0-.7-.49A14,14,0,0,0,32.24,28a.22.22,0,0,0-.2-.1,2.09,2.09,0,0,0-.61-.36,3.68,3.68,0,0,0-.76-.4h0a3.49,3.49,0,0,0-.74-.39,4.78,4.78,0,0,0-.76-.35,4,4,0,0,0-.66-.31l-.83-.37h0l-.06,0c-.47-.2-.92-.42-1.4-.57L25.84,25c-.09,0-.12,0-.14.09l-.16.55h0a.64.64,0,0,1,0,.07c-.05.22-.11.44-.16.66-.05,0,0,.1,0,.15s-.07.34-.11.5a7.36,7.36,0,0,0-.19.91,3,3,0,0,0-.12.65,6.31,6.31,0,0,0-.14.87,4.82,4.82,0,0,0-.1.75,23.13,23.13,0,0,0-.2,4.55,2.42,2.42,0,0,0,0,.76A7.06,7.06,0,0,0,24.65,37a3.16,3.16,0,0,0,.11.75,5.78,5.78,0,0,0,.19.92,2.4,2.4,0,0,0,.17.65,8.66,8.66,0,0,0,.47,1.47,9,9,0,0,0,.7,1.51,8.48,8.48,0,0,0,.93,1.52,2.87,2.87,0,0,0,.41.51c.07.08.13.17.19.25a6.77,6.77,0,0,0,.51.56l.21.19a3,3,0,0,0,.55.51l.36.3a2.09,2.09,0,0,0,.45.33,8.44,8.44,0,0,0,1.52,1l.26.14a1.89,1.89,0,0,0,.51.26,3.42,3.42,0,0,0,.75.35,9.16,9.16,0,0,0,1.5.59,5.56,5.56,0,0,0,.77.22c.11.06.19.07.19-.09S35.4,48.52,35.41,48.31Z"/><path class="cls-3" d="M36.47,41.38a4,4,0,0,0,0,.92,3.22,3.22,0,0,0,0,.76,4.73,4.73,0,0,0,0,.92,3,3,0,0,0,.06.59,10.07,10.07,0,0,0,.35,1.63,2.22,2.22,0,0,0,.2.65,10.33,10.33,0,0,0,.61,1.6c0,.11.1,0,.15,0a4,4,0,0,0,.47-.45,2.08,2.08,0,0,0,.32-.4,8.17,8.17,0,0,0,.83-1.47,10.72,10.72,0,0,0,.63-1.57,3.8,3.8,0,0,0,.27-.76,15.49,15.49,0,0,0,.46-1.51c.08-.25.14-.5.21-.76s.12-.5.19-.76c.15-.49.23-1,.34-1.5a3.26,3.26,0,0,0,.13-.77,3.78,3.78,0,0,0,.14-.76,3.21,3.21,0,0,0,.06-.76,1.11,1.11,0,0,1,0-.17c.09,0,.05.12.12.14a0,0,0,0,0,0,0,5.09,5.09,0,0,0,.19.77c0,.25.07.5.1.75a3.83,3.83,0,0,0,.05.76v.55L42.29,41a2.5,2.5,0,0,0,0,.55c-.05.26-.1.51-.14.76-.12.5-.23,1-.35,1.51-.07.25-.14.51-.22.76l-.24.75-.06.16c-.07.21-.13.41-.2.61s-.21.5-.31.76c-.2.46-.41.93-.61,1.4l-.51,1a6.89,6.89,0,0,0,1-.48,8.43,8.43,0,0,0,1.46-.9,1.77,1.77,0,0,0,.41-.31,1.27,1.27,0,0,0,.34-.27,3,3,0,0,0,.54-.48l.23-.2a3.43,3.43,0,0,0,.48-.53,1.16,1.16,0,0,0,.32-.38,1.74,1.74,0,0,0,.3-.37,8,8,0,0,0,1-1.56,6.5,6.5,0,0,0,.57-1.52,3.2,3.2,0,0,0,.2-.81,4.1,4.1,0,0,0,.12-.7v-.11s0-.06,0-.1,0-.23,0-.34a5.72,5.72,0,0,0,0-1.49v-.24a2.47,2.47,0,0,0-.09-.76,3.29,3.29,0,0,0-.11-.7,3.69,3.69,0,0,0-.2-.81,8.3,8.3,0,0,0-.46-1.52,3,3,0,0,0-.3-.75,2.35,2.35,0,0,0-.29-.69c0-.06,0-.1,0-.13a4.3,4.3,0,0,0-.36-.75,2.45,2.45,0,0,0-.34-.64l0-.07a7.1,7.1,0,0,0-.44-.81,2.13,2.13,0,0,0-.31-.49l-.11-.22c-.15-.23-.3-.46-.43-.7s-.14-.09-.21,0a5,5,0,0,0-.69.69l-.07.06a5.56,5.56,0,0,0-.65.72l-.1.1a4.63,4.63,0,0,0-.52.65c-.12.06-.17.2-.25.3a3.27,3.27,0,0,0-.35.46,11.1,11.1,0,0,0-1,1.51.77.77,0,0,0-.19.31c-.09.13-.17.27-.25.4l-.45.81s0,0,0,0a4.94,4.94,0,0,0-.33.7,3.72,3.72,0,0,0-.33.77A8.34,8.34,0,0,0,37,38.51a3.41,3.41,0,0,0-.2.76,8.61,8.61,0,0,0-.31,1.51A3.05,3.05,0,0,0,36.47,41.38Z"/><path class="cls-2" d="M21.47,20.76a.71.71,0,0,1-.22.9.69.69,0,0,1-.89.23L14.84,19c-.32-.16-.18-.45,0-.65s.49-.5.9-.28l3.42,1.85a7.67,7.67,0,0,1,.75.46,8.75,8.75,0,0,1-.47-.74L17.5,16.26c-.23-.41,0-.69.26-.92s.45-.31.62,0Z"/><path class="cls-2" d="M24.55,12.57l.56,1.25,1.8-.81c.29-.13.49.1.61.36s.16.57-.14.7l-1.79.81.66,1.45c.05.12.11.13.22.09l2-.89c.3-.14.49.1.61.36s.16.57-.14.7l-2.42,1.09c-.45.2-.92.28-1.22-.38l-2.09-4.63c-.3-.67.08-1,.52-1.17l2.43-1.1c.29-.13.49.1.61.37s.17.56-.14.69l-2,.89A.14.14,0,0,0,24.55,12.57Z"/><path class="cls-2" d="M34.49,14.55a1.2,1.2,0,0,0,1.21-1.38c0-.25-.06-.32-.29-.31l-.74,0c-.31,0-.4-.27-.42-.54s.06-.54.37-.56L36,11.73c.71,0,.9.27.94.79.15,1.67-.45,3.07-2.34,3.16s-2.83-1.43-2.92-3.37.56-3.41,2.53-3.62a2.19,2.19,0,0,1,2.51,1.66c.07.31,0,.58-.53.61s-.72-.07-.8-.32a1,1,0,0,0-1.12-.81c-1.21.06-1.31,1.4-1.26,2.42C33,13.1,33.25,14.61,34.49,14.55Z"/><path class="cls-2" d="M41.07,15.89a.63.63,0,0,1-.84.18c-.3-.11-.65-.3-.39-.63l3.94-5a.73.73,0,0,1,.87-.2.72.72,0,0,1,.53.71L45,17.33c0,.42-.4.33-.7.23s-.54-.25-.53-.68l0-1.22-2-.73ZM43.91,13A4.26,4.26,0,0,1,44,12a4.62,4.62,0,0,1-.53.8L42.57,14l1.29.47Z"/><path class="cls-2" d="M52.1,19.26a6.88,6.88,0,0,1-.28.95l2.76-2.88c.24-.25.54-.1.76.11s.39.51.15.76l-4.16,4.34c-.24.26-.58.08-.8-.14a.71.71,0,0,1-.28-.71L51.11,18a6.28,6.28,0,0,1,.31-1L48.64,20c-.24.26-.54.11-.77-.11s-.38-.5-.14-.76l4.16-4.34c.24-.26.57-.08.79.14a.7.7,0,0,1,.28.7Z"/><path class="cls-2" d="M10.32,44.07c-.35.13-.56-.15-.68-.47s-.15-.66.2-.79l5.44-2.07c.72-.27,1,.14,1.19.61L17.11,43a2.1,2.1,0,0,1-1.3,2.78A2.1,2.1,0,0,1,13,44.6l-.51-1.35Zm5,.42a.87.87,0,0,0,.61-1.16l-.4-1c0-.12-.1-.15-.22-.1l-1.69.64L14.07,44A.89.89,0,0,0,15.31,44.49Z"/><path class="cls-2" d="M17.81,51.88l-.42-.44-1.78,1.72c-.27.26-.57.09-.8-.15s-.4-.55-.13-.81l4.19-4c.55-.53,1-.28,1.33.09l1.24,1.29a2,2,0,0,1,0,3,1.93,1.93,0,0,1-2.19.39,2.51,2.51,0,0,1-.21,1.3,10.58,10.58,0,0,0-.58,1.54c-.12.52-.62.32-.89,0s-.36-.53-.33-.71a10.1,10.1,0,0,1,.74-1.82A1.22,1.22,0,0,0,17.81,51.88Zm2.61-.33a.82.82,0,0,0,0-1.27l-.78-.81c-.08-.08-.15-.09-.25,0l-1.22,1.17.9.94A.87.87,0,0,0,20.42,51.55Z"/><path class="cls-2" d="M28,53.76c2,.82,2.09,2.48,1.26,4.48s-2.06,3.11-4.06,2.28S23.07,58,23.89,56,26,52.94,28,53.76Zm-.45,1.09c-1.23-.5-1.91.69-2.34,1.72s-.76,2.35.45,2.85,1.91-.7,2.33-1.71S28.71,55.36,27.5,54.85Z"/><path class="cls-2" d="M34.81,62.49c-.52,0-1-.11-1-.88l-.15-5.29c0-.76.46-.91,1-.92l1.4,0c2,0,2.85,1.58,2.9,3.47s-.69,3.57-2.71,3.62ZM35,56.78l.11,4.3c0,.13.07.17.18.17l.88,0c1.14,0,1.39-1.37,1.37-2.36s-.39-2.32-1.5-2.29l-.88,0C35.05,56.6,35,56.64,35,56.78Z"/><path class="cls-2" d="M45,58.15a1.23,1.23,0,1,0,2.21-1.06l-1.84-3.82c-.16-.33.1-.57.4-.71s.65-.2.81.13l1.78,3.71a2.56,2.56,0,1,1-4.62,2.22L42,54.9c-.16-.32.1-.56.4-.71s.65-.19.81.13Z"/><path class="cls-2" d="M50.65,48.17A2.3,2.3,0,0,1,54,47.74c.25.18.17.54-.06.81s-.47.44-.8.26c-.65-.36-1.12-.42-1.63.18-.84,1,.1,2,.94,2.7s2,1.48,2.81.51c.52-.61.28-1.13-.07-1.66-.17-.27-.12-.52.14-.83s.6-.45.88-.11a2.48,2.48,0,0,1,0,3.38c-1.38,1.61-3,1.17-4.63-.23S49.24,49.8,50.65,48.17Z"/><path class="cls-2" d="M54.92,40.14c.11-.32.42-.31.71-.21s.55.28.44.6l-.42,1.22,5.19,1.8c.36.12.34.47.23.78s-.31.6-.67.48L55.21,43l-.42,1.21c-.11.33-.43.31-.71.21s-.55-.29-.44-.6Z"/></g></g></svg>