<svg id="Слой_1" data-name="Слой 1" xmlns="http://www.w3.org/2000/svg" viewBox="0 0 318.01 186.27"><defs><style>.cls-1,.cls-2,.cls-3{fill:#1f335c;}.cls-1{stroke:#1f335c;stroke-miterlimit:10;}.cls-2{fill-rule:evenodd;}</style></defs><path class="cls-1" d="M81.36,173.07H80l-.85-.09-.9-.33-.31-.58v-.62l0-.71v-1.28l0-.58,0-.67,0-4.11,0-.57.08-1.25-.08-.75,0-.62-.08-.66.08-.67-.08-.58.12-1.33,0-3.44-.12-1,.08-.63v-.91l0-.66,0-.63,0-2.11-.08-.59v-.78l0-.5,0-.66,0-.67.31-.74.59-.21h.62l.66-.13,2,0,.59-.09h.7l.62.12.54-.08.66.13,1.29-.13.58,0,1.36,0,.55.08.62.34.39.5v.53l-.31.67-.66.2-.7,0h-.55l-.58.09-.59-.09-2.6.21-1.29-.24h-.62l-.58.12-.62.21-.39.7v.75l0,.7.12,1.33-.12.66.12.75-.08.75,0,2.07.35.63.93.37,2.41,0,1.83.37.58.08.59.38.58.25.47.41.43.29.54.54.7,1,.7,1.82.08.67.27,1.16.08.7v1.95l-.12.75,0,.58-.27,1.41-.19.58-.24.59-.19.62-.27.49-.4.59-.46.54-1.52,1.24-.5.25-1.25.41h-.58l-.55.21h-1l-.85-.12-.7.16Zm.77-2.37h2.06l.62-.2.59,0,.66-.29,1-.71.66-1.08.16-.66.27-.63.16-.66v-.83l.15-.66-.07-.92,0-1,0-.67-.2-.7-.08-.58-.19-.63-.27-.62-.32-.49-.42-.5-.43-.42-.51-.24-.46-.3-.74-.25h-.9l-.58-.08-.82-.08-1.16.16-.51.25-.31.92,0,.62,0,1.08v1.74l0,.66.08.88-.08.74.12.71-.08.58v.62l-.08.87.08.79,0,1.7.35.67.58.33Z" transform="translate(-42.05 -31.78)"/><path class="cls-1" d="M100.58,173.4,99,172.86l-.46-.37-.78-.79-.94-1.37-.23-.54-.43-1.08-.15-.54,0-.7-.19-.5,0-.62-.08-.59-.08-.62,0-2.28.2-2.37.19-1.16.39-1.78.19-.58.24-.54.58-.91.7-1,.39-.33.5-.33,1.48-.67,1.13-.21.78.05.82.08,1,.17,1.47.83.82.91.55,1,.15.49.16,1.5-.2,1.49-.11.5-.12.58-.27.58-.82,1.5-1.17,1.2-.46.41-1.36.87-.51.21-.59.21-1,.41-.55.13-.55,0-.58.16-.46.3-.24.57.24.92.31.87.81,1.45.9.66.5.13.86.08.82,0,.54-.17.58-.08.47-.25.7-.45.7-.58.54-.25.47.25.24.49.07.67-.27.62-.39.42-.47.41-.46.29-.54.21-.55.29-1,.29-.51.08-1.71.05Zm-1.13-9.17,1.09-.33.47-.21,1-.54,1.36-1,.35-.46.27-.5.27-.58.2-.54.15-.5.12-.62,0-.87,0-.83-.12-.62-.7-.91-.39-.21-.58-.25h-.74l-1,.12-.81.21-.39.29-.36.33-.35.42-.31.58-.38,1.12-.47,2.86,0,1.16-.08,1.16.31.59.55.21Z" transform="translate(-42.05 -31.78)"/><path class="cls-1" d="M113.23,183.19l-.31-.45-.12-1.08v-.54l0-.67,0-.53,0-.59,0-.62,0-.66,0-1.83,0-.5,0-5.18,0-.58,0-.54-.08-.67v-1.7l0-.62,0-.5,0-.58,0-.62v-.54l.08-.66-.08-2.58,0-.5v-1l0-.54V156l-.12-1.7.2-.66.47-.25.58,0,.7.21.43.5.11.62.2.41.43-.16.46-.29.47-.42.46-.29,2-.87.86,0,.54-.09h.81l1.1.3.46.2.82.67.35.33.27.58.24.42.19.62.15.45.2.67.19,1.16.2,1.87,0,1.12,0,.58v1.74l-.07.67,0,.53-.23,1.87-.24,1.08-.58,1.74-.55,1-.35.54-.58.66-.54.58-.55.34-.47.2-.42.25-.78.25-2,.13-.51-.13-1.71-.58-.51,0-.23.46v1.2l0,.66,0,.54v1.46l0,.87.08.58,0,2.24.16,1.82-.2.54-.47.17-.93,0Zm5.21-11.86.74-.09.82-.17.46-.2.43-.29.42-.41.36-.42.54-.95.39-1.08.23-1.25.16-2.41v-2.9l-.08-1.08v-.58l-.12-.58,0-.5-.28-1.2-.5-1-.31-.45-.43-.29-1.32-.17h-.82l-.51.08-.54.21-1,.5-.43.29-.85.87-.39.7-.16.88v7.34l0,.62v.63l-.08.78,0,1,.23,1,.43.5.47.29.5.17.51.08.54.09Z" transform="translate(-42.05 -31.78)"/><path class="cls-1" d="M134.94,173.4l-1.55-.54-.47-.37-.78-.79-.93-1.37-.23-.54-.43-1.08-.16-.54,0-.7-.19-.5,0-.62-.08-.59-.08-.62,0-2.28.2-2.37.19-1.16.39-1.78.2-.58.23-.54.58-.91.7-1,.39-.33.51-.33,1.48-.67,1.12-.21.78.05.82.08,1,.17,1.48.83.81.91.55,1,.15.49.16,1.5-.2,1.49-.11.5-.12.58-.27.58-.81,1.5-1.17,1.2-.47.41-1.36.87-.51.21-.58.21-1,.41-.55.13-.54,0-.58.16-.47.3-.23.57.23.92.31.87.82,1.45.89.66.51.13.85.08.82,0,.55-.17.58-.08.46-.25.7-.45.71-.58.54-.25.46.25.24.49.08.67-.28.62-.38.42-.47.41-.47.29-.54.21-.55.29-1.05.29-.5.08-1.71.05Zm-1.13-9.17,1.09-.33.47-.21,1-.54,1.36-1,.35-.46.28-.5.27-.58.19-.54.16-.5.11-.62,0-.87,0-.83-.11-.62-.7-.91-.39-.21-.58-.25h-.74l-1,.12-.82.21-.39.29-.35.33-.35.42-.31.58-.39,1.12-.47,2.86,0,1.16-.08,1.16.31.59.55.21Z" transform="translate(-42.05 -31.78)"/><path class="cls-1" d="M163.73,173.15l-.66-.29-.54-.58-.28-.5-.19-.54-1.05-2-.24-.5-.58-1-.23-.57L158.48,164l-.23-.46-.51-.37h-.54l-.47.46-.2.83,0,2.32,0,.63,0,.54,0,.53,0,3.74-.28.62-.89.21-.9-.25-.27-.83,0-.54,0-.54-.08-2.07,0-.58v-.88l0-.58-.08-2,0-.54-.27-.58-.46-.42-.51.09-.55.41-.93,1.79-.39.83-.23.45-.23.54-.24.46-.47,1.12-.23.41-.31.46-.74,1.58-.27.45-.19.59-.59.49-.58.25-.58-.08-.55.08-.43-.25.16-.74.35-.79.31-.5.23-.67.28-.45.27-.42.62-1.07.51-1.09.19-.53.35-.54.47-1,.73-1.24.67-1.33.08-.79-.32-.58-.39-.37-1-1.29-.31-.46-.24-.54-.35-.49-.55-1-.19-.62-.23-.46-.2-.62-.19-.46-.16-.54.08-.66.74-.25.54-.08.9.29.39.7.11.54.24.58.19.5.23.5.51,1.16.94,1.5.38.37.35.5.43.33.94.74.46-.12.31-.66,0-.5,0-2.57.08-.63,0-1.2,0-.46,0-.54.31-.57.59-.42.62,0,.62.41.27.79v3.15l0,.67.07.54,0,1.16,0,.45.27.46.51,0,.42-.37.47-.33.43-.37,1.09-1.33.27-.46.58-1.08.2-.58.27-.54.35-1,.15-.62.43-.58.66-.33.55.08.54-.08.47.37.12.5-.39,1.2-.47,1-1.59,3-.36.41-.35.54-.73.75-.35.75,0,.62,1.39,2.61.28.46.23.58.31.46.27.53.24.5.31.5,1,2.12.31.45.19.63.35.45.24.59v.53l-.39.17-.54.08Z" transform="translate(-42.05 -31.78)"/><path class="cls-1" d="M170.59,173.07l-.51-.21-.19-.7,0-.55v-.87l0-.49.08-1,0-5.15,0-.66,0-.54v-1.74l0-.54v-.87l-.08-.87v-.63l.08-.62,0-.58v-1.66l-.12-.62v-.5l.2-.54.39-.33.5-.08.55,0,.54.25.35.58.08,1.74,0,.62v.58l.08.88,0,2.78.31.66.78.25.93,0,.58,0h1.64l.82.12.58,0,.81-.29.31-.62,0-.54-.07-1.29,0-.54,0-.62,0-.66v-2.33l0-.62.24-.58.74-.29.77,0,.47.42.23.57v2l0,.54,0,.58v2l0,.62,0,.58,0,.63,0,4,0,.54,0,1.91,0,.54.07.54v.45l0,.67.12,1.65v.63l-.12.54-.42.33-.51-.08h-.5l-.59-.13-.27-.41-.08-1.21-.08-.62,0-1.16-.08-.58v-.54l0-.71v-3l-.27-.63-.58-.29-.54,0-.9.09-2.53,0-.54.09-.58,0-.55.37-.31.54v1.12l0,.58-.08.83.08,2.07,0,.58v.59l0,.78V172l-.24.83-.73.33Z" transform="translate(-42.05 -31.78)"/><path class="cls-1" d="M191.72,173.36l-.51,0-.93-.5-.47-.33-.5-.29-.7-.79-.31-.46-.59-1.12-.39-1-.27-1.08-.31-1.79-.12-1.24v-2.37l.12-1.2.08-1.12.07-.62.43-1.7.24-.42.43-1.16.31-.54.66-.87.46-.46.39-.29.66-.37.78-.33.78-.21,1.09,0h.82l.54.08,1.05.37.43.21.43.29.81.71.66.91.55,1,.19.58.24.45.11.58.2.63.08.5.11.62.08,1.2.15,1.16-.07,1.7,0,.71,0,.58-.27,1.78-.08.46-.51,1.66-.23.62-.28.42-.23.62-.31.42-.43.41-.38.42-.43.37-.9.58-1,.25-.58.12h-1.6Zm2.18-2.16.5-.21.47-.16.46-.33.35-.46.35-.58.24-.54.19-.54.16-.58.12-.58,0-.54.11-.71.08-.54,0-.62,0-.66v-1l.08-.74-.12-1.7-.15-1.17-.16-.58-.08-.54-.39-1.08-.23-.53-.31-.42-.39-.46-.89-.58-.51-.08-.74,0-.82.08-1,.29-.51.54-.5.71-.5.91-.08.58-.2.58-.19,1.12,0,.62-.08.5-.08,1.25.08,1.74v1.16l0,.66.08.55.43,1.78.19.62.19.41.32.5.34.5.47.42.43.25.58.2Z" transform="translate(-42.05 -31.78)"/><path class="cls-1" d="M217.83,173.44l-1.13-.12-1-.38-.47-.29-.81-.78-.39-.3-.32-.5-.5-1-.19-.5-.35-1.24-.16-.5-.31-3,0-1.49.08-.92,0-.54.16-1.78.15-.54,0-.58.16-.62.19-.5.15-.58.2-.58.27-.38.27-.58.39-.41.32-.54.38-.38.43-.33.47-.29,1.55-.58.51-.08.85-.09.78.05,1.17.29,1.44.66.5.42.35.33.31.66-.11.71-.24.45-.5.25-.55-.21-.85-.66-.51-.33-.46-.17-1.36-.16-.82.08-.47.13-.5.2-.39.34-.35.45-.32.46-.27.45-.19.5-.12.54-.19.5-.16,1.24-.07.46-.08.58v.62l0,.58,0,1v1.37l.19,2.32.12.5.08.58.23.46.43,1.12.31.46.35.41,1.16.62,1,.08.81-.08,1.05-.21.55-.16.66-.54.62-.58.54-.17.47.29.24.42.15.58-.27.78L223,172l-.43.25-.93.62-.5.13-.55.29-.51.12-.58,0Z" transform="translate(-42.05 -31.78)"/><path class="cls-1" d="M233.24,173.36l-.51,0-.93-.5-.47-.33-.5-.29-.7-.79-.31-.46-.58-1.12-.4-1-.27-1.08-.31-1.79-.12-1.24v-2.37l.12-1.2.08-1.12.07-.62.43-1.7.24-.42.43-1.16.31-.54.66-.87.46-.46.39-.29.67-.37.77-.33.78-.21,1.09,0h.82l.54.08,1.05.37.43.21.43.29.81.71.66.91.55,1,.19.58.24.45.11.58.2.63.08.5.11.62.08,1.2.16,1.16-.08,1.7,0,.71,0,.58-.27,1.78-.08.46-.51,1.66-.23.62-.28.42-.23.62-.31.42-.42.41-.39.42-.43.37-.9.58-1,.25-.58.12h-1.59Zm2.18-2.16.5-.21.47-.16.47-.33.35-.46.34-.58.24-.54.19-.54.16-.58.12-.58,0-.54.11-.71.08-.54,0-.62,0-.66v-1l.08-.74-.12-1.7-.15-1.17-.16-.58-.08-.54-.39-1.08-.23-.53-.31-.42-.39-.46-.89-.58-.51-.08-.74,0-.81.08-1,.29-.5.54-.51.71-.5.91-.08.58-.2.58-.19,1.12,0,.62-.08.5-.08,1.25.08,1.74v1.16l0,.66.08.55.43,1.78.19.62.2.41.31.5.35.5.46.42.43.25.59.2Z" transform="translate(-42.05 -31.78)"/><path class="cls-1" d="M248.88,173.4l-.58,0-1.55-.5-.78-.33-.74-.54-.27-.54.07-.66.24-.58.47-.17.54,0,.47.41.5.21,1.91.49,1.44,0,.5-.25.47-.16.5-.38.63-.91.35-1.12,0-1.74-.12-.54-.15-.54-.28-.46-.78-.83-.46-.21-.47-.16-1.13-.25h-1.71l-.58-.46-.27-.62.23-.66.58-.25.94-.08h.77l.59-.17,1-.46.43-.41.39-.5.23-.54.12-.62,0-.87-.08-1-.16-.45-.31-.5-.81-.62-.59-.17-1.59,0-.7.13-.74.37-.39.37-.58.09-.51-.54-.15-1,.35-.62.42-.33,1-.42,1.13-.37.55-.08H251l.58.12.5.17,1,.62.43.29.42.46.35.41.27.54.16.58.12.54.08,1.87-.12.5-.24.62-.46,1-.74.74-.39.46-.23.46.27.41.43.21.85.75.67.87.23.45.31,1.08.12.58,0,.87,0,.87,0,.46-.31,1.2-.24.46-.66,1-.74.8-.5.29-.43.2-1,.42-.59.16H249.7Z" transform="translate(-42.05 -31.78)"/><path class="cls-1" d="M259.31,177.88l-.31-.58-.12-.54,0-.54-.08-.62-.24-3.24v-.54l.28-.58.42-.29.67-.12.54-.42.35-.5.23-.49.24-.58.23-.5.59-2.33.19-1.16.16-1.74.07-.58.39-6.56v-.58l.08-1.12.35-.62.82-.25,1.32,0,1.71-.12,1.09.12h.54l.63-.08.73.08.82,0,.55-.08.58.41.31.54v.58l0,.63.08,1.37,0,.66v.58l0,.66,0,1.41v.54l0,.59,0,1.82,0,.54.08,2.41,0,.54,0,.5.08,1.57-.08,1.5.27.49.63.33.54-.08.58.37.35.75,0,1.12-.23,2.49-.08.5,0,.58-.07.66-.31.5-.7.33-.59-.25-.35-.54,0-.66,0-1.78,0-.46v-.58l-.24-.5-.58-.37-.46,0-.55-.08h-1.09l-.81.12-.82-.08-1.05,0-.51.08-.5-.08-.51,0-.81,0-.86-.08-.47.12-.58,0-.54-.12-.51.08-.51.21-.27.66,0,1.54.08,1.28,0,.5-.31.62-.62.29Zm6.5-6.89.54,0,.82-.09h1.67l.78-.29.31-.75,0-1.53,0-3.4,0-.5v-.62l0-.83v-.67l0-.79v-.87l0-.62,0-.5v-2.07l0-.54,0-.58-.23-.58-.59-.29h-.46l-.55,0-.78-.08-.77,0H266l-.54.29-.28.58,0,.54-.2,2.32-.11,2.41,0,.5v.57l-.35,2.41,0,.67-.7,2.82-.39,1.08-.24.58v.54l.43.12h.59l.77.09Z" transform="translate(-42.05 -31.78)"/><path class="cls-1" d="M282.15,173.44l-.54-.08-.51-.21-.5-.17-.43-.28-.43-.34-.39-.33-.54-1-.28-.62-.27-1,0-.58v-1.79l.08-.58.08-.54.15-.62.2-.46.2-.62.35-.5.27-.45.35-.46.39-.33.46-.5.47-.29,1.51-.75.59-.12,1.09-.17.81,0,.75-.08.5.08.54-.21.31-.53-.11-1.21-.08-.58-.08-.54-.15-.66-.2-.46-.31-.41-.42-.33-.43-.38-.51-.12-.82,0-.81-.08-.86.2-.74.29-1,.67-.54.12-.51-.33-.23-.33-.08-.67.31-.62.39-.33.5-.25.47-.29,1-.45.47-.05.58-.16.55-.05,1.59.05.59.21.77.2.7.38.39.24.43.38.66,1,.24.54.23.62.23,1.16.16,1.16v.91l.07.83,0,1.16,0,.5,0,.58,0,1.79-.07,1.2.07.46-.07,2.07.07,1.41,0,.63,0,.62.12,1.08-.15.66-.82.29-1-.25-.39-.49-.08-.63-.23-.21-.31.17-.74.7-.51.38-.89.37-1,.34Zm2-2.24.46-.16,1-.5.81-.54.39-.46.31-.66.2-.75v-.54l0-.58,0-2.91v-.45l-.28-.71-.5-.16-2-.09-.55.21-1,.29-.89.67-.35.41-.35.5-.24.42-.23.54-.08.53-.08,1.5v1l.08.5.39,1,.31.37.47.29.54.25.78.08Z" transform="translate(-42.05 -31.78)"/><path class="cls-1" d="M296.94,173.07l-.5-.21-.2-.7,0-.55v-.87l0-.49.07-1,0-5.15,0-.66,0-.54v-1.74l0-.54v-.87l-.07-.87v-.63l.07-.62,0-.58v-1.66l-.11-.62v-.5l.19-.54.39-.33.5-.08.55,0,.55.25.35.58.07,1.74,0,.62v.58l.08.88,0,2.78.31.66.78.25.94,0,.58,0h1.63l.82.12.58,0,.82-.29.31-.62,0-.54-.08-1.29,0-.54,0-.62,0-.66v-2.33l0-.62.23-.58.74-.29.78,0,.47.42.23.57v2l0,.54,0,.58v2l0,.62,0,.58,0,.63,0,4,0,.54,0,1.91,0,.54.08.54v.45l0,.67.12,1.65v.63l-.12.54-.43.33L307,173h-.51l-.58-.13-.28-.41-.07-1.21-.08-.62,0-1.16-.08-.58v-.54l0-.71v-3l-.27-.63-.59-.29-.54,0-.9.09-2.52,0-.55.09-.58,0-.55.37-.31.54v1.12l0,.58-.08.83.08,2.07,0,.58v.59l0,.78V172l-.23.83-.74.33Z" transform="translate(-42.05 -31.78)"/><path class="cls-1" d="M318.07,173.36l-.5,0-.94-.5-.47-.33-.5-.29-.7-.79-.31-.46-.58-1.12-.39-1-.28-1.08-.31-1.79-.11-1.24v-2.37l.11-1.2.08-1.12.08-.62.43-1.7.23-.42.43-1.16.31-.54.66-.87.47-.46.38-.29.67-.37.78-.33.77-.21,1.09,0h.82l.54.08,1.05.37.43.21.43.29.82.71.66.91.54,1,.19.58.24.45.11.58.2.63.08.5.11.62.08,1.2.16,1.16-.08,1.7,0,.71,0,.58-.27,1.78-.08.46-.51,1.66-.23.62-.27.42-.23.62-.31.42-.43.41-.39.42-.43.37-.89.58-1,.25-.58.12h-1.59Zm2.18-2.16.5-.21.47-.16.47-.33L322,170l.35-.58.23-.54.2-.54.15-.58.12-.58,0-.54.11-.71.08-.54,0-.62,0-.66v-1l.08-.74-.12-1.7-.15-1.17L323,159l-.08-.54-.39-1.08-.23-.53-.31-.42-.39-.46-.89-.58-.51-.08-.74,0-.81.08-1,.29-.5.54-.51.71-.5.91-.08.58-.2.58-.19,1.12,0,.62-.08.5-.07,1.25.07,1.74v1.16l0,.66.08.55.43,1.78.19.62.2.41.31.5.35.5.47.42.42.25.59.2Z" transform="translate(-42.05 -31.78)"/><path class="cls-1" d="M46.8,207.54l-.55-.09-1.08-.24-.51-.29-.78-.38-.62-.54-.43-.41-.27-.63.08-.74.27-.37.51-.3.54.17.86.79.93.41.5.21.59.17.78.08.81-.17.51-.16.5-.13.43-.37.35-.37.58-1,.47-1.62,0-.62.16-.54,0-.62v-.59l-.27-.54-.47-.28-.58-.09-1.09,0-.54,0-.55,0-2.17.08-.51-.08-.58-.21-.2-.49,0-.54.28-.46.5-.29.86-.08H47l1.09.08.55,0,.46,0,.63-.08.5,0,.51.09.54-.25.27-.58,0-.54-.08-.63,0-.62-.24-1-.42-1.16-.24-.5-.69-.83-.86-.5-.51-.13-1.55-.08-.63.13-.5.21-.47.28-.42.38-.36.33-.54.12-.54-.12-.31-.5,0-.75.23-.58.43-.37.46-.42.43-.24,1.63-.67.51,0,.86,0,1.32,0,1.09.33.5.26L51,188l.86.75.35.33.31.54.31.46.23.46.23.66.16.58.15.54.12.54.08.58.16.62.19,2.41,0,1.78-.23,2.87-.43,1.82-.35,1-.89,1.53-.35.46-.39.29-.47.33-.39.37-1,.42-.54.12-1.4.09Z" transform="translate(-42.05 -31.78)"/><path class="cls-1" d="M59.8,206.92l-.27-.67-.08-.83,0-1.78,0-.5,0-.63,0-3.19-.08-.79.08-2.65,0-.54,0-.63-.08-1.78.08-1.78L59.45,189l-.08-.66.16-.54.46-.21.51-.12H61l.55.33.27.41.12,1v3.69l.08.83,0,.83.27.54h.5l.51-.21.89-.58.9-.66.74-.79,1-1.49.23-.46.31-.5.2-.58.27-.46.15-.58.16-.53.47-.5.66-.33.54,0,.55-.08.47.38.07.54-.62,1.57-.19.54-.28.46-.23.5-.31.45-.23.54-.31.42-.28.45-.35.5-1.12,1.12-.39.46-.28.66.08.58.31.59.43.62.43.74.27.5.23.54.28.5.31.45.54,1,.31.46.86,1.49.27.42.55,1,.85,1.5V207l-.39.26H71l-.62-.09-.74-.2-.58-.42-.32-.45-.54-1.21-.58-.87-.28-.62-.58-.92-.58-1.08-1.13-1.91-.86-1.57-.58-.42-.74.05-.58.33-.31.7,0,1.79,0,.7,0,.59v.57l-.08.54.08.67v.54l-.08.87.08,1.49-.24.66-.51.21-.54.05h-.46Z" transform="translate(-42.05 -31.78)"/><path class="cls-1" d="M80.88,207.54l-1.12-.13-1-.37-.47-.29-.81-.79-.39-.29-.32-.5-.5-1-.2-.5-.35-1.25-.15-.5-.31-3,0-1.5.08-.91,0-.54.15-1.79.16-.53,0-.59.15-.62.2-.5.15-.58.2-.58.27-.37.27-.58.39-.42.31-.54.39-.37.43-.33.46-.29,1.56-.58.5-.09.86-.08.78,0,1.17.29,1.44.67.5.41.35.33.31.67-.11.7-.24.46-.5.25-.55-.21L84,190l-.51-.34-.47-.16-1.36-.17-.82.09-.46.12-.5.21-.39.33-.35.46-.32.45-.27.46-.19.5-.12.54-.19.49-.16,1.25-.08.45-.07.59v.62l0,.58,0,.95v1.37l.19,2.33.12.49.07.59.24.45.42,1.12.32.46.35.42,1.16.62,1,.08.81-.08,1-.21.55-.17.66-.54.62-.58.54-.16.47.29.23.41.16.58-.27.79-.47.41-.43.26-.93.62-.51.12-.54.29-.51.13-.58,0Z" transform="translate(-42.05 -31.78)"/><path class="cls-1" d="M91.36,206.92l-.24-.92,0-.58.08-.87,0-3.53,0-.87,0-.54,0-2.28,0-.62V193.3l0-.57.08-.84,0-2.16,0-.45v-.95l.2-.58.62-.26.51,0,.54.08.51,0,.78,0,.77-.08,4.28,0,.54,0,.55-.08,1.59-.05.55.42.31.58-.08,1.37.08,1.49v5.27l-.08.58.08.54,0,.62v3.49l0,.54,0,1.83,0,.54v.53l.08.58v.67l-.16.54-.66.16-.78,0-.54-.2-.35-.38-.08-1.12v-1.16l0-.67,0-.58,0-.58,0-7,0-1.36,0-.59,0-.58,0-.62,0-1.21,0-.66-.31-.5-.9-.33-1.08,0-1.09,0h-.9l-.58,0-.78,0-.89.33-.28.83,0,1.79.08,1.49,0,1.66,0,.66,0,4.49,0,.49-.08,1.79,0,.54,0,2.32-.23.92-.7.24h-.81Z" transform="translate(-42.05 -31.78)"/><path class="cls-1" d="M112.87,207.49l-1.55-.54-.47-.37-.78-.79-.93-1.37-.23-.54-.43-1.07-.16-.54,0-.71-.19-.49,0-.63-.08-.58-.07-.62,0-2.28.19-2.37.19-1.16.39-1.79.2-.58.23-.53.59-.92.7-1,.38-.33.51-.34,1.48-.66,1.13-.21.77,0,.82.08,1,.17,1.48.83.82.91.54,1,.16.5.15,1.49-.19,1.5-.12.5-.12.57-.27.59-.81,1.49-1.17,1.2-.47.42-1.36.87-.5.2-.59.21-1,.42-.54.12-.55.05-.58.16-.47.29-.23.58.23.91.31.87.82,1.46.89.66.51.13.86.08.81,0,.55-.17.58-.08.47-.25.7-.46.7-.58.54-.25.47.25.23.5.08.66-.27.63-.39.41-.47.42-.47.29-.54.21-.54.29-1,.28-.51.09-1.71,0Zm-1.12-9.16,1.08-.34.47-.2,1-.55,1.36-1,.35-.45.27-.5.27-.58.19-.54.16-.5.12-.62,0-.87,0-.83-.12-.63-.7-.91-.39-.2-.58-.26h-.74l-1,.13-.82.2-.39.3-.35.33-.35.41-.31.59-.39,1.11-.47,2.87,0,1.16-.07,1.16.31.58.54.21Z" transform="translate(-42.05 -31.78)"/><path class="cls-1" d="M125.52,217.29l-.31-.46-.12-1.08v-.54l0-.66,0-.54,0-.58,0-.62,0-.67,0-1.82,0-.5,0-5.19,0-.58,0-.54-.07-.66v-1.7l0-.63,0-.49,0-.59,0-.62v-.54l.07-.66-.07-2.57,0-.5v-1l0-.54v-2.94l-.12-1.71.19-.66.47-.24.58,0,.71.21.42.5.12.62.19.42.43-.17.47-.29.47-.42.46-.28,2-.88.85,0,.54-.08h.82l1.09.29.47.21.82.66.35.33.27.59.23.41.19.62.16.46.19.66.2,1.16.19,1.87,0,1.12,0,.58v1.75l-.08.66,0,.54-.23,1.87-.23,1.08-.59,1.74-.54,1-.35.53-.58.67-.55.58-.54.33-.47.21-.43.25-.78.24-2,.13-.5-.13-1.72-.57-.5,0-.23.46v1.21l0,.66,0,.54v1.45l0,.87.07.58,0,2.24.15,1.83-.19.54-.47.17-.93,0Zm5.21-11.87.75-.08.81-.17.46-.21.43-.28.43-.42.35-.41.55-1,.38-1.08.24-1.24.15-2.41v-2.9l-.07-1.09v-.57l-.12-.59,0-.49-.27-1.21-.51-1-.31-.46-.42-.29-1.33-.17h-.81l-.51.09-.55.2-1,.5-.43.29-.86.88-.39.7-.15.87v7.35l0,.62v.62l-.07.79,0,.95.23,1,.43.5.46.29.51.16.51.09.54.08Z" transform="translate(-42.05 -31.78)"/><path class="cls-1" d="M146,206.92l-.35-.38-.07-1.74,0-.58v-1.17l0-.57,0-.71,0-.91v-1.75l0-.62.08-1.45,0-.54,0-.91.08-1v-1.66l-.08-.58,0-1.53-.23-.92-.63-.24-.54-.09-.55,0-.54,0h-.62l-.51.09-.58-.3-.24-.45,0-.55.28-.53.5-.37h.63l.77.08,1.64-.13,1.4.05.5-.05.59.13.5,0h.54l.51,0,.63.08.54,0,.54,0,.82,0,.78.21.31.59,0,.57-.23.54-.59.26-1.67-.09-.62,0h-.55l-.5.33-.31.54,0,1.5,0,2.12,0,.66,0,7.05,0,.5,0,.62,0,.58.07.58,0,1.12.07,1.17-.15.66-.39.21h-1Z" transform="translate(-42.05 -31.78)"/><path class="cls-1" d="M159.93,207.54l-.55-.09-.51-.2-.5-.17-.43-.29-.42-.33-.39-.34-.55-1-.27-.62-.27-1,0-.58v-1.78l.08-.58.07-.54.16-.62.19-.46.2-.62.35-.5.27-.46.35-.46.39-.33.46-.5.47-.28,1.52-.75.58-.13,1.09-.16.82,0,.74-.09.5.09.55-.21.31-.54-.12-1.2-.08-.58-.07-.54-.16-.67-.19-.45-.31-.42-.43-.33-.43-.37-.51-.13-.81,0-.82-.08-.85.21-.74.29-1,.66-.54.13-.5-.34-.24-.33-.08-.66.32-.62.38-.33.51-.25.46-.29,1-.46.46,0,.59-.17.54,0,1.59,0,.59.21.78.21.7.37.38.25.43.37.67,1,.23.54.23.62.24,1.16.15,1.17V194l.08.83,0,1.16,0,.5,0,.58,0,1.78-.08,1.21.08.45-.08,2.08.08,1.41,0,.62,0,.62.11,1.08-.15.66-.82.3-1-.25-.39-.5-.08-.62-.23-.21-.31.17-.74.7-.51.38-.89.37-1,.33Zm2-2.24.47-.17,1-.5.82-.54.39-.45.31-.67.19-.74v-.55l0-.57,0-2.91v-.46l-.27-.7-.51-.17-2-.08-.55.21-1,.29-.89.66-.35.42-.35.5-.24.41-.23.54-.08.54-.08,1.49v1l.08.5.39,1,.31.38.47.29.55.24.77.09Z" transform="translate(-42.05 -31.78)"/><path class="cls-1" d="M174.9,207.21h-.5l-.47-.34-.27-.49.08-.67,0-1.74v-1.12l0-.5v-.71l0-.49,0-.67,0-.5,0-.57,0-1.46,0-.58v-1.2l0-.5v-.87l0-.63,0-.62v-.82l0-.63.08-1.49,0-2.32.23-.59.59-.29.46.13,1,0,.54,0,.58.25.39.57.55,1.5.77,2.78.24.46.31,1.16.15.41.12.63.2.5.15.62.35,1.08.12.54.23.83.23.87.08.58.2.58,0,.58h.15l.19-.54.47-2.12.43-1.37.12-.58.58-1.74.31-1.2.7-2.24.2-.42.43-1.82.38-1.16.39-.5.58-.3,1-.08.5.08.51-.08.5.34.32.58-.08.58.08.58v.62l0,.54v2.9l0,.62,0,1.42,0,.58,0,.58v.62l0,.67,0,.87v.83l0,1.2,0,.87,0,.62,0,1,0,.58,0,2.28-.15.62-.39.21-.47,0-.5.13L187,207l-.31-.5-.08-.58-.07-1.12.07-.62,0-4.53,0-.87v-.66l0-.5-.07-.62.07-.67,0-.53.07-2,0-.54v-.62l.08-.83,0-1.08h-.08l-.15.54-.2.54-1.12,3.86-.12.62-.23.46-.12.58-.19.54-.47,1.7-.2.54-.66,2.11-.11.59-.31,1.08-.47.49-.9.38-.85-.34-.43-.5-.16-.62-.23-.45-.12-.58-.23-.5-.12-.66L178,197.29l-.31-1.12-.35-1-.74-2.78-.16-.54-.12-.66-.19-.54-.15,0,0,.58,0,.62v.58l.07.46,0,.62.08.62.08,3.2,0,.83v1.24l0,.54v1.7l0,.63,0,2.32,0,.54v.58l0,.58-.27.54-.51.38Z" transform="translate(-42.05 -31.78)"/><path class="cls-1" d="M196.16,207.21l-.55-.34-.31-.49.08-.59,0-.62,0-.54,0-.66,0-.92,0-.49v-4.4l0-.58,0-.62,0-5.23,0-.46v-.66l0-.62,0-1-.08-.62.2-.5.47-.37.42,0,.54,0,.51.24.35.46.12,1.08,0,.62,0,.58,0,3.32,0,1,.08,1.42-.08,1.57,0,.58-.08,2.79v.49l-.12,1.21,0,.54.16-.09.23-.41.16-.54.15-.46.35-1.12.54-1.2.28-.83.27-.54.43-1.08.23-.46.27-.45.24-.54.19-.54.27-.5,1.6-3.69.19-.54.31-.5.2-.54.19-.46.23-.53.59-.59.62-.21h1l.51.34.31.53,0,.59,0,.58,0,1.2,0,.58,0,6.35-.08.62v1.16l0,.54,0,1.79.08.54,0,.54,0,1.2.08.58v.58l0,.54,0,.67-.2.5-.66.24-.74.05-.54-.21-.31-.58,0-.5-.12-.46v-.66l0-.58,0-1.79,0-.66,0-1.62,0-.62,0-.54v-.54l0-.62.08-.59-.08-.45v-.58l0-.79v-.91l.12-1.08v-.62l0-.63v-.54l-.12,0-.31.63-.16.66-.19.5-.39.74-.78,2-.19.41-.23.58-.39.67-.51,1.41-.58,1.28-.43.79-2,4.65-.24.46-.46.57-.67.21-.5.13Z" transform="translate(-42.05 -31.78)"/><path class="cls-1" d="M219.89,212l-.31-.59-.12-.53,0-.54-.07-.63-.24-3.23v-.54l.28-.58.42-.29.67-.13.54-.41.35-.5.23-.5.24-.58.23-.5.59-2.32.19-1.16.15-1.75.08-.58.39-6.55v-.58l.08-1.13.35-.61.82-.26,1.32,0,1.71-.13,1.09.13h.54l.62-.08.74.08.82,0,.55-.08.58.42.31.53V189l0,.62.08,1.37,0,.66v.58l0,.67,0,1.41v.54l0,.58,0,1.82,0,.54.08,2.41,0,.54,0,.5.08,1.58-.08,1.49.27.49.63.34.54-.08.58.37.35.74,0,1.13-.23,2.49-.08.49,0,.59-.07.66-.31.5-.7.33-.59-.25-.35-.54,0-.66,0-1.79,0-.45V208l-.24-.49-.58-.38-.46.05-.55-.09h-1.09l-.81.13-.82-.09-1.05.05-.51.08-.5-.08-.51-.05-.81.05-.86-.09-.47.13-.58,0-.54-.13-.51.09-.51.2-.27.67,0,1.53.08,1.29,0,.5-.31.62-.62.29Zm6.5-6.89.54,0,.82-.08h1.67l.78-.3.31-.74,0-1.53,0-3.41,0-.5V198l0-.83v-.66l0-.79v-.87l0-.63,0-.49V191.6l0-.54,0-.58-.23-.58-.59-.29h-.46l-.55,0-.78-.09-.77,0h-.55l-.54.29-.28.58,0,.54-.2,2.33-.12,2.4,0,.5v.58l-.35,2.41,0,.66-.7,2.82-.39,1.08-.24.58v.54l.43.13h.59l.77.08Z" transform="translate(-42.05 -31.78)"/><path class="cls-1" d="M239,206.83l-.23-.5v-.58l.39-.54.74-.79.39-.54.27-.41.23-.46.28-.62.62-2.2.07-.62V199l.08-.62.12-.58L242,196v-.58l.19-2.12v-.87l0-.62.08-.5v-.62l.07-1.7.08-.62.32-.5.77-.29.55,0,3.46,0,.47-.08h.54l.58-.05.55.13.54-.08.74,0,.82.3.27.66,0,.54,0,.87,0,1.41,0,.5,0,1.49.08,1-.08,5.14.08.58v.54l0,1.2,0,.88,0,.58,0,.79-.08.58.08.66v.88l-.27.87-.47.33-.51-.09-.5.05-.51-.38-.23-.5,0-.54,0-1.28,0-.54,0-1.41.08-1.54,0-.54,0-3.19,0-.54v-.67l0-.62.08-2.32,0-.58v-1.83l-.31-.83-.47-.33H248l-.82.09-.51-.09h-.54l-.58,0-.47.29-.35.63,0,.57,0,.54,0,.5-.08.63v.58l-.19,3-.08.5,0,1.25-.15.58v.66l-.08.58-.16.5-.07.62-.39,1.7-.39,1.13-.59,1-.23.54-.74.83-1.12.79-.78.21Z" transform="translate(-42.05 -31.78)"/><path class="cls-1" d="M257.37,207l0-.45.27-.5.23-.62.28-.46.27-.54.31-.41.62-1.33.43-.7.27-.42.51-1.16.35-.42,0-.66-.38-.41-.51-.21-.47-.25-.62-.5-.58-.54-.31-.54-.27-.41-.2-.5-.39-1.66v-.87l0-.92.16-1.11.19-.63.16-.58.23-.46.31-.49.82-.79,1-.58.43-.29.58-.13.54-.21.51-.12h.86l.62,0,.78.12h.5l.55.09h.58l.58.16.47.08.58.17.59.13.46.45.28.62,0,.63,0,.62,0,.83,0,.62v1.37l.07.67-.07,1.16,0,.58v7.59l0,.62.07.54,0,.5.12,1.25,0,.58L269,207l-.43.25-.51,0-.5,0-.47-.25-.39-.46,0-.62-.11-1.66,0-1.29,0-.54v-1.57l.07-.83-.31-.5-.54-.25h-.58l-.55,0-.66.25-.51.58-.31.42-.31.66-.46.79-.28.58-.74,1.41-.46,1-.31.41-.51,1.08-.58.41-.63.3H257.8Zm8.05-9.58.85-.37.31-.92V193.8l0-.58.07-1.66-.07-.95-.28-.71-.54-.33-1.75-.21h-.86l-1.28.13-.47.29-.46.37-.35.38-.27.41-.24.54-.11.45-.16.67,0,1.7.12.58.5,1.08.35.46,1,.62,1.13.33.51,0Z" transform="translate(-42.05 -31.78)"/><path class="cls-1" d="M281.76,212l-.31-.59-.11-.53,0-.54-.08-.63-.23-3.23v-.54l.27-.58.43-.29.66-.13.55-.41.35-.5.23-.5.23-.58.23-.5.59-2.32.19-1.16.16-1.75.08-.58.39-6.55v-.58l.07-1.13.35-.61.82-.26,1.32,0,1.71-.13,1.09.13h.54l.63-.08.74.08.81,0,.55-.08.58.42.31.53V189l0,.62.08,1.37,0,.66v.58l0,.67,0,1.41v.54l0,.58,0,1.82,0,.54.08,2.41,0,.54,0,.5.08,1.58-.08,1.49.28.49.62.34.54-.08.59.37.35.74,0,1.13-.23,2.49-.08.49,0,.59-.08.66-.31.5-.7.33-.59-.25-.34-.54,0-.66,0-1.79,0-.45V208l-.23-.49-.58-.38-.47.05-.55-.09H292l-.82.13-.82-.09-1.05.05-.51.08-.5-.08-.5-.05-.82.05-.86-.09-.46.13-.59,0-.54-.13-.51.09-.5.2-.27.67,0,1.53.08,1.29,0,.5-.31.62-.62.29Zm6.5-6.89.54,0,.82-.08h1.67l.78-.3.31-.74,0-1.53,0-3.41,0-.5V198l0-.83v-.66l0-.79v-.87l0-.63,0-.49V191.6l0-.54,0-.58-.23-.58-.58-.29h-.47l-.55,0-.77-.09-.78,0h-.55l-.54.29-.27.58,0,.54-.19,2.33-.12,2.4,0,.5v.58l-.35,2.41,0,.66-.7,2.82-.39,1.08-.23.58v.54l.42.13h.59l.78.08Z" transform="translate(-42.05 -31.78)"/><path class="cls-1" d="M305.31,207.49l-1.56-.54-.46-.37-.78-.79-.93-1.37-.24-.54-.42-1.07-.16-.54,0-.71-.19-.49,0-.63-.08-.58-.08-.62,0-2.28.2-2.37.19-1.16.39-1.79.2-.58.23-.53.58-.92.7-1,.39-.33.51-.34,1.48-.66,1.12-.21.78,0,.82.08,1,.17,1.48.83.81.91.55,1,.15.5.16,1.49-.2,1.5-.11.5-.12.57-.27.59-.82,1.49-1.17,1.2-.46.42-1.36.87-.51.2-.58.21-1,.42-.55.12-.54.05-.59.16-.46.29-.23.58.23.91.31.87.81,1.46.9.66.51.13.85.08.82,0,.54-.17.58-.08.47-.25.7-.46.7-.58.55-.25.46.25.24.5.07.66-.27.63-.39.41-.46.42-.47.29-.54.21-.55.29-1.05.28-.5.09-1.72,0Zm-1.13-9.16,1.09-.34.47-.2,1-.55,1.36-1,.35-.45.27-.5.27-.58.2-.54.15-.5.12-.62,0-.87,0-.83-.12-.63-.7-.91-.38-.2-.59-.26h-.74l-1,.13-.81.2-.39.3-.35.33-.35.41-.31.59-.39,1.11-.47,2.87,0,1.16-.08,1.16.31.58.55.21Z" transform="translate(-42.05 -31.78)"/><path class="cls-1" d="M320.33,206.92l-.35-.38-.08-1.74,0-.58v-1.17l0-.57,0-.71,0-.91v-1.75l0-.62.08-1.45,0-.54,0-.91.08-1v-1.66l-.08-.58,0-1.53-.23-.92-.62-.24-.54-.09-.55,0-.55,0h-.62l-.5.09-.58-.3-.24-.45,0-.55.28-.53.5-.37h.62l.78.08,1.63-.13,1.41.05.5-.05.58.13.51,0h.54l.51,0,.62.08.54,0,.55,0,.82,0,.77.21.31.59,0,.57-.24.54-.58.26-1.67-.09-.63,0h-.54l-.5.33-.32.54,0,1.5,0,2.12,0,.66,0,7.05,0,.5,0,.62,0,.58.08.58,0,1.12.08,1.17-.15.66-.39.21h-1Z" transform="translate(-42.05 -31.78)"/><path class="cls-1" d="M335.35,207.49,333.8,207l-.47-.37-.78-.79-.93-1.37-.23-.54-.43-1.07-.16-.54,0-.71-.19-.49,0-.63-.08-.58-.08-.62,0-2.28.2-2.37.19-1.16.39-1.79.2-.58.23-.53.58-.92.7-1,.39-.33.51-.34,1.48-.66,1.12-.21.78,0,.82.08,1,.17,1.48.83.81.91.55,1,.15.5.16,1.49-.2,1.5-.11.5-.12.57-.27.59-.82,1.49-1.17,1.2-.46.42-1.36.87-.51.2-.58.21-1,.42-.55.12-.54.05-.58.16-.47.29-.23.58.23.91.31.87.82,1.46.89.66.51.13.85.08.82,0,.55-.17.58-.08.46-.25.7-.46.71-.58.54-.25.46.25.24.5.07.66-.27.63-.39.41-.46.42-.47.29-.54.21-.55.29-1.05.28-.5.09-1.71,0Zm-1.13-9.16,1.09-.34.47-.2,1-.55,1.36-1,.35-.45.27-.5.28-.58.19-.54.16-.5.11-.62,0-.87,0-.83-.11-.63-.7-.91-.39-.2-.58-.26h-.75l-1,.13-.82.2-.39.3-.35.33-.35.41-.31.59-.39,1.11-.47,2.87,0,1.16-.08,1.16.32.58.54.21Z" transform="translate(-42.05 -31.78)"/><path class="cls-1" d="M347.92,206.92l-.27-.54,0-5.23,0-.54v-.91l0-.63,0-1.45,0-.58,0-.58,0-1.12,0-.67,0-1.7v-1.16l0-.54-.08-2.32-.12-.54.2-.66.43-.34.5.13.47-.08.58.33.35.5,0,.57v1l.08.58,0,.71,0,.49,0,4.28,0,.54v3.24l-.08.78,0,.59-.12,2.24h.16l.39-1,.23-.58.47-1.54.35-.7.27-.83,1-2.08.16-.5.27-.49.23-.59.24-.45L354,194l.19-.54.24-.37.46-1.13.28-.45.43-1.16.27-.54.19-.42.39-.7.62-.87.55-.21.54-.12.51.08.58.37.23.45,0,.59,0,3.61,0,.54,0,1,0,1.29-.08.5.08.66v.62l-.08.5.08.63v1.2l0,.54,0,1.74,0,.54,0,3.44.08.63-.16.53-.42.21-.51.09H358l-.51-.33-.31-.38-.08-.54,0-1.16-.08-.54v-.66l0-.67-.08-.62,0-.54,0-1.78,0-.46.16-7.88-.08-.05-.23.67-1.09,2.78-.31.45-.43,1.13-.51,1-.23.5-.39,1.08-.23.5-.5,1-.2.54-.27.54-.16.54-.47.91-.19.62-.31.54-.89,2.08-.47.45-.7.3h-1Zm5.87-21.63H353l-.47-.07-.51-.09-.54-.21-.5-.29-.28-.54.08-.66.47-.46h.62l.5.08.59.17,1.67,0,.55-.12.5-.21.66.09.47.41.07.7-.38.59-.43.2-.47.13-.5.08-.51.21Z" transform="translate(-42.05 -31.78)"/><path class="cls-2" d="M203.46,127.47c-1,0-1.91-.07-2.87-.14-1.92-.08-3.88-.21-5.76-.34l-2.05-.14-.35,0c-2.78-.16-5.43-.32-8-.53l-.53,0-.42,0-1.26-.08c-.69,0-1.37-.07-2.05-.13l-6.29-.75c-.43,0-.82-.07-1.22-.12-1.64-.19-3.11-.37-4.61-.6l-.35-.06-.45-.07c-.15,0-.38-.07-.6-.11a2.32,2.32,0,0,1-.32-.06,24.64,24.64,0,0,1-2.7-.72,32.94,32.94,0,0,1-5.7-2.34c-4.74-2.44-9.46-5.11-14-7.7l-.53-.29a49.83,49.83,0,0,1-10.12-6.92c-1.59-1.5-3.17-3.16-3.59-5.51a22.47,22.47,0,0,1-.27-4.64,9.52,9.52,0,0,1,.69-2.84,6.62,6.62,0,0,1,5.09-3.79l.67-.14a5.52,5.52,0,0,1,.71,0,8.71,8.71,0,0,1,3.43,1c1,.43,2,.8,2.95,1.15l.8.29.17-.07a4.2,4.2,0,0,1,1.07-.27l-.25.74.38.15a3.66,3.66,0,0,1,.46.18,32.2,32.2,0,0,1,8.57,6.34,3.84,3.84,0,0,0,.61.49q.27.17.54.3a2,2,0,0,0,.39.15l6.23,1.57-.6-.07c-1-.12-1.91-.27-2.87-.42s-2.19-.34-3.29-.46a4.33,4.33,0,0,1-2.17-1,63.3,63.3,0,0,0-5.45-3.83A24.64,24.64,0,0,0,141,93.07c-.7-.19-1.41-.38-2.1-.59a7.62,7.62,0,0,0-1.16-.28l-.15,0,0,0-.31,0-.53,0h-.29a1.27,1.27,0,0,0-.28,0,4.69,4.69,0,0,0-2.23.69,3.63,3.63,0,0,0-1,1.1,6.38,6.38,0,0,0-.36,5.13,9.17,9.17,0,0,0,3.7,4.77,98.55,98.55,0,0,0,13.92,8.44c3.34,1.73,6.69,3.42,10,5.12l.89.46a17.69,17.69,0,0,0,5.81,2.17c.82.1,1.63.22,2.44.34s1.84.27,2.76.37c2.5.29,5.47.62,8.5.9l1,.08.69.06c.91,0,1.79.08,2.65.17l.52.06.83.08,1,.08,2.16.16c.47,0,1,.06,1.44.08s1.17.06,1.76.12l4.64.5,2,.21,1.12.11.35,0a22.38,22.38,0,0,0,2.32.11,30.19,30.19,0,0,0,3.09-.16c1.61-.23,3.17-.55,4.62-.86.7-.15,21.36-6.58,39.78-12.32-13.85,5.73-37.26,15.38-38.51,15.73l-.62.17a27.91,27.91,0,0,1-7.64,1.44Zm-36.4-27.63c-2-.25-4-.52-5.91-.93A20.69,20.69,0,0,1,156,97.24c-1.32-.67-2.62-1.49-3.87-2.28-.91-.58-1.86-1.17-2.81-1.72l-.51-.29a20.4,20.4,0,0,0-3.28-1.62,7.86,7.86,0,0,1,1.09.1,18.72,18.72,0,0,1,6.76,2.6c.68.39,1.37.76,2.05,1.11h-.07l2,1a22.49,22.49,0,0,0,3.32,1.28c1.87.56,3.75,1.3,5.56,2l1.38.55Zm3.44-1.71-1.45-.41-1.84-.56c-1.63-.49-3.31-1-5-1.33l-.95-.2a17.52,17.52,0,0,0-3.56-.49h-.86a2.58,2.58,0,0,1,.71-.27l.15,0a5.65,5.65,0,0,1,1.16-.2h.22c.5,0,1-.08,1.4-.08a13.42,13.42,0,0,1,4,.64,23.34,23.34,0,0,1,6.39,3Z" transform="translate(-42.05 -31.78)"/><path class="cls-3" d="M136.51,89.81a8.36,8.36,0,0,1,3.22.9c1,.45,2,.81,3,1.17l.61.23.37.13.35-.15a3.82,3.82,0,0,1,.66-.19l-.23.66.41.15.41.17a31.76,31.76,0,0,1,8.43,6.23,5,5,0,0,0,.59.5,5.51,5.51,0,0,1-1.08-.66,64.44,64.44,0,0,0-5.5-3.86,25.1,25.1,0,0,0-6.64-2.5c-.7-.19-1.4-.38-2.07-.58a7.89,7.89,0,0,0-1.19-.3l-.06-.09h-.51l-.53,0h-.64a5.38,5.38,0,0,0-2.48.78l0,0,0,0a4.18,4.18,0,0,0-1.05,1.22,6.88,6.88,0,0,0-.41,5.53,9.67,9.67,0,0,0,3.88,5,100.12,100.12,0,0,0,14,8.49c3.35,1.72,6.75,3.45,10,5.11l.06,0,.83.43a18.3,18.3,0,0,0,6,2.23c.81.09,1.62.21,2.43.33s1.84.27,2.77.38c2.51.29,5.49.62,8.51.89l1,.09.69.06h.07c.85,0,1.73.08,2.58.17l.51.06.85.08,1,.08,2.14.16,1.46.08c.6,0,1.17.06,1.73.11l4.55.49,2.09.23h.08l1,.1.31,0h.06c.76.07,1.55.1,2.34.1a29.94,29.94,0,0,0,3.18-.17c1.62-.23,3.18-.55,4.63-.86.49-.1,9.86-3,29.16-9C227.31,119.22,213,125.1,212,125.38l-.62.17a27.49,27.49,0,0,1-7.5,1.42h-.4c-1.06,0-1.95-.08-2.88-.14-1.91-.08-3.86-.21-5.75-.34l-2.07-.14h-.25l-.07,0h-.07c-2.71-.15-5.36-.31-7.95-.52h-.07l-.45,0h-.46l-1.25-.08c-.7,0-1.36-.07-2-.13-2-.22-4-.47-6.3-.75h-.05l-1.18-.12c-1.63-.19-3.1-.36-4.59-.6l-.33,0-.43-.07-.62-.11-.1,0a.9.9,0,0,1-.16,0h-.09a24,24,0,0,1-2.62-.7,33,33,0,0,1-5.61-2.3c-4.74-2.45-9.48-5.13-14.06-7.72l-.48-.27a49.15,49.15,0,0,1-10-6.84c-1.52-1.45-3.05-3-3.44-5.24a22.13,22.13,0,0,1-.26-4.54,9.14,9.14,0,0,1,.66-2.68A6.17,6.17,0,0,1,135.26,90l.61-.12a3.39,3.39,0,0,1,.64,0m12.68,2.76a22.76,22.76,0,0,1,4,1.89l.37.22h-.42l4.08,1.87a23.86,23.86,0,0,0,3.38,1.29c1,.29,1.93.63,2.89,1-.75-.12-1.49-.26-2.22-.41a20.07,20.07,0,0,1-5-1.62c-1.31-.66-2.59-1.47-3.83-2.26-.92-.58-1.87-1.18-2.83-1.73l-.42-.24M161,95.08a12.9,12.9,0,0,1,3.33.6c.68.21,1.34.44,2,.69-1.32-.39-2.67-.77-4-1l-1-.2-.32-.06m-24.52-6.27a5.49,5.49,0,0,0-.8.06L135,89a7.12,7.12,0,0,0-5.47,4.1,10.19,10.19,0,0,0-.72,3,22.67,22.67,0,0,0,.28,4.74c.44,2.48,2.05,4.2,3.73,5.79a50.77,50.77,0,0,0,10.23,7c4.82,2.73,9.65,5.47,14.57,8a32.56,32.56,0,0,0,5.77,2.37,22.69,22.69,0,0,0,2.72.73c.12,0,.26,0,.38.08s.43.06.61.1.53.1.79.13c1.54.24,3.09.43,4.63.61.41,0,.81.09,1.22.11q3.15.4,6.3.75c1.1.11,2.2.14,3.31.21a2.82,2.82,0,0,0,.41,0c.18,0,.37,0,.55.06,2.65.21,5.32.37,8,.52.13,0,.28,0,.42,0,2.61.17,5.21.37,7.81.48,1,.07,1.93.1,2.89.14h.43a31.17,31.17,0,0,0,8.39-1.63c1.83-.51,48.63-19.91,48.63-19.91v0h0S211.8,121.74,210.76,122c-1.51.32-3,.63-4.56.85-1,.1-2,.16-3,.16-.75,0-1.49,0-2.24-.1l-.38-.05-1.12-.11-6.64-.72c-1.07-.1-2.14-.12-3.21-.2s-2.14-.16-3.2-.24c-.45,0-.89-.09-1.34-.13-.88-.1-1.77-.14-2.66-.18l-1.7-.14c-2.83-.26-5.66-.57-8.48-.89-1.74-.2-3.46-.51-5.2-.72-2.35-.3-4.4-1.5-6.48-2.55-3.37-1.71-6.73-3.41-10.09-5.14a100,100,0,0,1-13.85-8.4,8.68,8.68,0,0,1-3.52-4.51,5.93,5.93,0,0,1,.32-4.74,3,3,0,0,1,.79-.93,4.25,4.25,0,0,1,2.05-.62h.45l.56,0a0,0,0,0,1,0,0l.37,0a8,8,0,0,1,1.1.27c2.87.87,5.86,1.39,8.5,3a62.67,62.67,0,0,1,5.41,3.8,4.88,4.88,0,0,0,2.41,1.07c2.07.24,4.1.63,6.16.88s5.94.63,5.94.63a1.6,1.6,0,0,0,.63-.1c-4-1-8-2-12-3a1,1,0,0,1-.31-.13,4.59,4.59,0,0,1-.49-.26,3.56,3.56,0,0,1-.53-.43A32.92,32.92,0,0,0,145.73,92c-.28-.13-.57-.22-.86-.34a18.8,18.8,0,0,1,4.24,2c2.26,1.28,4.39,2.84,6.7,4A22.09,22.09,0,0,0,161,99.4c2.47.52,5,.81,7.52,1.15l.46,0c.79,0,.83-.37.66-.43-2.94-1.07-5.82-2.36-8.81-3.27a21.56,21.56,0,0,1-3.25-1.24h.07a23.54,23.54,0,0,1,4.42.68c2.3.44,4.55,1.23,6.81,1.88.92.25,1.83.53,2.74.79a1.69,1.69,0,0,0,.47.08c.39,0,.34-.27.22-.36a23.14,23.14,0,0,0-7.69-4,13.83,13.83,0,0,0-4.19-.66,13.29,13.29,0,0,0-1.4.08h-.26a7.19,7.19,0,0,0-1.23.21.56.56,0,0,1-.1,0,3.51,3.51,0,0,0-1.29.58c-.84-.44-1.69-.87-2.52-1.35a19.55,19.55,0,0,0-6.94-2.67,8.5,8.5,0,0,0-1.23-.1,4.76,4.76,0,0,0-1.82.34c-1.19-.44-2.38-.85-3.54-1.37a9.12,9.12,0,0,0-3.63-1Z" transform="translate(-42.05 -31.78)"/><path class="cls-2" d="M173.46,118.14a12,12,0,0,1-1.91-.15,5.29,5.29,0,0,1-4-2.71,9.33,9.33,0,0,1-1.14-6.08c.33-2.17.8-4.42,2.55-5.91.23-.18.47-.35.73-.53l.08-.06h0l.42-.27.25-.16c.15-.11.28-.19.41-.27l.48-.3.26-.17c1.05-.77,4.36-2.65,6-3.55l.57-.33A163.3,163.3,0,0,1,193.56,91l.76-.24.66-.21.31-.11,0-.33c.05-.77.14-1.46.24-2.25s.24-1.93.33-3.29a66.58,66.58,0,0,0,.08-8.71,28,28,0,0,0-1.74-8.21,26.56,26.56,0,0,1,1.83,5.12,46.17,46.17,0,0,1,1,7.29,1.06,1.06,0,0,0,.27.81l.41.43.36-.48c.09-.12.13-.19.17-.25a19.15,19.15,0,0,1,1.17-2q-.41.74-.75,1.5a13.41,13.41,0,0,0-1.45,5.57c0,.9,0,1.63,0,2.26,0,.44,0,1.9,0,1.9l1.79-.58c.61-.21,1.22-.41,1.83-.59,1.41-.44,2.82-.86,4.23-1.27l4.31-1.3.35-.1c.34-.1.69-.21,1-.33l.29-.11.16-.08.14,0,.1-.07a3.64,3.64,0,0,0,.52-.35,61.6,61.6,0,0,1,12-8.14c1.1-.55,2.25-1.08,3.48-1.6l.55-.25a17.56,17.56,0,0,1,1.94-.79,52.24,52.24,0,0,1,16.41-2.94,53.43,53.43,0,0,1,8.68.75A43,43,0,0,1,263,74.25a22.81,22.81,0,0,0,6.63,1.62H270a17.16,17.16,0,0,1-2.51.2h0a15.32,15.32,0,0,1-3.61-.45,59,59,0,0,0-14.12-1.93c-1.07,0-2.07,0-3.05.13a59.58,59.58,0,0,0-13,2.78,60.77,60.77,0,0,0-10.51,5.2,69.89,69.89,0,0,0-7.83,6l-.32.28a3.73,3.73,0,0,0-.3.26,2.2,2.2,0,0,0-.29.23,1.3,1.3,0,0,0-.19.15l-.11.09a8.32,8.32,0,0,1-3.54,1.67l-1,.21-.56.14c-.32.08-.65.16-1,.26s-.47.13-.73.21l-.56.17-2.61.88c-5,1.68-10.16,3.43-15.21,5.25l-.45.17c-.57.21-1.12.42-1.67.65l-.56.24c-.69.29-1.38.59-2.06.92-2.31,1.11-4.62,2.36-6.85,3.56-1.45.79-2.9,1.57-4.36,2.32l-.36.22-.53.33c-.09.06-.18.14-.28.22l-.12.11a5.64,5.64,0,0,0-1.67,3.41,5.47,5.47,0,0,0,1.22,4.19,3.58,3.58,0,0,0,2.76,1.36,2.88,2.88,0,0,0,.41,0,27.12,27.12,0,0,0,3.55-.63c.38-.13,9.47-2.84,10.67-3.16,2.13-.58,4.32-1,6.44-1.47l.11,0c2.13-.45,4.94-1,7.81-1.52,1.38-.24,2.88-.44,4.67-.63l-2.4.68c-4,1.13-8.06,2.29-12.07,3.57-2.65.86-5.33,1.84-7.92,2.78-1.94.71-3.94,1.44-5.91,2.11A18.27,18.27,0,0,1,173.46,118.14Z" transform="translate(-42.05 -31.78)"/><path class="cls-3" d="M246.46,71.78a53.64,53.64,0,0,1,8.6.74,43.48,43.48,0,0,1,7.7,2.19l.83.32a59,59,0,0,0-13.87-1.85c-1.09,0-2.1,0-3.1.13a50.92,50.92,0,0,0-23.72,8.07,70.55,70.55,0,0,0-7.9,6.08l-.29.25-.27.23-.3.24-.2.16-.1.08A7.7,7.7,0,0,1,210.49,90l-.52.1-.5.1h-.06l-.52.13-1,.26c-.25.06-.5.14-.74.22l-.25.08-.31.09h-.05l-.42.14-.74.25L204,91.9c-5,1.68-10.15,3.43-15.21,5.26l-.43.16c-.57.21-1.14.42-1.72.66l-.55.24c-.68.29-1.38.59-2.07.93-2.33,1.12-4.64,2.37-6.88,3.57-1.42.77-2.9,1.57-4.35,2.32l0,0,0,0-.31.2-.52.32a2.38,2.38,0,0,0-.36.28.39.39,0,0,1-.1.08l0,0,0,0a6.15,6.15,0,0,0-1.79,3.67,6,6,0,0,0,1.34,4.59,4.09,4.09,0,0,0,3.14,1.54l.48,0h.07a28.06,28.06,0,0,0,3.54-.64h0c.34-.11,9.39-2.81,10.63-3.14,2.1-.58,4.29-1,6.4-1.46l.12,0c1.72-.37,3.22-.68,4.6-.94-2.29.67-4.58,1.35-6.85,2.08-2.67.85-5.35,1.84-7.95,2.78-1.93.71-3.92,1.44-5.89,2.11a17.82,17.82,0,0,1-5.74,1.1,12,12,0,0,1-1.82-.14A4.76,4.76,0,0,1,168,115a8.84,8.84,0,0,1-1.08-5.76c.31-2.09.75-4.23,2.35-5.59l.71-.52.17-.12h0l0,0,.19-.13.09-.06.23-.14,0,0,0,0,.38-.25.45-.29.27-.16,0,0,0,0c1-.73,4.42-2.67,5.88-3.5l.57-.33a163.2,163.2,0,0,1,15.32-6.57l.74-.24c.22-.07.45-.13.67-.21l.63-.22,0-.66c.05-.76.14-1.43.23-2.22s.25-2,.34-3.31c.12-1.6.18-3.23.19-4.86,0,.11,0,.21,0,.32a1.52,1.52,0,0,0,.41,1.15l.52.49a11,11,0,0,0-.75,3.94c0,.9,0,1.62,0,2.26v1.22l0,1.35,1.29-.41,1.15-.38c.6-.2,1.21-.4,1.82-.58,1.4-.44,2.81-.86,4.23-1.27l4.31-1.3.34-.1c.35-.11.71-.21,1.08-.35l.08,0,.21-.08.05,0,0,0,.08,0,.13-.06,0,0,.05,0,.07,0a3.46,3.46,0,0,0,.6-.4,60.37,60.37,0,0,1,11.92-8.07c1.1-.55,2.23-1.07,3.48-1.6l.54-.24a15.61,15.61,0,0,1,1.88-.78,52.07,52.07,0,0,1,16.26-2.91M187.71,57.84c1,1.26,1.55,2,1.57,2A31.73,31.73,0,0,1,193,66a27,27,0,0,1,2.51,10,65.75,65.75,0,0,1-.08,8.65c-.17,2.48-.46,3.83-.57,5.53-.46.16-.94.29-1.41.46a163.63,163.63,0,0,0-15.48,6.64c-1.21.69-5.37,3-6.56,3.9l-.73.46-.4.27-.38.23c-.12.09-.26.16-.37.25l0,0c-.26.18-.51.36-.76.56-1.85,1.57-2.37,3.89-2.72,6.22a9.86,9.86,0,0,0,1.19,6.39,5.79,5.79,0,0,0,4.33,3,12.23,12.23,0,0,0,2,.16,18.86,18.86,0,0,0,6.06-1.15c4.63-1.58,9.2-3.4,13.83-4.89,5.34-1.71,10.75-3.18,16.14-4.74.89-.25,1.78-.42,2.69-.71-1,0-2,0-3,.12h0l-.28,0h-.14c-1.94.19-3.9.42-5.83.75-2.62.45-5.23,1-7.83,1.53-2.2.45-4.4.9-6.57,1.5-1.21.32-10.35,3-10.69,3.15a25.47,25.47,0,0,1-3.47.62,2.06,2.06,0,0,1-.35,0c-2.42,0-3.82-3-3.49-5a5.17,5.17,0,0,1,1.49-3.11c.13-.1.24-.22.37-.3s.56-.35.84-.52c3.75-1.93,7.41-4.06,11.2-5.88.86-.42,1.72-.77,2.58-1.15.7-.28,1.4-.54,2.11-.81,5.52-2,11.08-3.86,16.63-5.73l1.15-.39.58-.17a7.38,7.38,0,0,1,.73-.21c.49-.15,1-.26,1.48-.39l1-.21a8.67,8.67,0,0,0,3.76-1.77l.33-.26.29-.24c.2-.18.42-.34.62-.53a70.38,70.38,0,0,1,7.79-6,60.52,60.52,0,0,1,10.38-5.14,59.92,59.92,0,0,1,12.86-2.76c.73-.06,1.73-.12,3-.12a58.36,58.36,0,0,1,14,1.91,15.29,15.29,0,0,0,3.73.46,18.67,18.67,0,0,0,3-.25c1.91-.31,3.81-.61,5.71-.93a1.08,1.08,0,0,1,0-.19H276v0l-5.58.17-.75,0h-.06a22.34,22.34,0,0,1-6.5-1.59,44.21,44.21,0,0,0-7.91-2.25,55.52,55.52,0,0,0-8.76-.75,52.24,52.24,0,0,0-16.56,3,22.5,22.5,0,0,0-2.53,1.06c-1.18.5-2.35,1-3.52,1.62a61.67,61.67,0,0,0-12.12,8.2,3.84,3.84,0,0,1-.54.35l-.25.11-.27.11c-.45.16-.91.29-1.35.42-2.85.88-5.7,1.69-8.55,2.57-1,.3-2,.65-3,1,0-1,0-2,0-3.47a12.87,12.87,0,0,1,1.41-5.37,41.36,41.36,0,0,1,4.4-7c.51-.7.89-1.43,1.38-2.13s1-1.59,1.29-2A12.7,12.7,0,0,0,204.68,71c-1.47,1.78-2.78,3.62-4.23,5.42a23.51,23.51,0,0,0-2.6,4,1.08,1.08,0,0,1-.13.19.62.62,0,0,1-.13-.5,45.89,45.89,0,0,0-1.06-7.38,27.84,27.84,0,0,0-4.17-9.22,41,41,0,0,0-3.13-4.06,10.67,10.67,0,0,0-1.52-1.56Z" transform="translate(-42.05 -31.78)"/><path class="cls-2" d="M188.78,64a16,16,0,0,1-3.69-.38A17.72,17.72,0,0,1,173,54.42a24,24,0,0,1-2.43-6.53,29.84,29.84,0,0,1-.65-8.23c.09-1.58.27-3.28.57-5.35l.15-.91a12.23,12.23,0,0,0,.92,1.6A21.25,21.25,0,0,0,179,41.42c.63.36,1.42.77,2.29,1.23a65,65,0,0,1,6,3.43,19.1,19.1,0,0,1,3.95,3.62,13,13,0,0,1,2.74,6,11,11,0,0,1-.71,5.06,10.29,10.29,0,0,1-.47,1.2c-.2-.39-.41-.77-.64-1.14a30.94,30.94,0,0,0-6.47-7.16c-1.08-.93-2.2-1.83-3.29-2.71-1.33-1.07-2.71-2.18-4-3.34A22.26,22.26,0,0,1,176,45.25,11.11,11.11,0,0,1,174.55,43l-1.7-3.66.76,4a8.07,8.07,0,0,0,1.3,2.88l.13.22a24.56,24.56,0,0,0,4.34,5.08c.8.76,1.64,1.49,2.47,2.23,1.38,1.22,2.82,2.49,4.09,3.86a14.15,14.15,0,0,1,3.8,6.43C189.43,64,189.11,64,188.78,64Z" transform="translate(-42.05 -31.78)"/><path class="cls-3" d="M170.87,34.92l.24.36c.2.29.41.58.63.86l1.37,7.22a9.07,9.07,0,0,0,1.37,3.06l.13.19a24.15,24.15,0,0,0,4.43,5.2c.81.77,1.66,1.51,2.47,2.24,1.38,1.22,2.81,2.48,4.07,3.83a14.28,14.28,0,0,1,3.51,5.61h-.31a15.63,15.63,0,0,1-3.58-.37,17.2,17.2,0,0,1-11.8-8.94A23.46,23.46,0,0,1,171,47.77a29.14,29.14,0,0,1-.64-8.08c.08-1.42.23-2.95.49-4.77m1.31,1.76a23.25,23.25,0,0,0,6.53,5.18c.65.36,1.45.78,2.31,1.23a68.74,68.74,0,0,1,6,3.4A18.47,18.47,0,0,1,190.85,50a12.52,12.52,0,0,1,2.63,5.76,10.6,10.6,0,0,1-.69,4.83,1.18,1.18,0,0,1-.07.2l-.14-.22A31.15,31.15,0,0,0,186,53.32c-1.09-.94-2.21-1.85-3.3-2.72-1.33-1.08-2.7-2.18-4-3.33a21.25,21.25,0,0,1-2.32-2.33A11.26,11.26,0,0,1,175,42.76l-2.82-6.08m-1.82-4.9c-.13.82-.28,1.63-.4,2.46-.26,1.79-.48,3.58-.58,5.4A30.07,30.07,0,0,0,170,48a24.7,24.7,0,0,0,2.49,6.68A18.32,18.32,0,0,0,185,64.1a16.68,16.68,0,0,0,3.8.39c.34,0,.68,0,1,0s.53-.19.43-.6a14.67,14.67,0,0,0-3.93-6.67c-2-2.2-4.4-4.06-6.58-6.12a23.37,23.37,0,0,1-4.25-5,8.49,8.49,0,0,1-1.37-2.93,12,12,0,0,0,1.53,2.38A22.39,22.39,0,0,0,178.05,48c2.36,2.11,4.9,4,7.3,6.06a30.65,30.65,0,0,1,6.38,7c.37.61.69,1.24,1,1.9a7.68,7.68,0,0,0,1-2,11.72,11.72,0,0,0,.73-5.29,13.53,13.53,0,0,0-2.87-6.3,19.61,19.61,0,0,0-4-3.71c-2.67-1.8-6.32-3.52-8.36-4.67a21,21,0,0,1-7.27-6.28,21.62,21.62,0,0,1-1.57-2.93Z" transform="translate(-42.05 -31.78)"/><path class="cls-2" d="M206,72.69l-.61,0c.08-.25.18-.49.27-.71A12,12,0,0,1,209,67.79c.65-.58,1.32-1.15,2-1.72s1.48-1.26,2.2-1.9a20.14,20.14,0,0,0,2.93-3.23l.13-.17,0-.1a.62.62,0,0,0,0-.51.65.65,0,0,0-.38-.37l-.3-.13-.67.6A32.92,32.92,0,0,1,210.53,64l-1,.73a34.72,34.72,0,0,0-4.93,4.45,15.54,15.54,0,0,0-1.4,1.92,5.67,5.67,0,0,1-.22-.66A6.9,6.9,0,0,1,204.26,64a17,17,0,0,1,5.4-4.3c.63-.35,1.31-.67,2-1a25.27,25.27,0,0,0,2.81-1.49,14.16,14.16,0,0,0,4.76-4.44l.11,1.21A20.75,20.75,0,0,1,218,64.08a13.54,13.54,0,0,1-7.29,7.65A12.09,12.09,0,0,1,206,72.69Z" transform="translate(-42.05 -31.78)"/><path class="cls-3" d="M218.83,54.17a20.36,20.36,0,0,1-1.34,9.72,13.06,13.06,0,0,1-7,7.38,11.54,11.54,0,0,1-4.34.92v0a11.71,11.71,0,0,1,3.21-4l2-1.71c.75-.63,1.49-1.26,2.2-1.89a21.27,21.27,0,0,0,3-3.32l.25-.32,0-.19a1.21,1.21,0,0,0,0-.75,1.12,1.12,0,0,0-.66-.65l-.59-.26-.47.44-.21.18-.22.2,0,0,0,0a31.94,31.94,0,0,1-4.3,3.63l-1,.76a35.24,35.24,0,0,0-5,4.51c-.31.36-.59.72-.85,1.08a6.44,6.44,0,0,1,1.26-5.64,16.63,16.63,0,0,1,5.24-4.16c.62-.35,1.3-.66,1.95-1a26,26,0,0,0,2.85-1.51,16.67,16.67,0,0,0,4.13-3.48m.7-3.11a7.77,7.77,0,0,1-.41.82,12.72,12.72,0,0,1-5,4.92c-1.49,1-3.19,1.59-4.76,2.46a17.74,17.74,0,0,0-5.55,4.43,7.42,7.42,0,0,0-1.32,6.87c.13.44.29.88.45,1.29,0,.11.11.18.19.33A15.73,15.73,0,0,1,205,69.49a35.49,35.49,0,0,1,4.86-4.38,42.28,42.28,0,0,0,5.39-4.48l.43-.38c.25.1,0,.26.05.38a20,20,0,0,1-2.87,3.16c-1.38,1.23-2.81,2.41-4.19,3.62a12.7,12.7,0,0,0-3.46,4.36c-.13.3-.26.64-.37,1s0,.38.31.41l.86,0a12.52,12.52,0,0,0,4.84-1,14.05,14.05,0,0,0,7.55-7.91,21.53,21.53,0,0,0,1.4-10.34c-.09-.91-.18-1.83-.28-2.88Z" transform="translate(-42.05 -31.78)"/><path class="cls-2" d="M187.7,57.84h0Z" transform="translate(-42.05 -31.78)"/><path class="cls-3" d="M187.7,57.83h0Z" transform="translate(-42.05 -31.78)"/><path class="cls-2" d="M187.68,57.83h0Z" transform="translate(-42.05 -31.78)"/><path class="cls-3" d="M187.69,57.83h0Zm0,0h0Z" transform="translate(-42.05 -31.78)"/></svg>